<?xml version="1.0" encoding="utf-8"?>
<!-- Generator: Adobe Illustrator 16.0.0, SVG Export Plug-In . SVG Version: 6.00 Build 0)  -->
<!DOCTYPE svg PUBLIC "-//W3C//DTD SVG 1.1//EN" "http://www.w3.org/Graphics/SVG/1.1/DTD/svg11.dtd">
<svg version="1.1" id="Ebene_1" xmlns="http://www.w3.org/2000/svg" xmlns:xlink="http://www.w3.org/1999/xlink" x="0px" y="0px"
	 width="576px" height="120px" viewBox="0 0 576 120" enable-background="new 0 0 576 120" xml:space="preserve">
<g>
	<path fill="#E40428" d="M69.28,30.747c-2.25,11.561-8.671,21.692-19.271,30.392C39.9,69.346,29.927,73.442,20.075,73.442
		c-5.239,0-9.547-1.433-12.915-4.3c-3.993-3.363-5.987-8.092-5.987-14.2c0-12.959,5.715-25.229,17.143-36.821
		C29.747,6.537,41.895,0.741,54.76,0.741c9.865,0,14.739,4.875,14.618,14.61L17.477,30.826c-1.019,4.603-1.524,7.899-1.524,9.887
		c0,5.102,1.746,9.014,5.24,11.748c2.863,2.366,6.479,3.549,10.85,3.549c7.111,0,13.787-2.373,20.023-7.112
		c6.236-4.742,11.036-11.041,14.409-18.9L69.28,30.747z M52.251,15.573c0.127-5.93-2.684-8.898-8.422-8.898
		c-4.867,0-9.793,2.013-14.778,6.029c-4.99,4.017-8.483,8.786-10.479,14.304l33.68-10.299V15.573z"/>
	<path fill="#1D1D1B" d="M148.519,62.938c-1.795-12.929-12.449-20.59-27.533-20.59c-16.519,0-28.849,11.014-28.849,33.277
		c0,17.836,12.33,30.166,30.046,30.166c18.675,0,24.898-12.688,26.336-21.666h19.392c-2.514,16.997-13.646,35.072-48.839,35.072
		c-30.884,0-45.608-21.066-45.608-45.128c0-24.061,14.125-45.129,47.762-45.129c29.447,0,44.771,15.562,46.685,33.998H148.519z"/>
	<path fill="#1D1D1B" d="M182.395,31.334h17.955v33.279h53.028V31.334h17.957v85.47h-17.957V78.021H200.35v38.784h-17.955V31.334z"
		/>
</g>
<g>
	<path fill="#1D1D1B" d="M304.48,101.11h11.75v2.904h-8.295v3.366h7.613v2.685h-7.613v3.851h8.471v2.904H304.48V101.11z"/>
	<path fill="#1D1D1B" d="M318.714,109.472h6.623v2.684h-6.623V109.472z"/>
	<path fill="#1D1D1B" d="M339.704,115.038c-1.21,1.563-2.794,2.156-4.313,2.156c-4.862,0-7.723-3.631-7.723-8.163
		c0-4.665,2.861-8.295,7.723-8.295c3.212,0,6.249,1.979,6.667,5.545h-3.344c-0.396-1.738-1.694-2.641-3.323-2.641
		c-3.103,0-4.269,2.641-4.269,5.391c0,2.618,1.166,5.259,4.269,5.259c2.245,0,3.542-1.21,3.741-3.345h-3.477v-2.574h6.601v8.449
		h-2.244L339.704,115.038z"/>
	<path fill="#1D1D1B" d="M350.57,105.137c3.587,0,5.897,2.376,5.897,6.007c0,3.608-2.311,5.984-5.897,5.984
		c-3.564,0-5.875-2.376-5.875-5.984C344.695,107.513,347.006,105.137,350.57,105.137z M350.57,114.774
		c2.134,0,2.772-1.826,2.772-3.631c0-1.826-0.639-3.652-2.772-3.652c-2.112,0-2.751,1.826-2.751,3.652
		C347.819,112.948,348.458,114.774,350.57,114.774z"/>
	<path fill="#1D1D1B" d="M357.741,105.444h3.234l2.442,7.768h0.044l2.377-7.768h3.124l-3.872,11.376h-3.455L357.741,105.444z"/>
	<path fill="#1D1D1B" d="M373.163,111.892c0.088,1.98,1.057,2.883,2.795,2.883c1.254,0,2.266-0.771,2.486-1.475h2.729
		c-0.881,2.685-2.75,3.828-5.325,3.828c-3.587,0-5.809-2.464-5.809-5.984c0-3.41,2.354-6.007,5.809-6.007
		c3.653,0,5.545,3.036,5.545,5.765v0.99H373.163z M378.269,109.911c-0.309-1.584-0.99-2.42-2.509-2.42
		c-1.98,0-2.552,1.54-2.597,2.42H378.269z"/>
	<path fill="#1D1D1B" d="M383.547,105.444h2.971v2.112h0.044c0.572-1.43,2.112-2.42,3.631-2.42c0.22,0,0.484,0.044,0.682,0.11v2.904
		c-0.286-0.066-0.748-0.11-1.122-0.11c-2.288,0-3.081,1.65-3.081,3.652v5.127h-3.124V105.444z"/>
	<path fill="#1D1D1B" d="M392.435,105.444h2.971v1.585h0.066c0.791-1.276,2.156-1.893,3.477-1.893c3.322,0,4.158,1.87,4.158,4.687
		v6.997h-3.125v-6.425c0-1.87-0.55-2.795-2.002-2.795c-1.694,0-2.42,0.946-2.42,3.257v5.963h-3.125V105.444z"/>
	<path fill="#1D1D1B" d="M405.899,105.444h2.947v1.541h0.045c0.813-1.167,2.002-1.849,3.477-1.849c1.43,0,2.706,0.528,3.322,1.893
		c0.66-0.99,1.848-1.893,3.432-1.893c2.421,0,4.159,1.122,4.159,4.07v7.613h-3.124v-6.447c0-1.518-0.133-2.772-1.914-2.772
		c-1.761,0-2.091,1.452-2.091,2.883v6.337h-3.124v-6.381c0-1.32,0.088-2.839-1.893-2.839c-0.616,0-2.112,0.396-2.112,2.619v6.601
		h-3.124V105.444z"/>
	<path fill="#1D1D1B" d="M428.647,111.892c0.088,1.98,1.056,2.883,2.794,2.883c1.254,0,2.267-0.771,2.486-1.475h2.728
		c-0.879,2.685-2.75,3.828-5.324,3.828c-3.586,0-5.809-2.464-5.809-5.984c0-3.41,2.354-6.007,5.809-6.007
		c3.652,0,5.545,3.036,5.545,5.765v0.99H428.647z M433.751,109.911c-0.308-1.584-0.99-2.42-2.508-2.42
		c-1.98,0-2.553,1.54-2.596,2.42H433.751z"/>
	<path fill="#1D1D1B" d="M439.03,105.444h2.971v1.585h0.065c0.792-1.276,2.156-1.893,3.477-1.893c3.322,0,4.159,1.87,4.159,4.687
		v6.997h-3.125v-6.425c0-1.87-0.551-2.795-2.002-2.795c-1.695,0-2.421,0.946-2.421,3.257v5.963h-3.124V105.444z"/>
	<path fill="#1D1D1B" d="M453.242,107.535h-1.893v-2.091h1.893v-3.41h3.124v3.41h2.289v2.091h-2.289v5.633
		c0,1.056,0.264,1.32,1.32,1.32c0.33,0,0.639-0.022,0.969-0.088v2.42c-0.528,0.11-1.211,0.132-1.826,0.132
		c-1.915,0-3.587-0.439-3.587-2.706V107.535z"/>
	<path fill="#1D1D1B" d="M469.61,111.605c0,2.091,1.628,2.904,3.477,2.904c1.209,0,3.059-0.352,3.059-1.958
		c0-1.276-1.102-1.738-4.247-2.486c-2.772-0.66-5.104-1.628-5.104-4.577c0-3.212,3.036-4.752,5.875-4.752
		c3.277,0,6.293,1.43,6.293,5.061h-3.346c-0.109-1.893-1.451-2.377-3.102-2.377c-1.101,0-2.377,0.463-2.377,1.782
		c0,1.145,0.506,1.343,4.951,2.442c2.596,0.639,4.4,1.849,4.4,4.511c0,2.883-2.266,5.039-6.535,5.039
		c-3.477,0-6.688-1.716-6.688-5.589H469.61z"/>
	<path fill="#1D1D1B" d="M482.37,107.535h-1.893v-2.091h1.893v-3.41h3.124v3.41h2.288v2.091h-2.288v5.633
		c0,1.056,0.264,1.32,1.319,1.32c0.33,0,0.639-0.022,0.969-0.088v2.42c-0.527,0.11-1.21,0.132-1.826,0.132
		c-1.914,0-3.586-0.439-3.586-2.706V107.535z"/>
	<path fill="#1D1D1B" d="M489.476,108.943c0.176-2.927,2.794-3.807,5.346-3.807c2.268,0,4.995,0.506,4.995,3.234v5.919
		c0,1.034,0.11,2.068,0.396,2.53h-3.124c-0.154-0.353-0.242-0.727-0.265-1.101c-0.99,1.034-2.442,1.408-3.829,1.408
		c-2.156,0-3.872-1.078-3.872-3.41c0-2.574,1.937-3.19,3.872-3.454c1.914-0.286,3.697-0.221,3.697-1.496
		c0-1.343-0.924-1.541-2.024-1.541c-1.188,0-1.958,0.484-2.068,1.717H489.476z M496.692,111.254
		c-0.528,0.462-1.629,0.483-2.597,0.66c-0.968,0.197-1.849,0.527-1.849,1.672c0,1.166,0.902,1.452,1.914,1.452
		c2.443,0,2.531-1.937,2.531-2.618V111.254z"/>
	<path fill="#1D1D1B" d="M502.565,105.444h2.971v1.585h0.065c0.792-1.276,2.156-1.893,3.477-1.893c3.322,0,4.159,1.87,4.159,4.687
		v6.997h-3.125v-6.425c0-1.87-0.551-2.795-2.002-2.795c-1.695,0-2.421,0.946-2.421,3.257v5.963h-3.124V105.444z"/>
	<path fill="#1D1D1B" d="M524.06,115.368h-0.044c-0.726,1.232-2.002,1.76-3.454,1.76c-3.433,0-5.105-2.948-5.105-6.095
		c0-3.059,1.695-5.896,5.039-5.896c1.342,0,2.662,0.572,3.389,1.694h-0.021h0.043v-5.721h3.125v15.71h-2.971V115.368z
		 M521.331,107.491c-2.046,0-2.75,1.76-2.75,3.63c0,1.782,0.814,3.653,2.75,3.653c2.068,0,2.685-1.805,2.685-3.675
		C524.016,109.251,523.355,107.491,521.331,107.491z"/>
	<path fill="#1D1D1B" d="M529.581,108.943c0.176-2.927,2.794-3.807,5.346-3.807c2.268,0,4.995,0.506,4.995,3.234v5.919
		c0,1.034,0.11,2.068,0.396,2.53h-3.124c-0.154-0.353-0.242-0.727-0.265-1.101c-0.99,1.034-2.442,1.408-3.829,1.408
		c-2.156,0-3.872-1.078-3.872-3.41c0-2.574,1.937-3.19,3.872-3.454c1.914-0.286,3.697-0.221,3.697-1.496
		c0-1.343-0.924-1.541-2.024-1.541c-1.188,0-1.958,0.484-2.068,1.717H529.581z M536.798,111.254
		c-0.528,0.462-1.629,0.483-2.597,0.66c-0.968,0.197-1.849,0.527-1.849,1.672c0,1.166,0.902,1.452,1.914,1.452
		c2.443,0,2.531-1.937,2.531-2.618V111.254z"/>
	<path fill="#1D1D1B" d="M542.67,105.444h2.971v2.112h0.044c0.572-1.43,2.112-2.42,3.631-2.42c0.22,0,0.484,0.044,0.682,0.11v2.904
		c-0.286-0.066-0.748-0.11-1.122-0.11c-2.288,0-3.081,1.65-3.081,3.652v5.127h-3.124V105.444z"/>
	<path fill="#1D1D1B" d="M559.677,115.368h-0.043c-0.727,1.232-2.002,1.76-3.455,1.76c-3.432,0-5.104-2.948-5.104-6.095
		c0-3.059,1.694-5.896,5.038-5.896c1.343,0,2.663,0.572,3.389,1.694h-0.021h0.044v-5.721h3.124v15.71h-2.971V115.368z
		 M556.949,107.491c-2.046,0-2.751,1.76-2.751,3.63c0,1.782,0.814,3.653,2.751,3.653c2.068,0,2.685-1.805,2.685-3.675
		C559.634,109.251,558.974,107.491,556.949,107.491z"/>
	<path fill="#1D1D1B" d="M567.75,113.124c0.022,1.364,1.167,1.914,2.398,1.914c0.902,0,2.046-0.353,2.046-1.452
		c0-0.946-1.298-1.276-3.542-1.761c-1.804-0.396-3.608-1.034-3.608-3.036c0-2.904,2.508-3.652,4.951-3.652
		c2.486,0,4.773,0.836,5.016,3.631h-2.971c-0.088-1.211-1.012-1.541-2.134-1.541c-1.012,0-1.738,0.242-1.738,1.057
		c0,0.836,0.88,1.144,2.971,1.563c2.552,0.506,4.181,1.275,4.181,3.322c0,2.992-2.597,3.96-5.193,3.96
		c-2.64,0-5.215-0.989-5.346-4.004H567.75z"/>
</g>
<g display="none">
</g>
<g>
</g>
<g>
</g>
<g>
</g>
<g>
</g>
<g>
</g>
<g>
</g>
</svg>
