<svg xmlns="http://www.w3.org/2000/svg" xmlns:xlink="http://www.w3.org/1999/xlink" contentStyleType="text/css" data-diagram-type="CLASS" height="442px" preserveAspectRatio="none" style="width:399px;height:442px;background:#FFFFFF;" version="1.1" viewBox="0 0 399 442" width="399px" zoomAndPan="magnify"><defs/><g><!--class DCAT--><g id="elem_DCAT"><rect codeLine="5" fill="#F1F1F1" height="96.8906" id="DCAT" rx="2.5" ry="2.5" style="stroke:#181818;stroke-width:0.5;" width="153.2988" x="148.17" y="7"/><ellipse cx="201.2271" cy="23" fill="#ADD1B2" rx="11" ry="11" style="stroke:#181818;stroke-width:1;"/><path d="M204.1959,28.6406 Q203.6178,28.9375 202.9771,29.0781 Q202.3365,29.2344 201.6334,29.2344 Q199.1334,29.2344 197.8053,27.5938 Q196.4928,25.9375 196.4928,22.8125 Q196.4928,19.6875 197.8053,18.0313 Q199.1334,16.375 201.6334,16.375 Q202.3365,16.375 202.9771,16.5313 Q203.6334,16.6875 204.1959,16.9844 L204.1959,19.7031 Q203.5709,19.125 202.9771,18.8594 Q202.3834,18.5781 201.7584,18.5781 Q200.4146,18.5781 199.7271,19.6563 Q199.0396,20.7188 199.0396,22.8125 Q199.0396,24.9063 199.7271,25.9844 Q200.4146,27.0469 201.7584,27.0469 Q202.3834,27.0469 202.9771,26.7813 Q203.5709,26.5 204.1959,25.9219 L204.1959,28.6406 Z " fill="#000000"/><text fill="#000000" font-family="sans-serif" font-size="14" lengthAdjust="spacing" textLength="38.6846" x="221.7271" y="27.8467">DCAT</text><line style="stroke:#181818;stroke-width:0.5;" x1="149.17" x2="300.4688" y1="39" y2="39"/><ellipse cx="159.17" cy="52.6484" fill="#000000" rx="3" ry="3" style="stroke:#000000;stroke-width:1;"/><text fill="#000000" font-family="sans-serif" font-size="14" lengthAdjust="spacing" textLength="106.21" x="168.17" y="55.9951">defines classes</text><ellipse cx="159.17" cy="68.9453" fill="#000000" rx="3" ry="3" style="stroke:#000000;stroke-width:1;"/><text fill="#000000" font-family="sans-serif" font-size="14" lengthAdjust="spacing" textLength="127.2988" x="168.17" y="72.292">defines properties</text><ellipse cx="159.17" cy="85.2422" fill="#000000" rx="3" ry="3" style="stroke:#000000;stroke-width:1;"/><text fill="#000000" font-family="sans-serif" font-size="14" lengthAdjust="spacing" textLength="115.2197" x="168.17" y="88.5889">base vocabulary</text><line style="stroke:#181818;stroke-width:0.5;" x1="149.17" x2="300.4688" y1="95.8906" y2="95.8906"/></g><!--class DCAT-AP--><g id="elem_DCAT-AP"><rect codeLine="11" fill="#F1F1F1" height="96.8906" id="DCAT-AP" rx="2.5" ry="2.5" style="stroke:#181818;stroke-width:0.5;" width="243.6289" x="7" y="180.9"/><ellipse cx="93.6865" cy="196.9" fill="#ADD1B2" rx="11" ry="11" style="stroke:#181818;stroke-width:1;"/><path d="M96.6553,202.5406 Q96.0771,202.8375 95.4365,202.9781 Q94.7959,203.1344 94.0928,203.1344 Q91.5928,203.1344 90.2646,201.4938 Q88.9521,199.8375 88.9521,196.7125 Q88.9521,193.5875 90.2646,191.9313 Q91.5928,190.275 94.0928,190.275 Q94.7959,190.275 95.4365,190.4313 Q96.0928,190.5875 96.6553,190.8844 L96.6553,193.6031 Q96.0303,193.025 95.4365,192.7594 Q94.8428,192.4781 94.2178,192.4781 Q92.874,192.4781 92.1865,193.5563 Q91.499,194.6188 91.499,196.7125 Q91.499,198.8063 92.1865,199.8844 Q92.874,200.9469 94.2178,200.9469 Q94.8428,200.9469 95.4365,200.6813 Q96.0303,200.4 96.6553,199.8219 L96.6553,202.5406 Z " fill="#000000"/><text fill="#000000" font-family="sans-serif" font-size="14" lengthAdjust="spacing" textLength="61.7559" x="114.1865" y="201.7467">DCAT-AP</text><line style="stroke:#181818;stroke-width:0.5;" x1="8" x2="249.6289" y1="212.9" y2="212.9"/><ellipse cx="18" cy="226.5484" fill="#000000" rx="3" ry="3" style="stroke:#000000;stroke-width:1;"/><text fill="#000000" font-family="sans-serif" font-size="14" lengthAdjust="spacing" textLength="148.2646" x="27" y="229.8951">uses classes of DCAT</text><ellipse cx="18" cy="242.8453" fill="#000000" rx="3" ry="3" style="stroke:#000000;stroke-width:1;"/><text fill="#000000" font-family="sans-serif" font-size="14" lengthAdjust="spacing" textLength="197.5928" x="27" y="246.192">specifies requirement levels</text><ellipse cx="18" cy="259.1422" fill="#000000" rx="3" ry="3" style="stroke:#000000;stroke-width:1;"/><text fill="#000000" font-family="sans-serif" font-size="14" lengthAdjust="spacing" textLength="217.6289" x="27" y="262.4889">specifies controlled vocabulary</text><line style="stroke:#181818;stroke-width:0.5;" x1="8" x2="249.6289" y1="269.7906" y2="269.7906"/></g><!--class DCAT-AP CH--><g id="elem_DCAT-AP CH"><rect codeLine="17" fill="#F1F1F1" height="80.5938" id="DCAT-AP CH" rx="2.5" ry="2.5" style="stroke:#181818;stroke-width:0.5;" width="335.6953" x="56.97" y="354.79"/><ellipse cx="177.3133" cy="370.79" fill="#ADD1B2" rx="11" ry="11" style="stroke:#181818;stroke-width:1;"/><path d="M180.282,376.4306 Q179.7039,376.7275 179.0633,376.8681 Q178.4226,377.0244 177.7195,377.0244 Q175.2195,377.0244 173.8914,375.3837 Q172.5789,373.7275 172.5789,370.6025 Q172.5789,367.4775 173.8914,365.8212 Q175.2195,364.165 177.7195,364.165 Q178.4226,364.165 179.0633,364.3212 Q179.7195,364.4775 180.282,364.7744 L180.282,367.4931 Q179.657,366.915 179.0633,366.6494 Q178.4695,366.3681 177.8445,366.3681 Q176.5008,366.3681 175.8133,367.4462 Q175.1258,368.5087 175.1258,370.6025 Q175.1258,372.6962 175.8133,373.7744 Q176.5008,374.8369 177.8445,374.8369 Q178.4695,374.8369 179.0633,374.5712 Q179.657,374.29 180.282,373.7119 L180.282,376.4306 Z " fill="#000000"/><text fill="#000000" font-family="sans-serif" font-size="14" lengthAdjust="spacing" textLength="86.5088" x="197.8133" y="375.6367">DCAT-AP CH</text><line style="stroke:#181818;stroke-width:0.5;" x1="57.97" x2="391.6653" y1="386.79" y2="386.79"/><ellipse cx="67.97" cy="400.4384" fill="#000000" rx="3" ry="3" style="stroke:#000000;stroke-width:1;"/><text fill="#000000" font-family="sans-serif" font-size="14" lengthAdjust="spacing" textLength="250.4004" x="76.97" y="403.7851">localizes DCAT-AP for Swiss context</text><ellipse cx="67.97" cy="416.7353" fill="#000000" rx="3" ry="3" style="stroke:#000000;stroke-width:1;"/><text fill="#000000" font-family="sans-serif" font-size="14" lengthAdjust="spacing" textLength="309.6953" x="76.97" y="420.082">can restrict more but not less than DCAT-AP</text><line style="stroke:#181818;stroke-width:0.5;" x1="57.97" x2="391.6653" y1="427.3837" y2="427.3837"/></g><!--reverse link DCAT to DCAT-AP--><g id="link_DCAT_DCAT-AP"><path codeLine="1" d="M195.1442,109.5683 C181.8842,133.3083 168.84,156.67 155.58,180.42 " fill="#FFFFFF" fill-opacity="0.00000" id="DCAT-backto-DCAT-AP" style="stroke:#181818;stroke-width:1;"/><polygon fill="#181818" points="198.07,104.33,190.1891,110.2368,195.6318,108.6952,197.1734,114.138,198.07,104.33" style="stroke:#181818;stroke-width:1;"/><text fill="#000000" font-family="sans-serif" font-size="13" lengthAdjust="spacing" textLength="72.5283" x="180.81" y="146.9669">is profile of</text></g><!--reverse link DCAT-AP to DCAT-AP CH--><g id="link_DCAT-AP_DCAT-AP CH"><path codeLine="2" d="M159.8741,283.3163 C174.0941,307.5763 188.13,331.52 201.61,354.51 " fill="#FFFFFF" fill-opacity="0.00000" id="DCAT-AP-backto-DCAT-AP CH" style="stroke:#181818;stroke-width:1;"/><polygon fill="#181818" points="156.84,278.14,157.9403,287.9272,159.3684,282.4536,164.842,283.8817,156.84,278.14" style="stroke:#181818;stroke-width:1;"/><text fill="#000000" font-family="sans-serif" font-size="13" lengthAdjust="spacing" textLength="95.7925" x="183.81" y="320.8569">is subprofile of</text></g><!--reverse link DCAT to DCAT-AP CH--><g id="link_DCAT_DCAT-AP CH"><path codeLine="3" d="M255.5657,109.4998 C283.7957,164.0998 316.63,250.25 287.81,324.79 C283.71,335.4 277.14,345.39 269.76,354.31 " fill="#FFFFFF" fill-opacity="0.00000" id="DCAT-backto-DCAT-AP CH" style="stroke:#181818;stroke-width:1;"/><polygon fill="#181818" points="252.81,104.17,253.3903,114.0017,255.1064,108.6115,260.4967,110.3275,252.81,104.17" style="stroke:#181818;stroke-width:1;"/><text fill="#000000" font-family="sans-serif" font-size="13" lengthAdjust="spacing" textLength="72.5283" x="299.81" y="233.9069">is profile of</text></g><!--SRC=[VOzBRWCX44JtdA8qoqXpWIWRorbaQIcv08CRfIKC4ngSdtptz4oO-2U75UAzhYwwn_NgfSD3twERhlrgq-4UB1XpyXm8oPiZEVMmVcggrE7IlgMUUCO5AuAcVnlekSEMF4SIp93aubN7Hyg5_y1WXR1FpWursFnf3cUnS-SbkSenLlTZ4XgIaHnxJKMcjygPTXGB0kqfo9NYKYmvXK3RVnVFVrvs1nK3V-dqGdtAU7vd-SsZZz9CPwEMa9BP5UnI9Wor8AQfZihbLNdBC8SV]--></g></svg>