<svg xmlns="http://www.w3.org/2000/svg" xmlns:xlink="http://www.w3.org/1999/xlink" contentStyleType="text/css" data-diagram-type="CLASS" height="1249px" preserveAspectRatio="none" style="width:1018px;height:1249px;background:#FFFFFF;" version="1.1" viewBox="0 0 1018 1249" width="1018px" zoomAndPan="magnify"><defs/><g><!--class Catalog--><g id="elem_Catalog"><rect codeLine="4" fill="#F1F1F1" height="194.6719" id="Catalog" rx="2.5" ry="2.5" style="stroke:#181818;stroke-width:0.5;" width="283.332" x="190.09" y="7"/><ellipse cx="300.6237" cy="23" fill="#ADD1B2" rx="11" ry="11" style="stroke:#181818;stroke-width:1;"/><path d="M303.5924,28.6406 Q303.0143,28.9375 302.3737,29.0781 Q301.7331,29.2344 301.0299,29.2344 Q298.5299,29.2344 297.2018,27.5938 Q295.8893,25.9375 295.8893,22.8125 Q295.8893,19.6875 297.2018,18.0313 Q298.5299,16.375 301.0299,16.375 Q301.7331,16.375 302.3737,16.5313 Q303.0299,16.6875 303.5924,16.9844 L303.5924,19.7031 Q302.9674,19.125 302.3737,18.8594 Q301.7799,18.5781 301.1549,18.5781 Q299.8112,18.5781 299.1237,19.6563 Q298.4362,20.7188 298.4362,22.8125 Q298.4362,24.9063 299.1237,25.9844 Q299.8112,27.0469 301.1549,27.0469 Q301.7799,27.0469 302.3737,26.7813 Q302.9674,26.5 303.5924,25.9219 L303.5924,28.6406 Z " fill="#000000"/><text fill="#000000" font-family="sans-serif" font-size="14" lengthAdjust="spacing" textLength="53.7646" x="321.1237" y="27.8467">Catalog</text><line style="stroke:#181818;stroke-width:0.5;" x1="191.09" x2="472.422" y1="39" y2="39"/><ellipse cx="201.09" cy="52.6484" fill="#FFFFFF" fill-opacity="0.00000" rx="3" ry="3" style="stroke:#038048;stroke-width:1;"/><text fill="#000000" font-family="sans-serif" font-size="14" lengthAdjust="spacing" textLength="132.2959" x="210.09" y="55.9951">dataset : Dataset[]</text><ellipse cx="201.09" cy="68.9453" fill="#FFFFFF" fill-opacity="0.00000" rx="3" ry="3" style="stroke:#038048;stroke-width:1;"/><text fill="#000000" font-family="sans-serif" font-size="14" lengthAdjust="spacing" textLength="160.8018" x="210.09" y="72.292">homepage : Document</text><ellipse cx="201.09" cy="85.2422" fill="#FFFFFF" fill-opacity="0.00000" rx="3" ry="3" style="stroke:#038048;stroke-width:1;"/><text fill="#000000" font-family="sans-serif" font-size="14" lengthAdjust="spacing" textLength="159.8584" x="210.09" y="88.5889">service : DataService[]</text><ellipse cx="201.09" cy="101.5391" fill="#FFFFFF" fill-opacity="0.00000" rx="3" ry="3" style="stroke:#038048;stroke-width:1;"/><text fill="#000000" font-family="sans-serif" font-size="14" lengthAdjust="spacing" textLength="130.6074" x="210.09" y="104.8857">spatial : Location[]</text><ellipse cx="201.09" cy="117.8359" fill="#FFFFFF" fill-opacity="0.00000" rx="3" ry="3" style="stroke:#038048;stroke-width:1;"/><text fill="#000000" font-family="sans-serif" font-size="14" lengthAdjust="spacing" textLength="257.332" x="210.09" y="121.1826">themeTaxonomy : ConceptScheme[]</text><ellipse cx="201.09" cy="134.1328" fill="#FFFFFF" fill-opacity="0.00000" rx="3" ry="3" style="stroke:#038048;stroke-width:1;"/><text fill="#000000" font-family="sans-serif" font-size="14" lengthAdjust="spacing" textLength="212.2969" x="210.09" y="137.4795">applicableLegislation : string[]</text><ellipse cx="201.09" cy="150.4297" fill="#FFFFFF" fill-opacity="0.00000" rx="3" ry="3" style="stroke:#038048;stroke-width:1;"/><text fill="#000000" font-family="sans-serif" font-size="14" lengthAdjust="spacing" textLength="150.8486" x="210.09" y="153.7764">resource : Resource[]</text><ellipse cx="201.09" cy="166.7266" fill="#FFFFFF" fill-opacity="0.00000" rx="3" ry="3" style="stroke:#038048;stroke-width:1;"/><text fill="#000000" font-family="sans-serif" font-size="14" lengthAdjust="spacing" textLength="132.0703" x="210.09" y="170.0732">Catalog : Catalog[]</text><ellipse cx="201.09" cy="183.0234" fill="#FFFFFF" fill-opacity="0.00000" rx="3" ry="3" style="stroke:#038048;stroke-width:1;"/><text fill="#000000" font-family="sans-serif" font-size="14" lengthAdjust="spacing" textLength="172.8262" x="210.09" y="186.3701">record : CatalogRecord[]</text><line style="stroke:#181818;stroke-width:0.5;" x1="191.09" x2="472.422" y1="193.6719" y2="193.6719"/></g><!--class Resource--><g id="elem_Resource"><rect codeLine="16" fill="#F1F1F1" height="504.3125" id="Resource" rx="2.5" ry="2.5" style="stroke:#181818;stroke-width:0.5;" width="248.7832" x="60.36" y="738.42"/><ellipse cx="147.9318" cy="754.42" fill="#A9DCDF" rx="11" ry="11" style="stroke:#181818;stroke-width:1;"/><path d="M148.0412,749.7638 L146.8849,754.8419 L149.213,754.8419 L148.0412,749.7638 Z M146.5568,747.5294 L149.5412,747.5294 L152.9005,759.92 L150.4474,759.92 L149.6818,756.8575 L146.4005,756.8575 L145.6505,759.92 L143.213,759.92 L146.5568,747.5294 Z " fill="#000000"/><text fill="#000000" font-family="sans-serif" font-size="14" font-style="italic" lengthAdjust="spacing" textLength="65.1396" x="168.4318" y="759.2667">Resource</text><line style="stroke:#181818;stroke-width:0.5;" x1="61.36" x2="308.1432" y1="770.42" y2="770.42"/><ellipse cx="71.36" cy="784.0684" fill="#FFFFFF" fill-opacity="0.00000" rx="3" ry="3" style="stroke:#038048;stroke-width:1;"/><text fill="#000000" font-family="sans-serif" font-size="14" lengthAdjust="spacing" textLength="152.3799" x="80.36" y="787.4151">contactPoint : string[]</text><ellipse cx="71.36" cy="800.3653" fill="#FFFFFF" fill-opacity="0.00000" rx="3" ry="3" style="stroke:#038048;stroke-width:1;"/><text fill="#000000" font-family="sans-serif" font-size="14" lengthAdjust="spacing" textLength="180.2227" x="80.36" y="803.712">description : description[]</text><ellipse cx="71.36" cy="816.6622" fill="#FFFFFF" fill-opacity="0.00000" rx="3" ry="3" style="stroke:#038048;stroke-width:1;"/><text fill="#000000" font-family="sans-serif" font-size="14" lengthAdjust="spacing" textLength="150.1992" x="80.36" y="820.0089">identifier : identifier[]</text><ellipse cx="71.36" cy="832.9591" fill="#FFFFFF" fill-opacity="0.00000" rx="3" ry="3" style="stroke:#038048;stroke-width:1;"/><text fill="#000000" font-family="sans-serif" font-size="14" lengthAdjust="spacing" textLength="120.0186" x="80.36" y="836.3057">publisher : Agent</text><ellipse cx="71.36" cy="849.2559" fill="#FFFFFF" fill-opacity="0.00000" rx="3" ry="3" style="stroke:#038048;stroke-width:1;"/><text fill="#000000" font-family="sans-serif" font-size="14" lengthAdjust="spacing" textLength="79.2832" x="80.36" y="852.6026">title : title[]</text><ellipse cx="71.36" cy="865.5528" fill="#FFFFFF" fill-opacity="0.00000" rx="3" ry="3" style="stroke:#038048;stroke-width:1;"/><text fill="#000000" font-family="sans-serif" font-size="14" lengthAdjust="spacing" textLength="142.1055" x="80.36" y="868.8995">keyword : Concept[]</text><ellipse cx="71.36" cy="881.8497" fill="#FFFFFF" fill-opacity="0.00000" rx="3" ry="3" style="stroke:#038048;stroke-width:1;"/><text fill="#000000" font-family="sans-serif" font-size="14" lengthAdjust="spacing" textLength="183.4697" x="80.36" y="885.1964">landingPage : Document[]</text><ellipse cx="71.36" cy="898.1466" fill="#FFFFFF" fill-opacity="0.00000" rx="3" ry="3" style="stroke:#038048;stroke-width:1;"/><text fill="#000000" font-family="sans-serif" font-size="14" lengthAdjust="spacing" textLength="103.3184" x="80.36" y="901.4932">issued : issued</text><ellipse cx="71.36" cy="914.4434" fill="#FFFFFF" fill-opacity="0.00000" rx="3" ry="3" style="stroke:#038048;stroke-width:1;"/><text fill="#000000" font-family="sans-serif" font-size="14" lengthAdjust="spacing" textLength="127.668" x="80.36" y="917.7901">theme : Concept[]</text><ellipse cx="71.36" cy="930.7403" fill="#FFFFFF" fill-opacity="0.00000" rx="3" ry="3" style="stroke:#038048;stroke-width:1;"/><text fill="#000000" font-family="sans-serif" font-size="14" lengthAdjust="spacing" textLength="136.2129" x="80.36" y="934.087">modified : modified</text><ellipse cx="71.36" cy="947.0372" fill="#FFFFFF" fill-opacity="0.00000" rx="3" ry="3" style="stroke:#038048;stroke-width:1;"/><text fill="#000000" font-family="sans-serif" font-size="14" lengthAdjust="spacing" textLength="187.7969" x="80.36" y="950.3839">license : LicenseDocument</text><ellipse cx="71.36" cy="963.3341" fill="#FFFFFF" fill-opacity="0.00000" rx="3" ry="3" style="stroke:#038048;stroke-width:1;"/><text fill="#000000" font-family="sans-serif" font-size="14" lengthAdjust="spacing" textLength="171.6367" x="80.36" y="966.6807">rights : RightsStatement</text><ellipse cx="71.36" cy="979.6309" fill="#FFFFFF" fill-opacity="0.00000" rx="3" ry="3" style="stroke:#038048;stroke-width:1;"/><text fill="#000000" font-family="sans-serif" font-size="14" lengthAdjust="spacing" textLength="222.7832" x="80.36" y="982.9776">accessRights : RightsStatement</text><ellipse cx="71.36" cy="995.9278" fill="#FFFFFF" fill-opacity="0.00000" rx="3" ry="3" style="stroke:#038048;stroke-width:1;"/><text fill="#000000" font-family="sans-serif" font-size="14" lengthAdjust="spacing" textLength="170.9121" x="80.36" y="999.2745">conformsTo : Standard[]</text><ellipse cx="71.36" cy="1012.2247" fill="#FFFFFF" fill-opacity="0.00000" rx="3" ry="3" style="stroke:#038048;stroke-width:1;"/><text fill="#000000" font-family="sans-serif" font-size="14" lengthAdjust="spacing" textLength="199.0762" x="80.36" y="1015.5714">isReferencedBy : Resource[]</text><ellipse cx="71.36" cy="1028.5216" fill="#FFFFFF" fill-opacity="0.00000" rx="3" ry="3" style="stroke:#038048;stroke-width:1;"/><text fill="#000000" font-family="sans-serif" font-size="14" lengthAdjust="spacing" textLength="129.9102" x="80.36" y="1031.8682">language : string[]</text><ellipse cx="71.36" cy="1044.8184" fill="#FFFFFF" fill-opacity="0.00000" rx="3" ry="3" style="stroke:#038048;stroke-width:1;"/><text fill="#000000" font-family="sans-serif" font-size="14" lengthAdjust="spacing" textLength="199.9443" x="80.36" y="1048.1651">qualifiedAttribution : string[]</text><ellipse cx="71.36" cy="1061.1153" fill="#FFFFFF" fill-opacity="0.00000" rx="3" ry="3" style="stroke:#038048;stroke-width:1;"/><text fill="#000000" font-family="sans-serif" font-size="14" lengthAdjust="spacing" textLength="182.793" x="80.36" y="1064.462">qualifiedRelation : string[]</text><ellipse cx="71.36" cy="1077.4122" fill="#FFFFFF" fill-opacity="0.00000" rx="3" ry="3" style="stroke:#038048;stroke-width:1;"/><text fill="#000000" font-family="sans-serif" font-size="14" lengthAdjust="spacing" textLength="143.3359" x="80.36" y="1080.7589">relation : Resource[]</text><ellipse cx="71.36" cy="1093.7091" fill="#FFFFFF" fill-opacity="0.00000" rx="3" ry="3" style="stroke:#038048;stroke-width:1;"/><text fill="#000000" font-family="sans-serif" font-size="14" lengthAdjust="spacing" textLength="116.4365" x="80.36" y="1097.0557">creator : Agent[]</text><ellipse cx="71.36" cy="1110.0059" fill="#FFFFFF" fill-opacity="0.00000" rx="3" ry="3" style="stroke:#038048;stroke-width:1;"/><text fill="#000000" font-family="sans-serif" font-size="14" lengthAdjust="spacing" textLength="119.3213" x="80.36" y="1113.3526">hasPolicy : string</text><ellipse cx="71.36" cy="1126.3028" fill="#FFFFFF" fill-opacity="0.00000" rx="3" ry="3" style="stroke:#038048;stroke-width:1;"/><text fill="#000000" font-family="sans-serif" font-size="14" lengthAdjust="spacing" textLength="114.5361" x="80.36" y="1129.6495">status : Concept</text><ellipse cx="71.36" cy="1142.5997" fill="#FFFFFF" fill-opacity="0.00000" rx="3" ry="3" style="stroke:#038048;stroke-width:1;"/><text fill="#000000" font-family="sans-serif" font-size="14" lengthAdjust="spacing" textLength="105.082" x="80.36" y="1145.9464">version : string</text><ellipse cx="71.36" cy="1158.8966" fill="#FFFFFF" fill-opacity="0.00000" rx="3" ry="3" style="stroke:#038048;stroke-width:1;"/><text fill="#000000" font-family="sans-serif" font-size="14" lengthAdjust="spacing" textLength="207.9629" x="80.36" y="1162.2432">versionNotes : versionNotes[]</text><ellipse cx="71.36" cy="1175.1934" fill="#FFFFFF" fill-opacity="0.00000" rx="3" ry="3" style="stroke:#038048;stroke-width:1;"/><text fill="#000000" font-family="sans-serif" font-size="14" lengthAdjust="spacing" textLength="142.6934" x="80.36" y="1178.5401">hasPart : Resource[]</text><ellipse cx="71.36" cy="1191.4903" fill="#FFFFFF" fill-opacity="0.00000" rx="3" ry="3" style="stroke:#038048;stroke-width:1;"/><text fill="#000000" font-family="sans-serif" font-size="14" lengthAdjust="spacing" textLength="106.1143" x="80.36" y="1194.837">first : Resource</text><ellipse cx="71.36" cy="1207.7872" fill="#FFFFFF" fill-opacity="0.00000" rx="3" ry="3" style="stroke:#038048;stroke-width:1;"/><text fill="#000000" font-family="sans-serif" font-size="14" lengthAdjust="spacing" textLength="104.0088" x="80.36" y="1211.1339">last : Resource</text><ellipse cx="71.36" cy="1224.0841" fill="#FFFFFF" fill-opacity="0.00000" rx="3" ry="3" style="stroke:#038048;stroke-width:1;"/><text fill="#000000" font-family="sans-serif" font-size="14" lengthAdjust="spacing" textLength="110.2979" x="80.36" y="1227.4307">prev : Resource</text><line style="stroke:#181818;stroke-width:0.5;" x1="61.36" x2="308.1432" y1="1234.7325" y2="1234.7325"/></g><!--class CatalogRecord--><g id="elem_CatalogRecord"><rect codeLine="46" fill="#F1F1F1" height="178.375" id="CatalogRecord" rx="2.5" ry="2.5" style="stroke:#181818;stroke-width:0.5;" width="206.2227" x="133.64" y="475.6"/><ellipse cx="180.996" cy="491.6" fill="#ADD1B2" rx="11" ry="11" style="stroke:#181818;stroke-width:1;"/><path d="M183.9647,497.2406 Q183.3866,497.5375 182.746,497.6781 Q182.1053,497.8344 181.4022,497.8344 Q178.9022,497.8344 177.5741,496.1938 Q176.2616,494.5375 176.2616,491.4125 Q176.2616,488.2875 177.5741,486.6313 Q178.9022,484.975 181.4022,484.975 Q182.1053,484.975 182.746,485.1313 Q183.4022,485.2875 183.9647,485.5844 L183.9647,488.3031 Q183.3397,487.725 182.746,487.4594 Q182.1522,487.1781 181.5272,487.1781 Q180.1835,487.1781 179.496,488.2563 Q178.8085,489.3188 178.8085,491.4125 Q178.8085,493.5063 179.496,494.5844 Q180.1835,495.6469 181.5272,495.6469 Q182.1522,495.6469 182.746,495.3813 Q183.3397,495.1 183.9647,494.5219 L183.9647,497.2406 Z " fill="#000000"/><text fill="#000000" font-family="sans-serif" font-size="14" lengthAdjust="spacing" textLength="103.0107" x="201.496" y="496.4467">CatalogRecord</text><line style="stroke:#181818;stroke-width:0.5;" x1="134.64" x2="338.8627" y1="507.6" y2="507.6"/><ellipse cx="144.64" cy="521.2484" fill="#FFFFFF" fill-opacity="0.00000" rx="3" ry="3" style="stroke:#038048;stroke-width:1;"/><text fill="#000000" font-family="sans-serif" font-size="14" lengthAdjust="spacing" textLength="146.1865" x="153.64" y="524.5951">primaryTopic : string</text><ellipse cx="144.64" cy="537.5453" fill="#FFFFFF" fill-opacity="0.00000" rx="3" ry="3" style="stroke:#038048;stroke-width:1;"/><text fill="#000000" font-family="sans-serif" font-size="14" lengthAdjust="spacing" textLength="136.2129" x="153.64" y="540.892">modified : modified</text><ellipse cx="144.64" cy="553.8422" fill="#FFFFFF" fill-opacity="0.00000" rx="3" ry="3" style="stroke:#038048;stroke-width:1;"/><text fill="#000000" font-family="sans-serif" font-size="14" lengthAdjust="spacing" textLength="103.3184" x="153.64" y="557.1889">issued : issued</text><ellipse cx="144.64" cy="570.1391" fill="#FFFFFF" fill-opacity="0.00000" rx="3" ry="3" style="stroke:#038048;stroke-width:1;"/><text fill="#000000" font-family="sans-serif" font-size="14" lengthAdjust="spacing" textLength="114.5361" x="153.64" y="573.4857">status : Concept</text><ellipse cx="144.64" cy="586.4359" fill="#FFFFFF" fill-opacity="0.00000" rx="3" ry="3" style="stroke:#038048;stroke-width:1;"/><text fill="#000000" font-family="sans-serif" font-size="14" lengthAdjust="spacing" textLength="170.9121" x="153.64" y="589.7826">conformsTo : Standard[]</text><ellipse cx="144.64" cy="602.7328" fill="#FFFFFF" fill-opacity="0.00000" rx="3" ry="3" style="stroke:#038048;stroke-width:1;"/><text fill="#000000" font-family="sans-serif" font-size="14" lengthAdjust="spacing" textLength="180.2227" x="153.64" y="606.0795">description : description[]</text><ellipse cx="144.64" cy="619.0297" fill="#FFFFFF" fill-opacity="0.00000" rx="3" ry="3" style="stroke:#038048;stroke-width:1;"/><text fill="#000000" font-family="sans-serif" font-size="14" lengthAdjust="spacing" textLength="79.2832" x="153.64" y="622.3764">title : title[]</text><ellipse cx="144.64" cy="635.3266" fill="#FFFFFF" fill-opacity="0.00000" rx="3" ry="3" style="stroke:#038048;stroke-width:1;"/><text fill="#000000" font-family="sans-serif" font-size="14" lengthAdjust="spacing" textLength="129.9102" x="153.64" y="638.6732">language : string[]</text><line style="stroke:#181818;stroke-width:0.5;" x1="134.64" x2="338.8627" y1="645.975" y2="645.975"/></g><!--class DataService--><g id="elem_DataService"><rect codeLine="56" fill="#F1F1F1" height="129.4844" id="DataService" rx="2.5" ry="2.5" style="stroke:#181818;stroke-width:0.5;" width="257.4922" x="311.01" y="261.67"/><ellipse cx="392.9216" cy="277.67" fill="#ADD1B2" rx="11" ry="11" style="stroke:#181818;stroke-width:1;"/><path d="M395.8904,283.3106 Q395.3122,283.6075 394.6716,283.7481 Q394.031,283.9044 393.3279,283.9044 Q390.8279,283.9044 389.4997,282.2638 Q388.1872,280.6075 388.1872,277.4825 Q388.1872,274.3575 389.4997,272.7013 Q390.8279,271.045 393.3279,271.045 Q394.031,271.045 394.6716,271.2013 Q395.3279,271.3575 395.8904,271.6544 L395.8904,274.3731 Q395.2654,273.795 394.6716,273.5294 Q394.0779,273.2481 393.4529,273.2481 Q392.1091,273.2481 391.4216,274.3263 Q390.7341,275.3888 390.7341,277.4825 Q390.7341,279.5763 391.4216,280.6544 Q392.1091,281.7169 393.4529,281.7169 Q394.0779,281.7169 394.6716,281.4513 Q395.2654,281.17 395.8904,280.5919 L395.8904,283.3106 Z " fill="#000000"/><text fill="#000000" font-family="sans-serif" font-size="14" lengthAdjust="spacing" textLength="85.1689" x="413.4216" y="282.5167">DataService</text><line style="stroke:#181818;stroke-width:0.5;" x1="312.01" x2="567.5022" y1="293.67" y2="293.67"/><ellipse cx="322.01" cy="307.3184" fill="#FFFFFF" fill-opacity="0.00000" rx="3" ry="3" style="stroke:#038048;stroke-width:1;"/><text fill="#000000" font-family="sans-serif" font-size="14" lengthAdjust="spacing" textLength="179.5322" x="331.01" y="310.6651">endpointURL : Resource[]</text><ellipse cx="322.01" cy="323.6153" fill="#FFFFFF" fill-opacity="0.00000" rx="3" ry="3" style="stroke:#038048;stroke-width:1;"/><text fill="#000000" font-family="sans-serif" font-size="14" lengthAdjust="spacing" textLength="231.4922" x="331.01" y="326.962">endpointDescription : Resource[]</text><ellipse cx="322.01" cy="339.9122" fill="#FFFFFF" fill-opacity="0.00000" rx="3" ry="3" style="stroke:#038048;stroke-width:1;"/><text fill="#000000" font-family="sans-serif" font-size="14" lengthAdjust="spacing" textLength="180.0449" x="331.01" y="343.2589">servesDataset : Dataset[]</text><ellipse cx="322.01" cy="356.2091" fill="#FFFFFF" fill-opacity="0.00000" rx="3" ry="3" style="stroke:#038048;stroke-width:1;"/><text fill="#000000" font-family="sans-serif" font-size="14" lengthAdjust="spacing" textLength="132.0361" x="331.01" y="359.5557">page : Document[]</text><ellipse cx="322.01" cy="372.5059" fill="#FFFFFF" fill-opacity="0.00000" rx="3" ry="3" style="stroke:#038048;stroke-width:1;"/><text fill="#000000" font-family="sans-serif" font-size="14" lengthAdjust="spacing" textLength="212.2969" x="331.01" y="375.8526">applicableLegislation : string[]</text><line style="stroke:#181818;stroke-width:0.5;" x1="312.01" x2="567.5022" y1="383.1544" y2="383.1544"/></g><!--class Dataset--><g id="elem_Dataset"><rect codeLine="63" fill="#F1F1F1" height="227.2656" id="Dataset" rx="2.5" ry="2.5" style="stroke:#181818;stroke-width:0.5;" width="238.2969" x="516.6" y="451.15"/><ellipse cx="604.0863" cy="467.15" fill="#ADD1B2" rx="11" ry="11" style="stroke:#181818;stroke-width:1;"/><path d="M607.0551,472.7906 Q606.477,473.0875 605.8363,473.2281 Q605.1957,473.3844 604.4926,473.3844 Q601.9926,473.3844 600.6645,471.7438 Q599.352,470.0875 599.352,466.9625 Q599.352,463.8375 600.6645,462.1813 Q601.9926,460.525 604.4926,460.525 Q605.1957,460.525 605.8363,460.6813 Q606.4926,460.8375 607.0551,461.1344 L607.0551,463.8531 Q606.4301,463.275 605.8363,463.0094 Q605.2426,462.7281 604.6176,462.7281 Q603.2738,462.7281 602.5863,463.8063 Q601.8988,464.8688 601.8988,466.9625 Q601.8988,469.0563 602.5863,470.1344 Q603.2738,471.1969 604.6176,471.1969 Q605.2426,471.1969 605.8363,470.9313 Q606.4301,470.65 607.0551,470.0719 L607.0551,472.7906 Z " fill="#000000"/><text fill="#000000" font-family="sans-serif" font-size="14" lengthAdjust="spacing" textLength="54.8242" x="624.5863" y="471.9967">Dataset</text><line style="stroke:#181818;stroke-width:0.5;" x1="517.6" x2="753.8969" y1="483.15" y2="483.15"/><ellipse cx="527.6" cy="496.7984" fill="#FFFFFF" fill-opacity="0.00000" rx="3" ry="3" style="stroke:#038048;stroke-width:1;"/><text fill="#000000" font-family="sans-serif" font-size="14" lengthAdjust="spacing" textLength="185.999" x="536.6" y="500.1451">distribution : Distribution[]</text><ellipse cx="527.6" cy="513.0953" fill="#FFFFFF" fill-opacity="0.00000" rx="3" ry="3" style="stroke:#038048;stroke-width:1;"/><text fill="#000000" font-family="sans-serif" font-size="14" lengthAdjust="spacing" textLength="130.6074" x="536.6" y="516.442">spatial : Location[]</text><ellipse cx="527.6" cy="529.3922" fill="#FFFFFF" fill-opacity="0.00000" rx="3" ry="3" style="stroke:#038048;stroke-width:1;"/><text fill="#000000" font-family="sans-serif" font-size="14" lengthAdjust="spacing" textLength="182.752" x="536.6" y="532.7389">temporal : PeriodOfTime[]</text><ellipse cx="527.6" cy="545.6891" fill="#FFFFFF" fill-opacity="0.00000" rx="3" ry="3" style="stroke:#038048;stroke-width:1;"/><text fill="#000000" font-family="sans-serif" font-size="14" lengthAdjust="spacing" textLength="147.6494" x="536.6" y="549.0357">availability : Concept</text><ellipse cx="527.6" cy="561.9859" fill="#FFFFFF" fill-opacity="0.00000" rx="3" ry="3" style="stroke:#038048;stroke-width:1;"/><text fill="#000000" font-family="sans-serif" font-size="14" lengthAdjust="spacing" textLength="166.3457" x="536.6" y="565.3326">identifier : Identifier_1[]</text><ellipse cx="527.6" cy="578.2828" fill="#FFFFFF" fill-opacity="0.00000" rx="3" ry="3" style="stroke:#038048;stroke-width:1;"/><text fill="#000000" font-family="sans-serif" font-size="14" lengthAdjust="spacing" textLength="132.0361" x="536.6" y="581.6295">page : Document[]</text><ellipse cx="527.6" cy="594.5797" fill="#FFFFFF" fill-opacity="0.00000" rx="3" ry="3" style="stroke:#038048;stroke-width:1;"/><text fill="#000000" font-family="sans-serif" font-size="14" lengthAdjust="spacing" textLength="178.2813" x="536.6" y="597.9264">accrualPeriodicity : string</text><ellipse cx="527.6" cy="610.8766" fill="#FFFFFF" fill-opacity="0.00000" rx="3" ry="3" style="stroke:#038048;stroke-width:1;"/><text fill="#000000" font-family="sans-serif" font-size="14" lengthAdjust="spacing" textLength="108.3359" x="536.6" y="614.2232">image : string[]</text><ellipse cx="527.6" cy="627.1734" fill="#FFFFFF" fill-opacity="0.00000" rx="3" ry="3" style="stroke:#038048;stroke-width:1;"/><text fill="#000000" font-family="sans-serif" font-size="14" lengthAdjust="spacing" textLength="212.2969" x="536.6" y="630.5201">applicableLegislation : string[]</text><ellipse cx="527.6" cy="643.4703" fill="#FFFFFF" fill-opacity="0.00000" rx="3" ry="3" style="stroke:#038048;stroke-width:1;"/><text fill="#000000" font-family="sans-serif" font-size="14" lengthAdjust="spacing" textLength="178.2334" x="536.6" y="646.817">inSeries : DatasetSeries[]</text><ellipse cx="527.6" cy="659.7672" fill="#FFFFFF" fill-opacity="0.00000" rx="3" ry="3" style="stroke:#038048;stroke-width:1;"/><text fill="#000000" font-family="sans-serif" font-size="14" lengthAdjust="spacing" textLength="184.2148" x="536.6" y="663.1139">wasGeneratedBy : string[]</text><line style="stroke:#181818;stroke-width:0.5;" x1="517.6" x2="753.8969" y1="670.4156" y2="670.4156"/></g><!--class DatasetSeries--><g id="elem_DatasetSeries"><rect codeLine="76" fill="#F1F1F1" height="96.8906" id="DatasetSeries" rx="2.5" ry="2.5" style="stroke:#181818;stroke-width:0.5;" width="288.5684" x="722.47" y="942.13"/><ellipse cx="813.5657" cy="958.13" fill="#ADD1B2" rx="11" ry="11" style="stroke:#181818;stroke-width:1;"/><path d="M816.5345,963.7706 Q815.9563,964.0675 815.3157,964.2081 Q814.6751,964.3644 813.972,964.3644 Q811.472,964.3644 810.1438,962.7238 Q808.8313,961.0675 808.8313,957.9425 Q808.8313,954.8175 810.1438,953.1613 Q811.472,951.505 813.972,951.505 Q814.6751,951.505 815.3157,951.6613 Q815.972,951.8175 816.5345,952.1144 L816.5345,954.8331 Q815.9095,954.255 815.3157,953.9894 Q814.722,953.7081 814.097,953.7081 Q812.7532,953.7081 812.0657,954.7863 Q811.3782,955.8488 811.3782,957.9425 Q811.3782,960.0363 812.0657,961.1144 Q812.7532,962.1769 814.097,962.1769 Q814.722,962.1769 815.3157,961.9113 Q815.9095,961.63 816.5345,961.0519 L816.5345,963.7706 Z " fill="#000000"/><text fill="#000000" font-family="sans-serif" font-size="14" lengthAdjust="spacing" textLength="97.877" x="834.0657" y="962.9767">DatasetSeries</text><line style="stroke:#181818;stroke-width:0.5;" x1="723.47" x2="1010.0384" y1="974.13" y2="974.13"/><ellipse cx="733.47" cy="987.7784" fill="#FFFFFF" fill-opacity="0.00000" rx="3" ry="3" style="stroke:#038048;stroke-width:1;"/><text fill="#000000" font-family="sans-serif" font-size="14" lengthAdjust="spacing" textLength="212.2969" x="742.47" y="991.1251">applicableLegislation : string[]</text><ellipse cx="733.47" cy="1004.0753" fill="#FFFFFF" fill-opacity="0.00000" rx="3" ry="3" style="stroke:#038048;stroke-width:1;"/><text fill="#000000" font-family="sans-serif" font-size="14" lengthAdjust="spacing" textLength="262.5684" x="742.47" y="1007.422">accrualPeriodicity : accrualPeriodicity</text><ellipse cx="733.47" cy="1020.3722" fill="#FFFFFF" fill-opacity="0.00000" rx="3" ry="3" style="stroke:#038048;stroke-width:1;"/><text fill="#000000" font-family="sans-serif" font-size="14" lengthAdjust="spacing" textLength="111.3369" x="742.47" y="1023.7189">spatial : string[]</text><line style="stroke:#181818;stroke-width:0.5;" x1="723.47" x2="1010.0384" y1="1031.0206" y2="1031.0206"/></g><!--class Distribution--><g id="elem_Distribution"><rect codeLine="81" fill="#F1F1F1" height="439.125" id="Distribution" rx="2.5" ry="2.5" style="stroke:#181818;stroke-width:0.5;" width="343.6318" x="343.94" y="771.01"/><ellipse cx="470.668" cy="787.01" fill="#ADD1B2" rx="11" ry="11" style="stroke:#181818;stroke-width:1;"/><path d="M473.6368,792.6506 Q473.0587,792.9475 472.418,793.0881 Q471.7774,793.2444 471.0743,793.2444 Q468.5743,793.2444 467.2462,791.6038 Q465.9337,789.9475 465.9337,786.8225 Q465.9337,783.6975 467.2462,782.0413 Q468.5743,780.385 471.0743,780.385 Q471.7774,780.385 472.418,780.5413 Q473.0743,780.6975 473.6368,780.9944 L473.6368,783.7131 Q473.0118,783.135 472.418,782.8694 Q471.8243,782.5881 471.1993,782.5881 Q469.8555,782.5881 469.168,783.6663 Q468.4805,784.7288 468.4805,786.8225 Q468.4805,788.9163 469.168,789.9944 Q469.8555,791.0569 471.1993,791.0569 Q471.8243,791.0569 472.418,790.7913 Q473.0118,790.51 473.6368,789.9319 L473.6368,792.6506 Z " fill="#000000"/><text fill="#000000" font-family="sans-serif" font-size="14" lengthAdjust="spacing" textLength="81.6758" x="491.168" y="791.8567">Distribution</text><line style="stroke:#181818;stroke-width:0.5;" x1="344.94" x2="686.5718" y1="803.01" y2="803.01"/><ellipse cx="354.94" cy="816.6584" fill="#FFFFFF" fill-opacity="0.00000" rx="3" ry="3" style="stroke:#038048;stroke-width:1;"/><text fill="#000000" font-family="sans-serif" font-size="14" lengthAdjust="spacing" textLength="164.6299" x="363.94" y="820.0051">accessURL : Resource[]</text><ellipse cx="354.94" cy="832.9553" fill="#FFFFFF" fill-opacity="0.00000" rx="3" ry="3" style="stroke:#038048;stroke-width:1;"/><text fill="#000000" font-family="sans-serif" font-size="14" lengthAdjust="spacing" textLength="187.7969" x="363.94" y="836.302">license : LicenseDocument</text><ellipse cx="354.94" cy="849.2522" fill="#FFFFFF" fill-opacity="0.00000" rx="3" ry="3" style="stroke:#038048;stroke-width:1;"/><text fill="#000000" font-family="sans-serif" font-size="14" lengthAdjust="spacing" textLength="147.6494" x="363.94" y="852.5989">availability : Concept</text><ellipse cx="354.94" cy="865.5491" fill="#FFFFFF" fill-opacity="0.00000" rx="3" ry="3" style="stroke:#038048;stroke-width:1;"/><text fill="#000000" font-family="sans-serif" font-size="14" lengthAdjust="spacing" textLength="180.2227" x="363.94" y="868.8957">description : description[]</text><ellipse cx="354.94" cy="881.8459" fill="#FFFFFF" fill-opacity="0.00000" rx="3" ry="3" style="stroke:#038048;stroke-width:1;"/><text fill="#000000" font-family="sans-serif" font-size="14" lengthAdjust="spacing" textLength="100.7617" x="363.94" y="885.1926">format : string</text><ellipse cx="354.94" cy="898.1428" fill="#FFFFFF" fill-opacity="0.00000" rx="3" ry="3" style="stroke:#038048;stroke-width:1;"/><text fill="#000000" font-family="sans-serif" font-size="14" lengthAdjust="spacing" textLength="171.6367" x="363.94" y="901.4895">rights : RightsStatement</text><ellipse cx="354.94" cy="914.4397" fill="#FFFFFF" fill-opacity="0.00000" rx="3" ry="3" style="stroke:#038048;stroke-width:1;"/><text fill="#000000" font-family="sans-serif" font-size="14" lengthAdjust="spacing" textLength="79.2832" x="363.94" y="917.7864">title : title[]</text><ellipse cx="354.94" cy="930.7366" fill="#FFFFFF" fill-opacity="0.00000" rx="3" ry="3" style="stroke:#038048;stroke-width:1;"/><text fill="#000000" font-family="sans-serif" font-size="14" lengthAdjust="spacing" textLength="136.2129" x="363.94" y="934.0832">modified : modified</text><ellipse cx="354.94" cy="947.0334" fill="#FFFFFF" fill-opacity="0.00000" rx="3" ry="3" style="stroke:#038048;stroke-width:1;"/><text fill="#000000" font-family="sans-serif" font-size="14" lengthAdjust="spacing" textLength="208.626" x="363.94" y="950.3801">accessService : DataService[]</text><ellipse cx="354.94" cy="963.3303" fill="#FFFFFF" fill-opacity="0.00000" rx="3" ry="3" style="stroke:#038048;stroke-width:1;"/><text fill="#000000" font-family="sans-serif" font-size="14" lengthAdjust="spacing" textLength="113.8184" x="363.94" y="966.677">byteSize : string</text><ellipse cx="354.94" cy="979.6272" fill="#FFFFFF" fill-opacity="0.00000" rx="3" ry="3" style="stroke:#038048;stroke-width:1;"/><text fill="#000000" font-family="sans-serif" font-size="14" lengthAdjust="spacing" textLength="173.1885" x="363.94" y="982.9739">checksum : Checksum_1</text><ellipse cx="354.94" cy="995.9241" fill="#FFFFFF" fill-opacity="0.00000" rx="3" ry="3" style="stroke:#038048;stroke-width:1;"/><text fill="#000000" font-family="sans-serif" font-size="14" lengthAdjust="spacing" textLength="132.0361" x="363.94" y="999.2707">page : Document[]</text><ellipse cx="354.94" cy="1012.2209" fill="#FFFFFF" fill-opacity="0.00000" rx="3" ry="3" style="stroke:#038048;stroke-width:1;"/><text fill="#000000" font-family="sans-serif" font-size="14" lengthAdjust="spacing" textLength="185.1514" x="363.94" y="1015.5676">downloadURL : Resource[]</text><ellipse cx="354.94" cy="1028.5178" fill="#FFFFFF" fill-opacity="0.00000" rx="3" ry="3" style="stroke:#038048;stroke-width:1;"/><text fill="#000000" font-family="sans-serif" font-size="14" lengthAdjust="spacing" textLength="139.2754" x="363.94" y="1031.8645">identifier : identifier</text><ellipse cx="354.94" cy="1044.8147" fill="#FFFFFF" fill-opacity="0.00000" rx="3" ry="3" style="stroke:#038048;stroke-width:1;"/><text fill="#000000" font-family="sans-serif" font-size="14" lengthAdjust="spacing" textLength="108.3359" x="363.94" y="1048.1614">image : string[]</text><ellipse cx="354.94" cy="1061.1116" fill="#FFFFFF" fill-opacity="0.00000" rx="3" ry="3" style="stroke:#038048;stroke-width:1;"/><text fill="#000000" font-family="sans-serif" font-size="14" lengthAdjust="spacing" textLength="129.9102" x="363.94" y="1064.4582">language : string[]</text><ellipse cx="354.94" cy="1077.4084" fill="#FFFFFF" fill-opacity="0.00000" rx="3" ry="3" style="stroke:#038048;stroke-width:1;"/><text fill="#000000" font-family="sans-serif" font-size="14" lengthAdjust="spacing" textLength="170.9121" x="363.94" y="1080.7551">conformsTo : Standard[]</text><ellipse cx="354.94" cy="1093.7053" fill="#FFFFFF" fill-opacity="0.00000" rx="3" ry="3" style="stroke:#038048;stroke-width:1;"/><text fill="#000000" font-family="sans-serif" font-size="14" lengthAdjust="spacing" textLength="317.6318" x="363.94" y="1097.052">mediaType subproperty of dct:format : string</text><ellipse cx="354.94" cy="1110.0022" fill="#FFFFFF" fill-opacity="0.00000" rx="3" ry="3" style="stroke:#038048;stroke-width:1;"/><text fill="#000000" font-family="sans-serif" font-size="14" lengthAdjust="spacing" textLength="200.9902" x="363.94" y="1113.3489">packageFormat : mediaType</text><ellipse cx="354.94" cy="1126.2991" fill="#FFFFFF" fill-opacity="0.00000" rx="3" ry="3" style="stroke:#038048;stroke-width:1;"/><text fill="#000000" font-family="sans-serif" font-size="14" lengthAdjust="spacing" textLength="103.3184" x="363.94" y="1129.6457">issued : issued</text><ellipse cx="354.94" cy="1142.5959" fill="#FFFFFF" fill-opacity="0.00000" rx="3" ry="3" style="stroke:#038048;stroke-width:1;"/><text fill="#000000" font-family="sans-serif" font-size="14" lengthAdjust="spacing" textLength="209.7266" x="363.94" y="1145.9426">temporalResolution : duration</text><ellipse cx="354.94" cy="1158.8928" fill="#FFFFFF" fill-opacity="0.00000" rx="3" ry="3" style="stroke:#038048;stroke-width:1;"/><text fill="#000000" font-family="sans-serif" font-size="14" lengthAdjust="spacing" textLength="212.2969" x="363.94" y="1162.2395">applicableLegislation : string[]</text><ellipse cx="354.94" cy="1175.1897" fill="#FFFFFF" fill-opacity="0.00000" rx="3" ry="3" style="stroke:#038048;stroke-width:1;"/><text fill="#000000" font-family="sans-serif" font-size="14" lengthAdjust="spacing" textLength="119.3213" x="363.94" y="1178.5364">hasPolicy : string</text><ellipse cx="354.94" cy="1191.4866" fill="#FFFFFF" fill-opacity="0.00000" rx="3" ry="3" style="stroke:#038048;stroke-width:1;"/><text fill="#000000" font-family="sans-serif" font-size="14" lengthAdjust="spacing" textLength="114.5361" x="363.94" y="1194.8332">status : Concept</text><line style="stroke:#181818;stroke-width:0.5;" x1="344.94" x2="686.5718" y1="1202.135" y2="1202.135"/></g><!--link CatalogRecord to Resource--><g id="link_CatalogRecord_Resource"><path codeLine="109" d="M192.14,654.3 C192.14,679.55 192.14,702.33 192.14,732.18 " fill="#FFFFFF" fill-opacity="0.00000" id="CatalogRecord-to-Resource" style="stroke:#181818;stroke-width:1;"/><polygon fill="#181818" points="192.14,738.18,196.14,729.18,192.14,733.18,188.14,729.18,192.14,738.18" style="stroke:#181818;stroke-width:1;"/><text fill="#000000" font-family="sans-serif" font-size="13" lengthAdjust="spacing" textLength="115.2354" x="76.14" y="692.3069">foaf:primaryTopic</text></g><!--link Catalog to Resource--><g id="link_Catalog_Resource"><path codeLine="110" d="M189.78,104.73 C140.34,104.73 97,104.73 97,104.73 C97,104.73 97,470.36 97,732.21 " fill="#FFFFFF" fill-opacity="0.00000" id="Catalog-to-Resource" style="stroke:#181818;stroke-width:1;"/><polygon fill="#181818" points="97,738.21,101,729.21,97,733.21,93,729.21,97,738.21" style="stroke:#181818;stroke-width:1;"/><text fill="#000000" font-family="sans-serif" font-size="13" lengthAdjust="spacing" textLength="89.6416" x="7" y="371.1469">dcat:resource</text></g><!--link Dataset to DatasetSeries--><g id="link_Dataset_DatasetSeries"><path codeLine="111" d="M733.28,678.89 C733.28,764.74 733.28,872.12 733.28,935.78 " fill="#FFFFFF" fill-opacity="0.00000" id="Dataset-to-DatasetSeries" style="stroke:#181818;stroke-width:1;"/><polygon fill="#181818" points="733.28,941.78,737.28,932.78,733.28,936.78,729.28,932.78,733.28,941.78" style="stroke:#181818;stroke-width:1;"/><text fill="#000000" font-family="sans-serif" font-size="13" lengthAdjust="spacing" textLength="84.6714" x="734.28" y="806.4069">dcat:inSeries</text></g><!--link DatasetSeries to Dataset--><g id="link_DatasetSeries_Dataset"><path codeLine="118" d="M744.09,941.73 C744.09,878.06 744.09,782.7 744.09,696.88 " fill="#FFFFFF" fill-opacity="0.00000" id="DatasetSeries-to-Dataset" style="stroke:#181818;stroke-width:1;"/><polygon fill="#FFFFFF" fill-opacity="0.00000" points="744.09,678.88,738.09,696.88,750.09,696.88,744.09,678.88" style="stroke:#181818;stroke-width:1;"/></g><!--link Catalog to Dataset--><g id="link_Catalog_Dataset"><path codeLine="112" d="M270.7,202.06 C270.7,308.49 270.7,463.73 270.7,463.73 C270.7,463.73 391.75,463.73 498.22,463.73 " fill="#FFFFFF" fill-opacity="0.00000" id="Catalog-to-Dataset" style="stroke:#181818;stroke-width:1;"/><polygon fill="#FFFFFF" fill-opacity="0.00000" points="516.22,463.73,498.22,457.73,498.22,469.73,516.22,463.73" style="stroke:#181818;stroke-width:1;"/></g><!--link Dataset to Distribution--><g id="link_Dataset_Distribution"><path codeLine="113" d="M602.09,678.89 C602.09,707.46 602.09,733.09 602.09,764.92 " fill="#FFFFFF" fill-opacity="0.00000" id="Dataset-to-Distribution" style="stroke:#181818;stroke-width:1;"/><polygon fill="#181818" points="602.09,770.92,606.09,761.92,602.09,765.92,598.09,761.92,602.09,770.92" style="stroke:#181818;stroke-width:1;"/></g><!--link Distribution to DataService--><g id="link_Distribution_DataService"><path codeLine="114" d="M459.05,770.8 C459.05,638.41 459.05,485.02 459.05,397.64 " fill="#FFFFFF" fill-opacity="0.00000" id="Distribution-to-DataService" style="stroke:#181818;stroke-width:1;"/><polygon fill="#181818" points="459.05,391.64,455.05,400.64,459.05,396.64,463.05,400.64,459.05,391.64" style="stroke:#181818;stroke-width:1;"/></g><!--link DataService to Dataset--><g id="link_DataService_Dataset"><path codeLine="115" d="M542.55,391.55 C542.55,409.88 542.55,424.38 542.55,444.68 " fill="#FFFFFF" fill-opacity="0.00000" id="DataService-to-Dataset" style="stroke:#181818;stroke-width:1;"/><polygon fill="#181818" points="542.55,450.68,546.55,441.68,542.55,445.68,538.55,441.68,542.55,450.68" style="stroke:#181818;stroke-width:1;"/></g><!--link Catalog to DataService--><g id="link_Catalog_DataService"><path codeLine="116" d="M392.21,202.06 C392.21,222.08 392.21,236.68 392.21,255.21 " fill="#FFFFFF" fill-opacity="0.00000" id="Catalog-to-DataService" style="stroke:#181818;stroke-width:1;"/><polygon fill="#181818" points="392.21,261.21,396.21,252.21,392.21,256.21,388.21,252.21,392.21,261.21" style="stroke:#181818;stroke-width:1;"/><text fill="#000000" font-family="sans-serif" font-size="13" lengthAdjust="spacing" textLength="79.4092" x="312.21" y="227.7069">dcat:service</text></g><!--link Catalog to CatalogRecord--><g id="link_Catalog_CatalogRecord"><path codeLine="117" d="M230.39,201.98 C230.39,282.89 230.39,390.95 230.39,469.47 " fill="#FFFFFF" fill-opacity="0.00000" id="Catalog-to-CatalogRecord" style="stroke:#181818;stroke-width:1;"/><polygon fill="#181818" points="230.39,475.47,234.39,466.47,230.39,470.47,226.39,466.47,230.39,475.47" style="stroke:#181818;stroke-width:1;"/><text fill="#000000" font-family="sans-serif" font-size="13" lengthAdjust="spacing" textLength="74.8833" x="155.39" y="334.7869">dcat:record</text></g><!--link DataService to Resource--><g id="link_DataService_Resource"><path codeLine="119" d="M401.49,391.46 C401.49,511.28 401.49,754.73 401.49,754.73 C401.49,754.73 375.75,754.73 327.57,754.73 " fill="#FFFFFF" fill-opacity="0.00000" id="DataService-to-Resource" style="stroke:#181818;stroke-width:1;"/><polygon fill="#FFFFFF" fill-opacity="0.00000" points="309.57,754.73,327.57,760.73,327.57,748.73,309.57,754.73" style="stroke:#181818;stroke-width:1;"/></g><!--link Dataset to Resource--><g id="link_Dataset_Resource"><path codeLine="120" d="M516.27,666.73 C403.2,666.73 250.64,666.73 250.64,666.73 C250.64,666.73 250.64,678.6 250.64,720.2 " fill="#FFFFFF" fill-opacity="0.00000" id="Dataset-to-Resource" style="stroke:#181818;stroke-width:1;"/><polygon fill="#FFFFFF" fill-opacity="0.00000" points="250.64,738.2,256.64,720.2,244.64,720.2,250.64,738.2" style="stroke:#181818;stroke-width:1;"/></g><!--SRC=[bLRDZjiW4BxxANolzh3N72fjDsfLAMgZ93rLrOh09471G05dw-xstJiOO-E4EBk-c9bl6EOVx95BJGofIi4bk4P3gOmxgA8eg23Mbe_44Q7svKjHulU18Md1bRDo7bO_VmNWe2hGP0yUKRIkGBe0M30dJg7RiGvKt6KrSPm811UAubB9YBW3LB0XVvHKLOFuev8Kj5jJpuz2H6l1ATaAMC2UMz5gG67h39VxA6N0gjgq9gowPOIYTxFevx27AiC6_ggb4VrN56IB-WbrPOXGr1b3H9LqY2uLb-x25WQM6guxEnCg2d26aUCx3WRnWOYmhhU2sqEBFkpx83lkXFUl_KVP8pJFdHCXU14GH3AqQJbELs-1jJNuNM6HfEDIKwMODyzBnsLt12PPMhzZ4LRZeZ1yVt3M9wHTh1rnCA24Kh1sDIc3KTufKzcDGWd492DjVZeNLh030sWh-zHayeuHsDV1_N5-VjT4j6uyEEHlwsn1zK8hk5foFN1-D3L0dEhpr_SFiKk5KMjwNLs7eDkr7I8Vk2SmDZrtnFsc7FWTAPaUGupBsBNZngRy6AWCKniufSn_uraHUYMsWpQy8gRPACtfcRrNgoTRWlb8JDR1pMxBzaskEAABoGoB3e9aslVwZzKY4zQ8paUcd4lv8GbsVcsuwdodtXn_gTLUSHpYtAR5FK_8DmncgBGoBRG4mnNxljlmP2IV21TaomLtpNckHhFjQqyytT_oarA3BHUEupHeJWi9AopJos-x7RZ4VFAsORem1JhYpyH-0Ga6fq-O9TUYswbvUS_XMSykcUSvkJGXpUXBEaNpLNbZF4ybyMPF-NOaxYn3qmC_suPNfqDmR3trhjWs3jRyBvnPWOy7UhHrvNtgba_tawN7rBCKYh1y6AzSrbD5UVNccHna5J1EDlvrPkkjDag3mSoeNScecsK3hWazuZ6V8zPhcBhakzRsReeu7LXjsjfzJrc_-JB3rrGnkZNkxZxsxobqZEncwVqHPKTI3EVJBBxnYguPKMBSba4iDlkWw3NAbUdMf9sAbEZKTjLM9ElXmCJ8zBO81dIluKHcV6b6RpnHZ3n8J1sV-zh7Ol1WuFq7]--></g></svg>