<svg xmlns="http://www.w3.org/2000/svg" xmlns:xlink="http://www.w3.org/1999/xlink" contentStyleType="text/css" data-diagram-type="CLASS" height="2148px" preserveAspectRatio="none" style="width:1192px;height:2148px;background:#FFFFFF;" version="1.1" viewBox="0 0 1192 2148" width="1192px" zoomAndPan="magnify"><defs/><g><!--class Catalog--><g class="entity" data-entity="Catalog" data-source-line="4" data-uid="ent0002" id="entity_Catalog"><rect fill="#F1F1F1" height="373.9375" rx="2.5" ry="2.5" style="stroke:#181818;stroke-width:0.5;" width="406.0918" x="129.41" y="23.61"/><ellipse cx="301.3236" cy="39.61" fill="#ADD1B2" rx="11" ry="11" style="stroke:#181818;stroke-width:1;"/><path d="M304.2923,45.2506 Q303.7142,45.5475 303.0736,45.6881 Q302.4329,45.8444 301.7298,45.8444 Q299.2298,45.8444 297.9017,44.2038 Q296.5892,42.5475 296.5892,39.4225 Q296.5892,36.2975 297.9017,34.6413 Q299.2298,32.985 301.7298,32.985 Q302.4329,32.985 303.0736,33.1413 Q303.7298,33.2975 304.2923,33.5944 L304.2923,36.3131 Q303.6673,35.735 303.0736,35.4694 Q302.4798,35.1881 301.8548,35.1881 Q300.5111,35.1881 299.8236,36.2663 Q299.1361,37.3288 299.1361,39.4225 Q299.1361,41.5163 299.8236,42.5944 Q300.5111,43.6569 301.8548,43.6569 Q302.4798,43.6569 303.0736,43.3913 Q303.6673,43.11 304.2923,42.5319 L304.2923,45.2506 Z " fill="#000000"/><text fill="#000000" font-family="sans-serif" font-size="14" lengthAdjust="spacing" textLength="53.7646" x="321.8236" y="44.4567">Catalog</text><line style="stroke:#181818;stroke-width:0.5;" x1="130.41" x2="534.5018" y1="55.61" y2="55.61"/><text fill="#000000" font-family="sans-serif" font-size="14" font-weight="bold" lengthAdjust="spacing" textLength="85.1553" x="149.41" y="72.6051">Mandatory</text><ellipse cx="140.41" cy="85.5553" fill="none" rx="3" ry="3" style="stroke:#038048;stroke-width:1;"/><text fill="#000000" font-family="sans-serif" font-size="14" lengthAdjust="spacing" textLength="235.9014" x="149.41" y="88.902">dct:description : rdfs:Literal [1..n]</text><ellipse cx="140.41" cy="101.8522" fill="none" rx="3" ry="3" style="stroke:#038048;stroke-width:1;"/><text fill="#000000" font-family="sans-serif" font-size="14" lengthAdjust="spacing" textLength="220.6162" x="149.41" y="105.1989">dct:publisher : foaf:Agent [1..1]</text><ellipse cx="140.41" cy="118.1491" fill="none" rx="3" ry="3" style="stroke:#038048;stroke-width:1;"/><text fill="#000000" font-family="sans-serif" font-size="14" lengthAdjust="spacing" textLength="185.4316" x="149.41" y="121.4957">dct:title : rdfs:Literal [1..n]</text><text fill="#000000" font-family="sans-serif" font-size="14" font-weight="bold" lengthAdjust="spacing" textLength="116.3682" x="149.41" y="137.7926">Recommended</text><ellipse cx="140.41" cy="150.7428" fill="none" rx="3" ry="3" style="stroke:#038048;stroke-width:1;"/><text fill="#000000" font-family="sans-serif" font-size="14" lengthAdjust="spacing" textLength="234.165" x="149.41" y="154.0895">dcat:dataset : dcat:Dataset [0..n]</text><ellipse cx="140.41" cy="167.0397" fill="none" rx="3" ry="3" style="stroke:#038048;stroke-width:1;"/><text fill="#000000" font-family="sans-serif" font-size="14" lengthAdjust="spacing" textLength="266.3281" x="149.41" y="170.3864">foaf:homepage : foaf:Document [0..1]</text><ellipse cx="140.41" cy="183.3366" fill="none" rx="3" ry="3" style="stroke:#038048;stroke-width:1;"/><text fill="#000000" font-family="sans-serif" font-size="14" lengthAdjust="spacing" textLength="300.5146" x="149.41" y="186.6832">dct:language : dct:LinguisticsSystem [0..n]</text><ellipse cx="140.41" cy="199.6334" fill="none" rx="3" ry="3" style="stroke:#038048;stroke-width:1;"/><text fill="#000000" font-family="sans-serif" font-size="14" lengthAdjust="spacing" textLength="283.4658" x="149.41" y="202.9801">dct:license : dct:LicenseDocument [0..1]</text><ellipse cx="140.41" cy="215.9303" fill="none" rx="3" ry="3" style="stroke:#038048;stroke-width:1;"/><text fill="#000000" font-family="sans-serif" font-size="14" lengthAdjust="spacing" textLength="202.9453" x="149.41" y="219.277">dct:issued : rdfs:Literal [0..1]</text><ellipse cx="140.41" cy="232.2272" fill="none" rx="3" ry="3" style="stroke:#038048;stroke-width:1;"/><text fill="#000000" font-family="sans-serif" font-size="14" lengthAdjust="spacing" textLength="267.3057" x="149.41" y="235.5739">dct:rights : dct:RightsStatement [0..1]</text><ellipse cx="140.41" cy="248.5241" fill="none" rx="3" ry="3" style="stroke:#038048;stroke-width:1;"/><text fill="#000000" font-family="sans-serif" font-size="14" lengthAdjust="spacing" textLength="261.7275" x="149.41" y="251.8707">dcat:service : dcat:DataService [0..n]</text><ellipse cx="140.41" cy="264.8209" fill="none" rx="3" ry="3" style="stroke:#038048;stroke-width:1;"/><text fill="#000000" font-family="sans-serif" font-size="14" lengthAdjust="spacing" textLength="215.3184" x="149.41" y="268.1676">dct:spatial : dct:Location [0..n]</text><ellipse cx="140.41" cy="281.1178" fill="none" rx="3" ry="3" style="stroke:#038048;stroke-width:1;"/><text fill="#000000" font-family="sans-serif" font-size="14" lengthAdjust="spacing" textLength="359.8096" x="149.41" y="284.4645">dcat:themeTaxonomy : skos:ConceptScheme [0..n]</text><ellipse cx="140.41" cy="297.4147" fill="none" rx="3" ry="3" style="stroke:#038048;stroke-width:1;"/><text fill="#000000" font-family="sans-serif" font-size="14" lengthAdjust="spacing" textLength="219.3926" x="149.41" y="300.7614">dct:modified : rdfs:Literal [0..1]</text><text fill="#000000" font-family="sans-serif" font-size="14" font-weight="bold" lengthAdjust="spacing" textLength="67.2451" x="149.41" y="317.0582">Optional</text><ellipse cx="140.41" cy="330.0084" fill="none" rx="3" ry="3" style="stroke:#038048;stroke-width:1;"/><text fill="#000000" font-family="sans-serif" font-size="14" lengthAdjust="spacing" textLength="380.0918" x="149.41" y="333.3551">dcatap:applicableLegislation : eli:LegalResource [0..n]</text><ellipse cx="140.41" cy="346.3053" fill="none" rx="3" ry="3" style="stroke:#038048;stroke-width:1;"/><text fill="#000000" font-family="sans-serif" font-size="14" lengthAdjust="spacing" textLength="252.7178" x="149.41" y="349.652">dcat:resource : dcat:Resource [0..n]</text><ellipse cx="140.41" cy="362.6022" fill="none" rx="3" ry="3" style="stroke:#038048;stroke-width:1;"/><text fill="#000000" font-family="sans-serif" font-size="14" lengthAdjust="spacing" textLength="231.8613" x="149.41" y="365.9489">dcat:catalog : dcat:Catalog [0..n]</text><ellipse cx="140.41" cy="378.8991" fill="none" rx="3" ry="3" style="stroke:#038048;stroke-width:1;"/><text fill="#000000" font-family="sans-serif" font-size="14" lengthAdjust="spacing" textLength="274.6953" x="149.41" y="382.2457">dcat:record : dcat:CatalogRecord [0..n]</text><line style="stroke:#181818;stroke-width:0.5;" x1="130.41" x2="534.5018" y1="389.5475" y2="389.5475"/></g><!--class CatalogedResource--><g class="entity" data-entity="CatalogedResource" data-source-line="26" data-uid="ent0003" id="entity_CatalogedResource"><rect fill="#F1F1F1" height="504.3125" rx="2.5" ry="2.5" style="stroke:#181818;stroke-width:0.5;" width="615.7432" x="109.58" y="1612.69"/><ellipse cx="344.9994" cy="1628.69" fill="#A9DCDF" rx="11" ry="11" style="stroke:#181818;stroke-width:1;"/><path d="M345.1088,1624.0338 L343.9526,1629.1119 L346.2807,1629.1119 L345.1088,1624.0338 Z M343.6244,1621.7994 L346.6088,1621.7994 L349.9682,1634.19 L347.5151,1634.19 L346.7494,1631.1275 L343.4682,1631.1275 L342.7182,1634.19 L340.2807,1634.19 L343.6244,1621.7994 Z " fill="#000000"/><text fill="#000000" font-family="sans-serif" font-size="14" font-style="italic" lengthAdjust="spacing" textLength="136.4043" x="365.4994" y="1633.5367">CatalogedResource</text><line style="stroke:#181818;stroke-width:0.5;" x1="110.58" x2="724.3232" y1="1644.69" y2="1644.69"/><text fill="#000000" font-family="sans-serif" font-size="14" font-weight="bold" lengthAdjust="spacing" textLength="85.1553" x="129.58" y="1661.6851">Mandatory</text><ellipse cx="120.58" cy="1674.6353" fill="none" rx="3" ry="3" style="stroke:#038048;stroke-width:1;"/><text fill="#000000" font-family="sans-serif" font-size="14" lengthAdjust="spacing" textLength="253.4424" x="129.58" y="1677.982">dcat:contactPoint : vcard:Kind [1..n]</text><ellipse cx="120.58" cy="1690.9322" fill="none" rx="3" ry="3" style="stroke:#038048;stroke-width:1;"/><text fill="#000000" font-family="sans-serif" font-size="14" lengthAdjust="spacing" textLength="235.9014" x="129.58" y="1694.2789">dct:description : rdfs:Literal [1..n]</text><ellipse cx="120.58" cy="1707.2291" fill="none" rx="3" ry="3" style="stroke:#038048;stroke-width:1;"/><text fill="#000000" font-family="sans-serif" font-size="14" lengthAdjust="spacing" textLength="220.8896" x="129.58" y="1710.5757">dct:identifier : rdfs:Literal [1..n]</text><ellipse cx="120.58" cy="1723.5259" fill="none" rx="3" ry="3" style="stroke:#038048;stroke-width:1;"/><text fill="#000000" font-family="sans-serif" font-size="14" lengthAdjust="spacing" textLength="220.6162" x="129.58" y="1726.8726">dct:publisher : foaf:Agent [1..1]</text><ellipse cx="120.58" cy="1739.8228" fill="none" rx="3" ry="3" style="stroke:#038048;stroke-width:1;"/><text fill="#000000" font-family="sans-serif" font-size="14" lengthAdjust="spacing" textLength="185.4316" x="129.58" y="1743.1695">dct:title : rdfs:Literal [1..n]</text><text fill="#000000" font-family="sans-serif" font-size="14" font-weight="bold" lengthAdjust="spacing" textLength="116.3682" x="129.58" y="1759.4664">Recommended</text><ellipse cx="120.58" cy="1772.4166" fill="none" rx="3" ry="3" style="stroke:#038048;stroke-width:1;"/><text fill="#000000" font-family="sans-serif" font-size="14" lengthAdjust="spacing" textLength="589.7432" x="129.58" y="1775.7632">dcat:keyword : skosConcept, schema:DefinedTerm, wikibase:item, rdfs:Litaral [0..n]</text><ellipse cx="120.58" cy="1788.7134" fill="none" rx="3" ry="3" style="stroke:#038048;stroke-width:1;"/><text fill="#000000" font-family="sans-serif" font-size="14" lengthAdjust="spacing" textLength="281.6885" x="129.58" y="1792.0601">dcat:landingPage : foaf:Document [0..n]</text><ellipse cx="120.58" cy="1805.0103" fill="none" rx="3" ry="3" style="stroke:#038048;stroke-width:1;"/><text fill="#000000" font-family="sans-serif" font-size="14" lengthAdjust="spacing" textLength="202.9453" x="129.58" y="1808.357">dct:issued : rdfs:Literal [0..1]</text><ellipse cx="120.58" cy="1821.3072" fill="none" rx="3" ry="3" style="stroke:#038048;stroke-width:1;"/><text fill="#000000" font-family="sans-serif" font-size="14" lengthAdjust="spacing" textLength="230.1455" x="129.58" y="1824.6539">dcat:theme : skos:Concept [0..n]</text><ellipse cx="120.58" cy="1837.6041" fill="none" rx="3" ry="3" style="stroke:#038048;stroke-width:1;"/><text fill="#000000" font-family="sans-serif" font-size="14" lengthAdjust="spacing" textLength="219.3926" x="129.58" y="1840.9507">dct:modified : rdfs:Literal [0..1]</text><ellipse cx="120.58" cy="1853.9009" fill="none" rx="3" ry="3" style="stroke:#038048;stroke-width:1;"/><text fill="#000000" font-family="sans-serif" font-size="14" lengthAdjust="spacing" textLength="283.4658" x="129.58" y="1857.2476">dct:license : dct:LicenseDocument [0..1]</text><ellipse cx="120.58" cy="1870.1978" fill="none" rx="3" ry="3" style="stroke:#038048;stroke-width:1;"/><text fill="#000000" font-family="sans-serif" font-size="14" lengthAdjust="spacing" textLength="267.3057" x="129.58" y="1873.5445">dct:rights : dct:RightsStatement [0..1]</text><text fill="#000000" font-family="sans-serif" font-size="14" font-weight="bold" lengthAdjust="spacing" textLength="67.2451" x="129.58" y="1889.8414">Optional</text><ellipse cx="120.58" cy="1902.7916" fill="none" rx="3" ry="3" style="stroke:#038048;stroke-width:1;"/><text fill="#000000" font-family="sans-serif" font-size="14" lengthAdjust="spacing" textLength="318.4521" x="129.58" y="1906.1382">dct:accessRights : dct:RightsStatement [0..1]</text><ellipse cx="120.58" cy="1919.0884" fill="none" rx="3" ry="3" style="stroke:#038048;stroke-width:1;"/><text fill="#000000" font-family="sans-serif" font-size="14" lengthAdjust="spacing" textLength="255.623" x="129.58" y="1922.4351">dct:conformsTo : dct:Standard [0..n]</text><ellipse cx="120.58" cy="1935.3853" fill="none" rx="3" ry="3" style="stroke:#038048;stroke-width:1;"/><text fill="#000000" font-family="sans-serif" font-size="14" lengthAdjust="spacing" textLength="288.5791" x="129.58" y="1938.732">dct:isReferencedBy : rdfs:Resource [0..n]</text><ellipse cx="120.58" cy="1951.6822" fill="none" rx="3" ry="3" style="stroke:#038048;stroke-width:1;"/><text fill="#000000" font-family="sans-serif" font-size="14" lengthAdjust="spacing" textLength="293.2207" x="129.58" y="1955.0289">dct:language : dct:LinguisticSystem [0..n]</text><ellipse cx="120.58" cy="1967.9791" fill="none" rx="3" ry="3" style="stroke:#038048;stroke-width:1;"/><text fill="#000000" font-family="sans-serif" font-size="14" lengthAdjust="spacing" textLength="338.085" x="129.58" y="1971.3257">prov:qualifiedAttribution : prov:Attribution [0..n]</text><ellipse cx="120.58" cy="1984.2759" fill="none" rx="3" ry="3" style="stroke:#038048;stroke-width:1;"/><text fill="#000000" font-family="sans-serif" font-size="14" lengthAdjust="spacing" textLength="331.0439" x="129.58" y="1987.6226">dcat:qualifiedRelation : dcat:Relationship [0..n]</text><ellipse cx="120.58" cy="2000.5728" fill="none" rx="3" ry="3" style="stroke:#038048;stroke-width:1;"/><text fill="#000000" font-family="sans-serif" font-size="14" lengthAdjust="spacing" textLength="232.8389" x="129.58" y="2003.9195">dct:relation : rdfs:Resource [0..n]</text><ellipse cx="120.58" cy="2016.8697" fill="none" rx="3" ry="3" style="stroke:#038048;stroke-width:1;"/><text fill="#000000" font-family="sans-serif" font-size="14" lengthAdjust="spacing" textLength="206.0762" x="129.58" y="2020.2164">dct:creator : foaf:Agent [0..n]</text><ellipse cx="120.58" cy="2033.1666" fill="none" rx="3" ry="3" style="stroke:#038048;stroke-width:1;"/><text fill="#000000" font-family="sans-serif" font-size="14" lengthAdjust="spacing" textLength="225.6201" x="129.58" y="2036.5132">odrl:hasPolicy : odrl:Policy [0..1]</text><ellipse cx="120.58" cy="2049.4634" fill="none" rx="3" ry="3" style="stroke:#038048;stroke-width:1;"/><text fill="#000000" font-family="sans-serif" font-size="14" lengthAdjust="spacing" textLength="235.7168" x="129.58" y="2052.8101">adms:status : skos:Concept [0..1]</text><ellipse cx="120.58" cy="2065.7603" fill="none" rx="3" ry="3" style="stroke:#038048;stroke-width:1;"/><text fill="#000000" font-family="sans-serif" font-size="14" lengthAdjust="spacing" textLength="217.9502" x="129.58" y="2069.107">dcat:version : rdfs:Literal [0..1]</text><ellipse cx="120.58" cy="2082.0572" fill="none" rx="3" ry="3" style="stroke:#038048;stroke-width:1;"/><text fill="#000000" font-family="sans-serif" font-size="14" lengthAdjust="spacing" textLength="266.0957" x="129.58" y="2085.4039">adms:versionNotes : rdfs:Literal [0..n]</text><ellipse cx="120.58" cy="2098.3541" fill="none" rx="3" ry="3" style="stroke:#038048;stroke-width:1;"/><text fill="#000000" font-family="sans-serif" font-size="14" lengthAdjust="spacing" textLength="235.9834" x="129.58" y="2101.7007">dct:hasPart : dcat:Resource [0..n]</text><line style="stroke:#181818;stroke-width:0.5;" x1="110.58" x2="724.3232" y1="2109.0025" y2="2109.0025"/></g><!--class CatalogRecord--><g class="entity" data-entity="CatalogRecord" data-source-line="56" data-uid="ent0004" id="entity_CatalogRecord"><rect fill="#F1F1F1" height="227.2656" rx="2.5" ry="2.5" style="stroke:#181818;stroke-width:0.5;" width="306.3145" x="58.3" y="1325.42"/><ellipse cx="155.7019" cy="1341.42" fill="#ADD1B2" rx="11" ry="11" style="stroke:#181818;stroke-width:1;"/><path d="M158.6706,1347.0606 Q158.0925,1347.3575 157.4519,1347.4981 Q156.8112,1347.6544 156.1081,1347.6544 Q153.6081,1347.6544 152.28,1346.0138 Q150.9675,1344.3575 150.9675,1341.2325 Q150.9675,1338.1075 152.28,1336.4513 Q153.6081,1334.795 156.1081,1334.795 Q156.8112,1334.795 157.4519,1334.9513 Q158.1081,1335.1075 158.6706,1335.4044 L158.6706,1338.1231 Q158.0456,1337.545 157.4519,1337.2794 Q156.8581,1336.9981 156.2331,1336.9981 Q154.8894,1336.9981 154.2019,1338.0763 Q153.5144,1339.1388 153.5144,1341.2325 Q153.5144,1343.3263 154.2019,1344.4044 Q154.8894,1345.4669 156.2331,1345.4669 Q156.8581,1345.4669 157.4519,1345.2013 Q158.0456,1344.92 158.6706,1344.3419 L158.6706,1347.0606 Z " fill="#000000"/><text fill="#000000" font-family="sans-serif" font-size="14" lengthAdjust="spacing" textLength="103.0107" x="176.2019" y="1346.2667">CatalogRecord</text><line style="stroke:#181818;stroke-width:0.5;" x1="59.3" x2="363.6145" y1="1357.42" y2="1357.42"/><text fill="#000000" font-family="sans-serif" font-size="14" font-weight="bold" lengthAdjust="spacing" textLength="85.1553" x="78.3" y="1374.4151">Mandatory</text><ellipse cx="69.3" cy="1387.3653" fill="none" rx="3" ry="3" style="stroke:#038048;stroke-width:1;"/><text fill="#000000" font-family="sans-serif" font-size="14" lengthAdjust="spacing" textLength="280.3145" x="78.3" y="1390.712">foaf:primaryTopic : dcat:Resource [1..1]</text><ellipse cx="69.3" cy="1403.6622" fill="none" rx="3" ry="3" style="stroke:#038048;stroke-width:1;"/><text fill="#000000" font-family="sans-serif" font-size="14" lengthAdjust="spacing" textLength="219.3926" x="78.3" y="1407.0089">dct:modified : rdfs:Literal [1..1]</text><text fill="#000000" font-family="sans-serif" font-size="14" font-weight="bold" lengthAdjust="spacing" textLength="116.3682" x="78.3" y="1423.3057">Recommended</text><ellipse cx="69.3" cy="1436.2559" fill="none" rx="3" ry="3" style="stroke:#038048;stroke-width:1;"/><text fill="#000000" font-family="sans-serif" font-size="14" lengthAdjust="spacing" textLength="202.9453" x="78.3" y="1439.6026">dct:issued : rdfs:Literal [0..1]</text><ellipse cx="69.3" cy="1452.5528" fill="none" rx="3" ry="3" style="stroke:#038048;stroke-width:1;"/><text fill="#000000" font-family="sans-serif" font-size="14" lengthAdjust="spacing" textLength="235.7168" x="78.3" y="1455.8995">adms:status : skos:Concept [0..1]</text><ellipse cx="69.3" cy="1468.8497" fill="none" rx="3" ry="3" style="stroke:#038048;stroke-width:1;"/><text fill="#000000" font-family="sans-serif" font-size="14" lengthAdjust="spacing" textLength="255.623" x="78.3" y="1472.1964">dct:conformsTo : dct:Standard [0..n]</text><text fill="#000000" font-family="sans-serif" font-size="14" font-weight="bold" lengthAdjust="spacing" textLength="67.2451" x="78.3" y="1488.4932">Optional</text><ellipse cx="69.3" cy="1501.4434" fill="none" rx="3" ry="3" style="stroke:#038048;stroke-width:1;"/><text fill="#000000" font-family="sans-serif" font-size="14" lengthAdjust="spacing" textLength="235.9014" x="78.3" y="1504.7901">dct:description : rdfs:Literal [0..n]</text><ellipse cx="69.3" cy="1517.7403" fill="none" rx="3" ry="3" style="stroke:#038048;stroke-width:1;"/><text fill="#000000" font-family="sans-serif" font-size="14" lengthAdjust="spacing" textLength="185.4316" x="78.3" y="1521.087">dct:title : rdfs:Literal [0..n]</text><ellipse cx="69.3" cy="1534.0372" fill="none" rx="3" ry="3" style="stroke:#038048;stroke-width:1;"/><text fill="#000000" font-family="sans-serif" font-size="14" lengthAdjust="spacing" textLength="223.2412" x="78.3" y="1537.3839">dct:language : rdfs:Literal [0..n]</text><line style="stroke:#181818;stroke-width:0.5;" x1="59.3" x2="363.6145" y1="1544.6856" y2="1544.6856"/></g><!--class Dataset--><g class="entity" data-entity="Dataset" data-source-line="69" data-uid="ent0005" id="entity_Dataset"><rect fill="#F1F1F1" height="259.8594" rx="2.5" ry="2.5" style="stroke:#181818;stroke-width:0.5;" width="420.4063" x="378.25" y="457.55"/><ellipse cx="556.791" cy="473.55" fill="#ADD1B2" rx="11" ry="11" style="stroke:#181818;stroke-width:1;"/><path d="M559.7598,479.1906 Q559.1816,479.4875 558.541,479.6281 Q557.9004,479.7844 557.1973,479.7844 Q554.6973,479.7844 553.3691,478.1437 Q552.0566,476.4875 552.0566,473.3625 Q552.0566,470.2375 553.3691,468.5812 Q554.6973,466.925 557.1973,466.925 Q557.9004,466.925 558.541,467.0812 Q559.1973,467.2375 559.7598,467.5344 L559.7598,470.2531 Q559.1348,469.675 558.541,469.4094 Q557.9473,469.1281 557.3223,469.1281 Q555.9785,469.1281 555.291,470.2062 Q554.6035,471.2687 554.6035,473.3625 Q554.6035,475.4562 555.291,476.5344 Q555.9785,477.5969 557.3223,477.5969 Q557.9473,477.5969 558.541,477.3312 Q559.1348,477.05 559.7598,476.4719 L559.7598,479.1906 Z " fill="#000000"/><text fill="#000000" font-family="sans-serif" font-size="14" lengthAdjust="spacing" textLength="54.8242" x="577.291" y="478.3967">Dataset</text><line style="stroke:#181818;stroke-width:0.5;" x1="379.25" x2="797.6563" y1="489.55" y2="489.55"/><text fill="#000000" font-family="sans-serif" font-size="14" font-weight="bold" lengthAdjust="spacing" textLength="116.3682" x="398.25" y="506.5451">Recommended</text><ellipse cx="389.25" cy="519.4953" fill="none" rx="3" ry="3" style="stroke:#038048;stroke-width:1;"/><text fill="#000000" font-family="sans-serif" font-size="14" lengthAdjust="spacing" textLength="287.8682" x="398.25" y="522.842">dcat:distribution : dcat:Distribution [0..n]</text><ellipse cx="389.25" cy="535.7922" fill="none" rx="3" ry="3" style="stroke:#038048;stroke-width:1;"/><text fill="#000000" font-family="sans-serif" font-size="14" lengthAdjust="spacing" textLength="215.3184" x="398.25" y="539.1389">dct:spatial : dct:Location [0..n]</text><ellipse cx="389.25" cy="552.0891" fill="none" rx="3" ry="3" style="stroke:#038048;stroke-width:1;"/><text fill="#000000" font-family="sans-serif" font-size="14" lengthAdjust="spacing" textLength="267.4629" x="398.25" y="555.4357">dct:temporal : dct:PeriodOfTime [0..n]</text><ellipse cx="389.25" cy="568.3859" fill="none" rx="3" ry="3" style="stroke:#038048;stroke-width:1;"/><text fill="#000000" font-family="sans-serif" font-size="14" lengthAdjust="spacing" textLength="278.5508" x="398.25" y="571.7326">dcatap:availability : skos:Concept [0..1]</text><text fill="#000000" font-family="sans-serif" font-size="14" font-weight="bold" lengthAdjust="spacing" textLength="67.2451" x="398.25" y="588.0295">Optional</text><ellipse cx="389.25" cy="600.9797" fill="none" rx="3" ry="3" style="stroke:#038048;stroke-width:1;"/><text fill="#000000" font-family="sans-serif" font-size="14" lengthAdjust="spacing" textLength="224.6836" x="398.25" y="604.3264">adms:identifier : Identifier [0..n]</text><ellipse cx="389.25" cy="617.2766" fill="none" rx="3" ry="3" style="stroke:#038048;stroke-width:1;"/><text fill="#000000" font-family="sans-serif" font-size="14" lengthAdjust="spacing" textLength="226.6045" x="398.25" y="620.6232">foaf:page : foaf:Document [0..n]</text><ellipse cx="389.25" cy="633.5734" fill="none" rx="3" ry="3" style="stroke:#038048;stroke-width:1;"/><text fill="#000000" font-family="sans-serif" font-size="14" lengthAdjust="spacing" textLength="307.4121" x="398.25" y="636.9201">dct:accrualPeriodicity : dct:Frequency [0..1]</text><ellipse cx="389.25" cy="649.8703" fill="none" rx="3" ry="3" style="stroke:#038048;stroke-width:1;"/><text fill="#000000" font-family="sans-serif" font-size="14" lengthAdjust="spacing" textLength="394.4063" x="398.25" y="653.217">schema:image : schema:url, schema:ImageObject [0..3]</text><ellipse cx="389.25" cy="666.1672" fill="none" rx="3" ry="3" style="stroke:#038048;stroke-width:1;"/><text fill="#000000" font-family="sans-serif" font-size="14" lengthAdjust="spacing" textLength="371.2188" x="398.25" y="669.5139">dcatap:applicableLegislation : eli:LegalResorce [0..n]</text><ellipse cx="389.25" cy="682.4641" fill="none" rx="3" ry="3" style="stroke:#038048;stroke-width:1;"/><text fill="#000000" font-family="sans-serif" font-size="14" lengthAdjust="spacing" textLength="280.1025" x="398.25" y="685.8107">dcat:inSeries : dcat:DatasetSeries [0..n]</text><ellipse cx="389.25" cy="698.7609" fill="none" rx="3" ry="3" style="stroke:#038048;stroke-width:1;"/><text fill="#000000" font-family="sans-serif" font-size="14" lengthAdjust="spacing" textLength="300.1797" x="398.25" y="702.1076">prov:wasGeneratedBy : prov:Activity [0..n]</text><line style="stroke:#181818;stroke-width:0.5;" x1="379.25" x2="797.6563" y1="709.4094" y2="709.4094"/></g><!--class Distribution--><g class="entity" data-entity="Distribution" data-source-line="84" data-uid="ent0006" id="entity_Distribution"><rect fill="#F1F1F1" height="488.0156" rx="2.5" ry="2.5" style="stroke:#181818;stroke-width:0.5;" width="420.4063" x="641.25" y="777.41"/><ellipse cx="806.3652" cy="793.41" fill="#ADD1B2" rx="11" ry="11" style="stroke:#181818;stroke-width:1;"/><path d="M809.334,799.0506 Q808.7559,799.3475 808.1152,799.4881 Q807.4746,799.6444 806.7715,799.6444 Q804.2715,799.6444 802.9434,798.0038 Q801.6309,796.3475 801.6309,793.2225 Q801.6309,790.0975 802.9434,788.4413 Q804.2715,786.785 806.7715,786.785 Q807.4746,786.785 808.1152,786.9413 Q808.7715,787.0975 809.334,787.3944 L809.334,790.1131 Q808.709,789.535 808.1152,789.2694 Q807.5215,788.9881 806.8965,788.9881 Q805.5527,788.9881 804.8652,790.0663 Q804.1777,791.1288 804.1777,793.2225 Q804.1777,795.3163 804.8652,796.3944 Q805.5527,797.4569 806.8965,797.4569 Q807.5215,797.4569 808.1152,797.1913 Q808.709,796.91 809.334,796.3319 L809.334,799.0506 Z " fill="#000000"/><text fill="#000000" font-family="sans-serif" font-size="14" lengthAdjust="spacing" textLength="81.6758" x="826.8652" y="798.2567">Distribution</text><line style="stroke:#181818;stroke-width:0.5;" x1="642.25" x2="1060.6563" y1="809.41" y2="809.41"/><text fill="#000000" font-family="sans-serif" font-size="14" font-weight="bold" lengthAdjust="spacing" textLength="85.1553" x="661.25" y="826.4051">Mandatory</text><ellipse cx="652.25" cy="839.3553" fill="none" rx="3" ry="3" style="stroke:#038048;stroke-width:1;"/><text fill="#000000" font-family="sans-serif" font-size="14" lengthAdjust="spacing" textLength="262.7119" x="661.25" y="842.702">dcat:accessURL : rdfs:Resource [1..n]</text><text fill="#000000" font-family="sans-serif" font-size="14" font-weight="bold" lengthAdjust="spacing" textLength="116.3682" x="661.25" y="858.9989">Recommended</text><ellipse cx="652.25" cy="871.9491" fill="none" rx="3" ry="3" style="stroke:#038048;stroke-width:1;"/><text fill="#000000" font-family="sans-serif" font-size="14" lengthAdjust="spacing" textLength="283.4658" x="661.25" y="875.2957">dct:license : dct:LicenseDocument [0..1]</text><ellipse cx="652.25" cy="888.2459" fill="none" rx="3" ry="3" style="stroke:#038048;stroke-width:1;"/><text fill="#000000" font-family="sans-serif" font-size="14" lengthAdjust="spacing" textLength="278.5508" x="661.25" y="891.5926">dcatap:availability : skos:Concept [0..1]</text><ellipse cx="652.25" cy="904.5428" fill="none" rx="3" ry="3" style="stroke:#038048;stroke-width:1;"/><text fill="#000000" font-family="sans-serif" font-size="14" lengthAdjust="spacing" textLength="235.9014" x="661.25" y="907.8895">dct:description : rdfs:Literal [0..n]</text><ellipse cx="652.25" cy="920.8397" fill="none" rx="3" ry="3" style="stroke:#038048;stroke-width:1;"/><text fill="#000000" font-family="sans-serif" font-size="14" lengthAdjust="spacing" textLength="294.998" x="661.25" y="924.1864">dct:format : dct:MediaTypeOrExtent [0..1]</text><ellipse cx="652.25" cy="937.1366" fill="none" rx="3" ry="3" style="stroke:#038048;stroke-width:1;"/><text fill="#000000" font-family="sans-serif" font-size="14" lengthAdjust="spacing" textLength="267.3057" x="661.25" y="940.4832">dct:rights : dct:RightsStatement [0..1]</text><ellipse cx="652.25" cy="953.4334" fill="none" rx="3" ry="3" style="stroke:#038048;stroke-width:1;"/><text fill="#000000" font-family="sans-serif" font-size="14" lengthAdjust="spacing" textLength="185.4316" x="661.25" y="956.7801">dct:title : rdfs:Literal [0..n]</text><ellipse cx="652.25" cy="969.7303" fill="none" rx="3" ry="3" style="stroke:#038048;stroke-width:1;"/><text fill="#000000" font-family="sans-serif" font-size="14" lengthAdjust="spacing" textLength="219.3926" x="661.25" y="973.077">dct:modified : rdfs:Literal [0..1]</text><text fill="#000000" font-family="sans-serif" font-size="14" font-weight="bold" lengthAdjust="spacing" textLength="67.2451" x="661.25" y="989.3739">Optional</text><ellipse cx="652.25" cy="1002.3241" fill="none" rx="3" ry="3" style="stroke:#038048;stroke-width:1;"/><text fill="#000000" font-family="sans-serif" font-size="14" lengthAdjust="spacing" textLength="310.4951" x="661.25" y="1005.6707">dcat:accessService : dcat:DataService [0..n]</text><ellipse cx="652.25" cy="1018.6209" fill="none" rx="3" ry="3" style="stroke:#038048;stroke-width:1;"/><text fill="#000000" font-family="sans-serif" font-size="14" lengthAdjust="spacing" textLength="226.6865" x="661.25" y="1021.9676">dcat:byteSize : rdfs:Literal [0..1]</text><ellipse cx="652.25" cy="1034.9178" fill="none" rx="3" ry="3" style="stroke:#038048;stroke-width:1;"/><text fill="#000000" font-family="sans-serif" font-size="14" lengthAdjust="spacing" textLength="275.5088" x="661.25" y="1038.2645">spdx:checksum : spdx:Checksum [0..1]</text><ellipse cx="652.25" cy="1051.2147" fill="none" rx="3" ry="3" style="stroke:#038048;stroke-width:1;"/><text fill="#000000" font-family="sans-serif" font-size="14" lengthAdjust="spacing" textLength="226.6045" x="661.25" y="1054.5614">foaf:page : foaf:Document [0..n]</text><ellipse cx="652.25" cy="1067.5116" fill="none" rx="3" ry="3" style="stroke:#038048;stroke-width:1;"/><text fill="#000000" font-family="sans-serif" font-size="14" lengthAdjust="spacing" textLength="283.2334" x="661.25" y="1070.8582">dcat:downloadURL : rdfs:Resource [0..n]</text><ellipse cx="652.25" cy="1083.8084" fill="none" rx="3" ry="3" style="stroke:#038048;stroke-width:1;"/><text fill="#000000" font-family="sans-serif" font-size="14" lengthAdjust="spacing" textLength="220.9238" x="661.25" y="1087.1551">dct:identifier : rdfs:Literal [0..1]</text><ellipse cx="652.25" cy="1100.1053" fill="none" rx="3" ry="3" style="stroke:#038048;stroke-width:1;"/><text fill="#000000" font-family="sans-serif" font-size="14" lengthAdjust="spacing" textLength="394.4063" x="661.25" y="1103.452">schema:image : schema:url, schema:ImageObject [0..3]</text><ellipse cx="652.25" cy="1116.4022" fill="none" rx="3" ry="3" style="stroke:#038048;stroke-width:1;"/><text fill="#000000" font-family="sans-serif" font-size="14" lengthAdjust="spacing" textLength="293.2207" x="661.25" y="1119.7489">dct:language : dct:LinguisticSystem [0..n]</text><ellipse cx="652.25" cy="1132.6991" fill="none" rx="3" ry="3" style="stroke:#038048;stroke-width:1;"/><text fill="#000000" font-family="sans-serif" font-size="14" lengthAdjust="spacing" textLength="255.623" x="661.25" y="1136.0457">dct:conformsTo : dct:Standard [0..n]</text><ellipse cx="652.25" cy="1148.9959" fill="none" rx="3" ry="3" style="stroke:#038048;stroke-width:1;"/><text fill="#000000" font-family="sans-serif" font-size="14" lengthAdjust="spacing" textLength="272.1934" x="661.25" y="1152.3426">dcat:mediaType : dct:MediaType [0..1]</text><ellipse cx="652.25" cy="1165.2928" fill="none" rx="3" ry="3" style="stroke:#038048;stroke-width:1;"/><text fill="#000000" font-family="sans-serif" font-size="14" lengthAdjust="spacing" textLength="313.8174" x="661.25" y="1168.6395">dcat:packageFormat : dcat:mediaType [0..1]</text><ellipse cx="652.25" cy="1181.5897" fill="none" rx="3" ry="3" style="stroke:#038048;stroke-width:1;"/><text fill="#000000" font-family="sans-serif" font-size="14" lengthAdjust="spacing" textLength="202.9453" x="661.25" y="1184.9364">dct:issued : rdfs:Literal [0..1]</text><ellipse cx="652.25" cy="1197.8866" fill="none" rx="3" ry="3" style="stroke:#038048;stroke-width:1;"/><text fill="#000000" font-family="sans-serif" font-size="14" lengthAdjust="spacing" textLength="274.2783" x="661.25" y="1201.2332">dcat:temporalResolution : xsd:duration</text><ellipse cx="652.25" cy="1214.1834" fill="none" rx="3" ry="3" style="stroke:#038048;stroke-width:1;"/><text fill="#000000" font-family="sans-serif" font-size="14" lengthAdjust="spacing" textLength="380.0918" x="661.25" y="1217.5301">dcatap:applicableLegislation : eli:LegalResource [0..n]</text><ellipse cx="652.25" cy="1230.4803" fill="none" rx="3" ry="3" style="stroke:#038048;stroke-width:1;"/><text fill="#000000" font-family="sans-serif" font-size="14" lengthAdjust="spacing" textLength="225.6201" x="661.25" y="1233.827">odrl:hasPolicy : odrl:Policy [0..1]</text><ellipse cx="652.25" cy="1246.7772" fill="none" rx="3" ry="3" style="stroke:#038048;stroke-width:1;"/><text fill="#000000" font-family="sans-serif" font-size="14" lengthAdjust="spacing" textLength="235.7168" x="661.25" y="1250.1239">adms:status : skos:Concept [0..1]</text><line style="stroke:#181818;stroke-width:0.5;" x1="642.25" x2="1060.6563" y1="1257.4256" y2="1257.4256"/></g><!--class DataService--><g class="entity" data-entity="DataService" data-source-line="113" data-uid="ent0007" id="entity_DataService"><rect fill="#F1F1F1" height="178.375" rx="2.5" ry="2.5" style="stroke:#181818;stroke-width:0.5;" width="406.0918" x="779.41" y="1349.87"/><ellipse cx="935.6214" cy="1365.87" fill="#ADD1B2" rx="11" ry="11" style="stroke:#181818;stroke-width:1;"/><path d="M938.5902,1371.5106 Q938.0121,1371.8075 937.3714,1371.9481 Q936.7308,1372.1044 936.0277,1372.1044 Q933.5277,1372.1044 932.1996,1370.4638 Q930.8871,1368.8075 930.8871,1365.6825 Q930.8871,1362.5575 932.1996,1360.9013 Q933.5277,1359.245 936.0277,1359.245 Q936.7308,1359.245 937.3714,1359.4013 Q938.0277,1359.5575 938.5902,1359.8544 L938.5902,1362.5731 Q937.9652,1361.995 937.3714,1361.7294 Q936.7777,1361.4481 936.1527,1361.4481 Q934.8089,1361.4481 934.1214,1362.5263 Q933.4339,1363.5888 933.4339,1365.6825 Q933.4339,1367.7763 934.1214,1368.8544 Q934.8089,1369.9169 936.1527,1369.9169 Q936.7777,1369.9169 937.3714,1369.6513 Q937.9652,1369.37 938.5902,1368.7919 L938.5902,1371.5106 Z " fill="#000000"/><text fill="#000000" font-family="sans-serif" font-size="14" lengthAdjust="spacing" textLength="85.1689" x="956.1214" y="1370.7167">DataService</text><line style="stroke:#181818;stroke-width:0.5;" x1="780.41" x2="1184.5018" y1="1381.87" y2="1381.87"/><text fill="#000000" font-family="sans-serif" font-size="14" font-weight="bold" lengthAdjust="spacing" textLength="85.1553" x="799.41" y="1398.8651">Mandatory</text><ellipse cx="790.41" cy="1411.8153" fill="none" rx="3" ry="3" style="stroke:#038048;stroke-width:1;"/><text fill="#000000" font-family="sans-serif" font-size="14" lengthAdjust="spacing" textLength="277.6143" x="799.41" y="1415.162">dcat:endpointURL : rdfs:Resource [1..n]</text><text fill="#000000" font-family="sans-serif" font-size="14" font-weight="bold" lengthAdjust="spacing" textLength="116.3682" x="799.41" y="1431.4589">Recommended</text><ellipse cx="790.41" cy="1444.4091" fill="none" rx="3" ry="3" style="stroke:#038048;stroke-width:1;"/><text fill="#000000" font-family="sans-serif" font-size="14" lengthAdjust="spacing" textLength="320.9951" x="799.41" y="1447.7557">dct:endpointDescription : rdfs:Resource [0..n]</text><ellipse cx="790.41" cy="1460.7059" fill="none" rx="3" ry="3" style="stroke:#038048;stroke-width:1;"/><text fill="#000000" font-family="sans-serif" font-size="14" lengthAdjust="spacing" textLength="281.9141" x="799.41" y="1464.0526">dcat:servesDataset : dcat:Dataset [0..n]</text><text fill="#000000" font-family="sans-serif" font-size="14" font-weight="bold" lengthAdjust="spacing" textLength="67.2451" x="799.41" y="1480.3495">Optional</text><ellipse cx="790.41" cy="1493.2997" fill="none" rx="3" ry="3" style="stroke:#038048;stroke-width:1;"/><text fill="#000000" font-family="sans-serif" font-size="14" lengthAdjust="spacing" textLength="226.6045" x="799.41" y="1496.6464">foaf:page : foaf:Document [0..n]</text><ellipse cx="790.41" cy="1509.5966" fill="none" rx="3" ry="3" style="stroke:#038048;stroke-width:1;"/><text fill="#000000" font-family="sans-serif" font-size="14" lengthAdjust="spacing" textLength="380.0918" x="799.41" y="1512.9432">dcatap:applicableLegislation : eli:LegalResource [0..n]</text><line style="stroke:#181818;stroke-width:0.5;" x1="780.41" x2="1184.5018" y1="1520.245" y2="1520.245"/></g><!--class DatasetSeries--><g class="entity" data-entity="DatasetSeries" data-source-line="123" data-uid="ent0008" id="entity_DatasetSeries"><rect fill="#F1F1F1" height="129.4844" rx="2.5" ry="2.5" style="stroke:#181818;stroke-width:0.5;" width="406.0918" x="129.41" y="956.67"/><ellipse cx="279.2674" cy="972.67" fill="#ADD1B2" rx="11" ry="11" style="stroke:#181818;stroke-width:1;"/><path d="M282.2362,978.3106 Q281.658,978.6075 281.0174,978.7481 Q280.3768,978.9044 279.6737,978.9044 Q277.1737,978.9044 275.8455,977.2638 Q274.533,975.6075 274.533,972.4825 Q274.533,969.3575 275.8455,967.7013 Q277.1737,966.045 279.6737,966.045 Q280.3768,966.045 281.0174,966.2013 Q281.6737,966.3575 282.2362,966.6544 L282.2362,969.3731 Q281.6112,968.795 281.0174,968.5294 Q280.4237,968.2481 279.7987,968.2481 Q278.4549,968.2481 277.7674,969.3263 Q277.0799,970.3888 277.0799,972.4825 Q277.0799,974.5763 277.7674,975.6544 Q278.4549,976.7169 279.7987,976.7169 Q280.4237,976.7169 281.0174,976.4513 Q281.6112,976.17 282.2362,975.5919 L282.2362,978.3106 Z " fill="#000000"/><text fill="#000000" font-family="sans-serif" font-size="14" lengthAdjust="spacing" textLength="97.877" x="299.7674" y="977.5167">DatasetSeries</text><line style="stroke:#181818;stroke-width:0.5;" x1="130.41" x2="534.5018" y1="988.67" y2="988.67"/><text fill="#000000" font-family="sans-serif" font-size="14" font-weight="bold" lengthAdjust="spacing" textLength="67.2451" x="149.41" y="1005.6651">Optional</text><ellipse cx="140.41" cy="1018.6153" fill="none" rx="3" ry="3" style="stroke:#038048;stroke-width:1;"/><text fill="#000000" font-family="sans-serif" font-size="14" lengthAdjust="spacing" textLength="380.0918" x="149.41" y="1021.962">dcatap:applicableLegislation : eli:LegalResource [0..n]</text><ellipse cx="140.41" cy="1034.9122" fill="none" rx="3" ry="3" style="stroke:#038048;stroke-width:1;"/><text fill="#000000" font-family="sans-serif" font-size="14" lengthAdjust="spacing" textLength="307.4121" x="149.41" y="1038.2589">dct:accrualPeriodicity : dct:Frequency [0..1]</text><ellipse cx="140.41" cy="1051.2091" fill="none" rx="3" ry="3" style="stroke:#038048;stroke-width:1;"/><text fill="#000000" font-family="sans-serif" font-size="14" lengthAdjust="spacing" textLength="221.8193" x="149.41" y="1054.5557">dct:spatial : rdfs:resource [0..n]</text><ellipse cx="140.41" cy="1067.5059" fill="none" rx="3" ry="3" style="stroke:#038048;stroke-width:1;"/><text fill="#000000" font-family="sans-serif" font-size="14" lengthAdjust="spacing" textLength="267.4629" x="149.41" y="1070.8526">dct:temporal : dct:PeriodOfTime [0..n]</text><line style="stroke:#181818;stroke-width:0.5;" x1="130.41" x2="534.5018" y1="1078.1544" y2="1078.1544"/></g><!--link CatalogRecord to CatalogedResource--><g class="link" data-entity-1="CatalogRecord" data-entity-2="CatalogedResource" data-source-line="131" data-uid="lnk9" id="link_CatalogRecord_CatalogedResource"><path codeLine="131" d="M237.1,1553.16 C237.1,1571.88 237.1,1585.91 237.1,1606.45" fill="none" id="CatalogRecord-to-CatalogedResource" style="stroke:#181818;stroke-width:1;"/><polygon fill="#181818" points="237.1,1612.45,241.1,1603.45,237.1,1607.45,233.1,1603.45,237.1,1612.45" style="stroke:#181818;stroke-width:1;"/><text fill="#000000" font-family="sans-serif" font-size="13" lengthAdjust="spacing" textLength="115.2354" x="121.1" y="1578.8669">foaf:primaryTopic</text></g><!--link Catalog to CatalogedResource--><g class="link" data-entity-1="Catalog" data-entity-2="CatalogedResource" data-source-line="132" data-uid="lnk10" id="link_Catalog_CatalogedResource"><path codeLine="132" d="M212.36,397.79 C212.36,552.89 212.36,748 212.36,748 C212.36,748 561.94,748 561.94,748 C561.94,748 561.94,1277.03 561.94,1606.46" fill="none" id="Catalog-to-CatalogedResource" style="stroke:#181818;stroke-width:1;"/><polygon fill="#181818" points="561.94,1612.46,565.94,1603.46,561.94,1607.46,557.94,1603.46,561.94,1612.46" style="stroke:#181818;stroke-width:1;"/><text fill="#000000" font-family="sans-serif" font-size="13" lengthAdjust="spacing" textLength="89.6416" x="471.94" y="826.3969">dcat:resource</text></g><!--link Catalog to Dataset--><g class="link" data-entity-1="Catalog" data-entity-2="Dataset" data-source-line="133" data-uid="lnk11" id="link_Catalog_Dataset"><path codeLine="133" d="M456.87,397.92 C456.87,417.97 456.87,432.03 456.87,451.2" fill="none" id="Catalog-to-Dataset" style="stroke:#181818;stroke-width:1;"/><polygon fill="#181818" points="456.87,457.2,460.87,448.2,456.87,452.2,452.87,448.2,456.87,457.2" style="stroke:#181818;stroke-width:1;"/><text fill="#000000" font-family="sans-serif" font-size="13" lengthAdjust="spacing" textLength="81.9927" x="374.87" y="423.6269">dcat:dataset</text></g><!--link CatalogedResource to CatalogedResource--><g class="link" data-entity-1="CatalogedResource" data-entity-2="CatalogedResource" data-source-line="134" data-uid="lnk12" id="link_CatalogedResource_CatalogedResource"><path codeLine="134" d="M704.31,1612.55 C704.31,1600.32 704.31,1593 704.31,1593 C704.31,1593 743.35,1593 743.35,1593 C743.35,1593 743.35,2128 743.35,2128 C743.35,2128 520.08,2128 520.08,2128 C520.08,2128 520.08,2130.14 520.08,2123.36" fill="none" id="CatalogedResource-to-CatalogedResource" style="stroke:#181818;stroke-width:1;"/><polygon fill="#181818" points="520.08,2117.36,516.08,2126.36,520.08,2122.36,524.08,2126.36,520.08,2117.36" style="stroke:#181818;stroke-width:1;"/><text fill="#000000" font-family="sans-serif" font-size="13" lengthAdjust="spacing" textLength="74.1025" x="749.35" y="1939.2269">dct:hasPart</text></g><!--link CatalogedResource to CatalogedResource--><g class="link" data-entity-1="CatalogedResource" data-entity-2="CatalogedResource" data-source-line="135" data-uid="lnk13" id="link_CatalogedResource_CatalogedResource"><path codeLine="135" d="M683.29,1612.36 C683.29,1588.5 683.29,1573 683.29,1573 C683.29,1573 761.38,1573 761.38,1573 C761.38,1573 761.38,2141 761.38,2141 C761.38,2141 314.83,2141 314.83,2141 C314.83,2141 314.83,2138.08 314.83,2123.46" fill="none" id="CatalogedResource-to-CatalogedResource-1" style="stroke:#181818;stroke-width:1;"/><polygon fill="#181818" points="314.83,2117.46,310.83,2126.46,314.83,2122.46,318.83,2126.46,314.83,2117.46" style="stroke:#181818;stroke-width:1;"/><text fill="#000000" font-family="sans-serif" font-size="13" lengthAdjust="spacing" textLength="76.3179" x="767.38" y="2024.3869">dct:isPartOf</text></g><!--link Catalog to Catalog--><g class="link" data-entity-1="Catalog" data-entity-2="Catalog" data-source-line="136" data-uid="lnk14" id="link_Catalog_Catalog"><path codeLine="136" d="M332.45,23.44 C332.45,12.61 332.45,6 332.45,6 C332.45,6 105.7,6 105.7,6 C105.7,6 105.7,428 105.7,428 C105.7,428 295.3,428 295.3,428 C295.3,428 295.3,422.06 295.3,403.77" fill="none" id="Catalog-to-Catalog" style="stroke:#181818;stroke-width:1;"/><polygon fill="#181818" points="295.3,397.77,291.3,406.77,295.3,402.77,299.3,406.77,295.3,397.77" style="stroke:#181818;stroke-width:1;"/><text fill="#000000" font-family="sans-serif" font-size="13" lengthAdjust="spacing" textLength="80.8374" x="19.7" y="195.8869">dcat:catalog</text></g><!--link Dataset to DatasetSeries--><g class="link" data-entity-1="Dataset" data-entity-2="DatasetSeries" data-source-line="137" data-uid="lnk15" id="link_Dataset_DatasetSeries"><path codeLine="137" d="M456.87,717.67 C456.87,796.44 456.87,887.46 456.87,950.34" fill="none" id="Dataset-to-DatasetSeries" style="stroke:#181818;stroke-width:1;"/><polygon fill="#181818" points="456.87,956.34,460.87,947.34,456.87,951.34,452.87,947.34,456.87,956.34" style="stroke:#181818;stroke-width:1;"/><text fill="#000000" font-family="sans-serif" font-size="13" lengthAdjust="spacing" textLength="84.6714" x="371.87" y="833.0769">dcat:inSeries</text></g><!--link Dataset to Distribution--><g class="link" data-entity-1="Dataset" data-entity-2="Distribution" data-source-line="138" data-uid="lnk16" id="link_Dataset_Distribution"><path codeLine="138" d="M719.95,717.67 C719.95,736.65 719.95,750.68 719.95,771.04" fill="none" id="Dataset-to-Distribution" style="stroke:#181818;stroke-width:1;"/><polygon fill="#181818" points="719.95,777.04,723.95,768.04,719.95,772.04,715.95,768.04,719.95,777.04" style="stroke:#181818;stroke-width:1;"/></g><!--link Distribution to DataService--><g class="link" data-entity-1="Distribution" data-entity-2="DataService" data-source-line="139" data-uid="lnk17" id="link_Distribution_DataService"><path codeLine="139" d="M920.53,1265.87 C920.53,1295.64 920.53,1318.41 920.53,1343.68" fill="none" id="Distribution-to-DataService" style="stroke:#181818;stroke-width:1;"/><polygon fill="#181818" points="920.53,1349.68,924.53,1340.68,920.53,1344.68,916.53,1340.68,920.53,1349.68" style="stroke:#181818;stroke-width:1;"/></g><!--link DataService to Dataset--><g class="link" data-entity-1="DataService" data-entity-2="Dataset" data-source-line="140" data-uid="lnk18" id="link_DataService_Dataset"><path codeLine="140" d="M779.01,1410 C694.09,1410 614.81,1410 614.81,1410 C614.81,1410 614.81,955.74 614.81,723.81" fill="none" id="DataService-to-Dataset" style="stroke:#181818;stroke-width:1;"/><polygon fill="#181818" points="614.81,717.81,610.81,726.81,614.81,722.81,618.81,726.81,614.81,717.81" style="stroke:#181818;stroke-width:1;"/></g><!--link Catalog to DataService--><g class="link" data-entity-1="Catalog" data-entity-2="DataService" data-source-line="141" data-uid="lnk19" id="link_Catalog_DataService"><path codeLine="141" d="M535.93,211 C770.33,211 1123.58,211 1123.58,211 C1123.58,211 1123.58,1061.15 1123.58,1343.75" fill="none" id="Catalog-to-DataService" style="stroke:#181818;stroke-width:1;"/><polygon fill="#181818" points="1123.58,1349.75,1127.58,1340.75,1123.58,1344.75,1119.58,1340.75,1123.58,1349.75" style="stroke:#181818;stroke-width:1;"/><text fill="#000000" font-family="sans-serif" font-size="13" lengthAdjust="spacing" textLength="79.4092" x="1043.58" y="482.6169">dcat:service</text></g><!--link Catalog to CatalogRecord--><g class="link" data-entity-1="Catalog" data-entity-2="CatalogRecord" data-source-line="142" data-uid="lnk20" id="link_Catalog_CatalogRecord"><path codeLine="142" d="M129.11,211 C101.26,211 82,211 82,211 C82,211 82,1014.73 82,1319.17" fill="none" id="Catalog-to-CatalogRecord" style="stroke:#181818;stroke-width:1;"/><polygon fill="#181818" points="82,1325.17,86,1316.17,82,1320.17,78,1316.17,82,1325.17" style="stroke:#181818;stroke-width:1;"/><text fill="#000000" font-family="sans-serif" font-size="13" lengthAdjust="spacing" textLength="74.8833" x="7" y="740.5969">dcat:record</text></g><!--link DatasetSeries to CatalogedResource--><g class="link" data-entity-1="DatasetSeries" data-entity-2="CatalogedResource" data-source-line="143" data-uid="lnk21" id="link_DatasetSeries_CatalogedResource"><path codeLine="143" d="M450.06,1086.55 C450.06,1197.92 450.06,1412.58 450.06,1594.65" fill="none" id="DatasetSeries-to-CatalogedResource" style="stroke:#181818;stroke-width:1;"/><polygon fill="none" points="450.06,1612.65,456.06,1594.65,444.06,1594.65,450.06,1612.65" style="stroke:#181818;stroke-width:1;"/></g><!--link DataService to CatalogedResource--><g class="link" data-entity-1="DataService" data-entity-2="CatalogedResource" data-source-line="144" data-uid="lnk22" id="link_DataService_CatalogedResource"><path codeLine="144" d="M779.22,1469 C715.88,1469 662.27,1469 662.27,1469 C662.27,1469 662.27,1516.49 662.27,1594.19" fill="none" id="DataService-to-CatalogedResource" style="stroke:#181818;stroke-width:1;"/><polygon fill="none" points="662.27,1612.19,668.27,1594.19,656.27,1594.19,662.27,1612.19" style="stroke:#181818;stroke-width:1;"/></g><!--link Dataset to CatalogedResource--><g class="link" data-entity-1="Dataset" data-entity-2="CatalogedResource" data-source-line="145" data-uid="lnk23" id="link_Dataset_CatalogedResource"><path codeLine="145" d="M588.37,717.88 C588.37,927.5 588.37,1325.12 588.37,1594.28" fill="none" id="Dataset-to-CatalogedResource" style="stroke:#181818;stroke-width:1;"/><polygon fill="none" points="588.37,1612.28,594.37,1594.28,582.37,1594.28,588.37,1612.28" style="stroke:#181818;stroke-width:1;"/></g><!--SRC=[nLZ1RkCs4BthAtHsDui4lUbGO1jtYqMpJM2xfyKUnkJOPYs9Mf9ougRvzmubog94oP2D0Cqff8R3uV2zDqFhlSWBK935gSZH70kCfJ8x6KKHIq7h-1uCf78RlqQpsLV8EHYfZhDP5DFVJvoPXADcIXH6o3nEOiKtEdaG1XMayRUxZn_pxwrfKQvJeNUeo70ZOPDysc9kAhCxpym8a-A8hzbiWKnc6UOSUHi6K1mKg4P3wwhXt0s_tROnL7lkP8O5RB69OIvPcLLXt7R3I27VbhMX7Ju86Wfj1DFBepQOTLnN2mJ3NBVsrMZKlT2wH1uSisUbn7Pdj7Evg0PB0xHxw98EhL4TQ5i_1qitrGzM5s04RUY2bMHlRx1hHZxCZlPQmOlCPNOaQxsNEhcNESF2B9dz6BZE91SRCNgssUonGWka_lr1aK1HK0fXdU83ReLEmM4AKv7G3AGBrB9KmM4eIjLySISVjsGEpywmWVU0HoOLxvajwabd_1R1MXi5pCGThY0_RJ_26Xk7p0sjV98YjvWzC50y-KFaF63D1GGJd61XSw_-LohkyVXS9y-YnO7bGwmjN22PuuQaXgzGPH_YPx4NQo9gGhvfsEm33LuwTqACvCJ2fp7svXVIgu5t3zQN0lfA0PX2xI6kc0GOGwqNqwMXWjj6gaolf5j0fWJB5inUuXQuGOMK2lxhiJdo2A7EgEI0I1PA7f8V9QHLDZyPeyIwTBYkllbJmUsV5Yxm90sExFLOxqGHnATQu_C7OGejItjyy8maLsco0_qawPvjOge9D_Bp3JpJYQQhAFKGiZhuEw3IGyJkktDsVqg3UiZOFucD4PGPqyAtRcLtcZQeL5Kc2YKoKCULB0GBVVO4OvGgTmxFWvenXQwJipe1xCEqEYUqlHGFw-8uDORicdjeEfNNSyqDKSeZIrtT_RchoZkT0xD2gfFT4oeX-UDc9RAmTDeAVG2HmbgamXn7BY5CRNLndShqfHq4xLanHTn901MfGHskO7KqziDdXJzAaguk8LtX8HXNljsmLEcf9dsndnxNVoEhD_lv- -MToM2x8N9gm0JgNblg9WDnV0RzE-Q44kF4jvP5PiJ17hAF71y1uwr6NIx-MZo46dYsabzMqAO2v1gwMJQ3SM5yHIvWHI-LH_NRYxcsibv6vQjQMfVuvTIcd3wkZmQNuXyy9uIwu2y9mPRjTPdP9DlnVJFsBQSIoWgCVCvJ2NmG9RUJkynt8jrbRSKb_GqTDMlmqyTJM9qBO7iAudCBlyxwQvvqq8gkJN3QIFgBvWalLQKix_0gUiTcnQzJ3N37nOOqfB1lcclafbax3vLX_45dtxoevsTV_o4_frFZcYlebNQdzg_l__Izk1HsUuCgjMhCzOJcu2sAEctapSqluICu2Th8Pj6mUUT5xvcUxjZ_lISA78mvFJN6bomHrOh7JHYn2yFzdX2vuDemcxhVQGDyCwzuH_x0kN1KYxp_M-Uzh9nAZFyhK1YoQ_KJxmUEg1FjpSs_OIAw4OmPL8SQ-FWV]--></g></svg>