<svg xmlns="http://www.w3.org/2000/svg" xmlns:xlink="http://www.w3.org/1999/xlink" contentStyleType="text/css" data-diagram-type="CLASS" height="2050px" preserveAspectRatio="none" style="width:1192px;height:2050px;background:#FFFFFF;" version="1.1" viewBox="0 0 1192 2050" width="1192px" zoomAndPan="magnify"><defs/><g><!--class Catalog--><g id="elem_Catalog"><rect codeLine="4" fill="#F1F1F1" height="227.2656" id="Catalog" rx="2.5" ry="2.5" style="stroke:#181818;stroke-width:0.5;" width="406.0918" x="129.41" y="23.39"/><ellipse cx="301.3236" cy="39.39" fill="#ADD1B2" rx="11" ry="11" style="stroke:#181818;stroke-width:1;"/><path d="M304.2923,45.0306 Q303.7142,45.3275 303.0736,45.4681 Q302.4329,45.6244 301.7298,45.6244 Q299.2298,45.6244 297.9017,43.9838 Q296.5892,42.3275 296.5892,39.2025 Q296.5892,36.0775 297.9017,34.4213 Q299.2298,32.765 301.7298,32.765 Q302.4329,32.765 303.0736,32.9213 Q303.7298,33.0775 304.2923,33.3744 L304.2923,36.0931 Q303.6673,35.515 303.0736,35.2494 Q302.4798,34.9681 301.8548,34.9681 Q300.5111,34.9681 299.8236,36.0463 Q299.1361,37.1088 299.1361,39.2025 Q299.1361,41.2963 299.8236,42.3744 Q300.5111,43.4369 301.8548,43.4369 Q302.4798,43.4369 303.0736,43.1713 Q303.6673,42.89 304.2923,42.3119 L304.2923,45.0306 Z " fill="#000000"/><text fill="#000000" font-family="sans-serif" font-size="14" lengthAdjust="spacing" textLength="53.7646" x="321.8236" y="44.2367">Catalog</text><line style="stroke:#181818;stroke-width:0.5;" x1="130.41" x2="534.5018" y1="55.39" y2="55.39"/><text fill="#000000" font-family="sans-serif" font-size="14" font-weight="bold" lengthAdjust="spacing" textLength="116.3682" x="149.41" y="72.3851">Recommended</text><ellipse cx="140.41" cy="85.3353" fill="#FFFFFF" fill-opacity="0.00000" rx="3" ry="3" style="stroke:#038048;stroke-width:1;"/><text fill="#000000" font-family="sans-serif" font-size="14" lengthAdjust="spacing" textLength="234.165" x="149.41" y="88.682">dcat:dataset : dcat:Dataset [0..n]</text><ellipse cx="140.41" cy="101.6322" fill="#FFFFFF" fill-opacity="0.00000" rx="3" ry="3" style="stroke:#038048;stroke-width:1;"/><text fill="#000000" font-family="sans-serif" font-size="14" lengthAdjust="spacing" textLength="266.3281" x="149.41" y="104.9789">foaf:homepage : foaf:Document [0..1]</text><ellipse cx="140.41" cy="117.9291" fill="#FFFFFF" fill-opacity="0.00000" rx="3" ry="3" style="stroke:#038048;stroke-width:1;"/><text fill="#000000" font-family="sans-serif" font-size="14" lengthAdjust="spacing" textLength="261.7275" x="149.41" y="121.2757">dcat:service : dcat:DataService [0..n]</text><ellipse cx="140.41" cy="134.2259" fill="#FFFFFF" fill-opacity="0.00000" rx="3" ry="3" style="stroke:#038048;stroke-width:1;"/><text fill="#000000" font-family="sans-serif" font-size="14" lengthAdjust="spacing" textLength="215.3184" x="149.41" y="137.5726">dct:spatial : dct:Location [0..n]</text><ellipse cx="140.41" cy="150.5228" fill="#FFFFFF" fill-opacity="0.00000" rx="3" ry="3" style="stroke:#038048;stroke-width:1;"/><text fill="#000000" font-family="sans-serif" font-size="14" lengthAdjust="spacing" textLength="359.8096" x="149.41" y="153.8695">dcat:themeTaxonomy : skos:ConceptScheme [0..n]</text><text fill="#000000" font-family="sans-serif" font-size="14" font-weight="bold" lengthAdjust="spacing" textLength="67.2451" x="149.41" y="170.1664">Optional</text><ellipse cx="140.41" cy="183.1166" fill="#FFFFFF" fill-opacity="0.00000" rx="3" ry="3" style="stroke:#038048;stroke-width:1;"/><text fill="#000000" font-family="sans-serif" font-size="14" lengthAdjust="spacing" textLength="380.0918" x="149.41" y="186.4632">dcatap:applicableLegislation : eli:LegalResource [0..n]</text><ellipse cx="140.41" cy="199.4134" fill="#FFFFFF" fill-opacity="0.00000" rx="3" ry="3" style="stroke:#038048;stroke-width:1;"/><text fill="#000000" font-family="sans-serif" font-size="14" lengthAdjust="spacing" textLength="252.7178" x="149.41" y="202.7601">dcat:resource : dcat:Resource [0..n]</text><ellipse cx="140.41" cy="215.7103" fill="#FFFFFF" fill-opacity="0.00000" rx="3" ry="3" style="stroke:#038048;stroke-width:1;"/><text fill="#000000" font-family="sans-serif" font-size="14" lengthAdjust="spacing" textLength="231.8613" x="149.41" y="219.057">dcat:catalog : dcat:Catalog [0..n]</text><ellipse cx="140.41" cy="232.0072" fill="#FFFFFF" fill-opacity="0.00000" rx="3" ry="3" style="stroke:#038048;stroke-width:1;"/><text fill="#000000" font-family="sans-serif" font-size="14" lengthAdjust="spacing" textLength="274.6953" x="149.41" y="235.3539">dcat:record : dcat:CatalogRecord [0..n]</text><line style="stroke:#181818;stroke-width:0.5;" x1="130.41" x2="534.5018" y1="242.6556" y2="242.6556"/></g><!--class Resource--><g id="elem_Resource"><rect codeLine="17" fill="#F1F1F1" height="553.2031" id="Resource" rx="2.5" ry="2.5" style="stroke:#181818;stroke-width:0.5;" width="615.7432" x="109.58" y="1465.8"/><ellipse cx="380.6318" cy="1481.8" fill="#A9DCDF" rx="11" ry="11" style="stroke:#181818;stroke-width:1;"/><path d="M380.7411,1477.1438 L379.5849,1482.2219 L381.913,1482.2219 L380.7411,1477.1438 Z M379.2568,1474.9094 L382.2411,1474.9094 L385.6005,1487.3 L383.1474,1487.3 L382.3818,1484.2375 L379.1005,1484.2375 L378.3505,1487.3 L375.913,1487.3 L379.2568,1474.9094 Z " fill="#000000"/><text fill="#000000" font-family="sans-serif" font-size="14" font-style="italic" lengthAdjust="spacing" textLength="65.1396" x="401.1318" y="1486.6467">Resource</text><line style="stroke:#181818;stroke-width:0.5;" x1="110.58" x2="724.3232" y1="1497.8" y2="1497.8"/><text fill="#000000" font-family="sans-serif" font-size="14" font-weight="bold" lengthAdjust="spacing" textLength="85.1553" x="129.58" y="1514.7951">Mandatory</text><ellipse cx="120.58" cy="1527.7453" fill="#FFFFFF" fill-opacity="0.00000" rx="3" ry="3" style="stroke:#038048;stroke-width:1;"/><text fill="#000000" font-family="sans-serif" font-size="14" lengthAdjust="spacing" textLength="253.4424" x="129.58" y="1531.092">dcat:contactPoint : vcard:Kind [1..n]</text><ellipse cx="120.58" cy="1544.0422" fill="#FFFFFF" fill-opacity="0.00000" rx="3" ry="3" style="stroke:#038048;stroke-width:1;"/><text fill="#000000" font-family="sans-serif" font-size="14" lengthAdjust="spacing" textLength="235.9014" x="129.58" y="1547.3889">dct:description : rdfs:Literal [1..n]</text><ellipse cx="120.58" cy="1560.3391" fill="#FFFFFF" fill-opacity="0.00000" rx="3" ry="3" style="stroke:#038048;stroke-width:1;"/><text fill="#000000" font-family="sans-serif" font-size="14" lengthAdjust="spacing" textLength="220.8896" x="129.58" y="1563.6857">dct:identifier : rdfs:Literal [1..n]</text><ellipse cx="120.58" cy="1576.6359" fill="#FFFFFF" fill-opacity="0.00000" rx="3" ry="3" style="stroke:#038048;stroke-width:1;"/><text fill="#000000" font-family="sans-serif" font-size="14" lengthAdjust="spacing" textLength="220.6162" x="129.58" y="1579.9826">dct:publisher : foaf:Agent [1..1]</text><ellipse cx="120.58" cy="1592.9328" fill="#FFFFFF" fill-opacity="0.00000" rx="3" ry="3" style="stroke:#038048;stroke-width:1;"/><text fill="#000000" font-family="sans-serif" font-size="14" lengthAdjust="spacing" textLength="185.4316" x="129.58" y="1596.2795">dct:title : rdfs:Literal [1..n]</text><text fill="#000000" font-family="sans-serif" font-size="14" font-weight="bold" lengthAdjust="spacing" textLength="116.3682" x="129.58" y="1612.5764">Recommended</text><ellipse cx="120.58" cy="1625.5266" fill="#FFFFFF" fill-opacity="0.00000" rx="3" ry="3" style="stroke:#038048;stroke-width:1;"/><text fill="#000000" font-family="sans-serif" font-size="14" lengthAdjust="spacing" textLength="589.7432" x="129.58" y="1628.8732">dcat:keyword : skosConcept, schema:DefinedTerm, wikibase:item, rdfs:Litaral [0..n]</text><ellipse cx="120.58" cy="1641.8234" fill="#FFFFFF" fill-opacity="0.00000" rx="3" ry="3" style="stroke:#038048;stroke-width:1;"/><text fill="#000000" font-family="sans-serif" font-size="14" lengthAdjust="spacing" textLength="281.6885" x="129.58" y="1645.1701">dcat:landingPage : foaf:Document [0..n]</text><ellipse cx="120.58" cy="1658.1203" fill="#FFFFFF" fill-opacity="0.00000" rx="3" ry="3" style="stroke:#038048;stroke-width:1;"/><text fill="#000000" font-family="sans-serif" font-size="14" lengthAdjust="spacing" textLength="202.9453" x="129.58" y="1661.467">dct:issued : rdfs:Literal [0..1]</text><ellipse cx="120.58" cy="1674.4172" fill="#FFFFFF" fill-opacity="0.00000" rx="3" ry="3" style="stroke:#038048;stroke-width:1;"/><text fill="#000000" font-family="sans-serif" font-size="14" lengthAdjust="spacing" textLength="230.1455" x="129.58" y="1677.7639">dcat:theme : skos:Concept [0..n]</text><ellipse cx="120.58" cy="1690.7141" fill="#FFFFFF" fill-opacity="0.00000" rx="3" ry="3" style="stroke:#038048;stroke-width:1;"/><text fill="#000000" font-family="sans-serif" font-size="14" lengthAdjust="spacing" textLength="219.3926" x="129.58" y="1694.0607">dct:modified : rdfs:Literal [0..1]</text><ellipse cx="120.58" cy="1707.0109" fill="#FFFFFF" fill-opacity="0.00000" rx="3" ry="3" style="stroke:#038048;stroke-width:1;"/><text fill="#000000" font-family="sans-serif" font-size="14" lengthAdjust="spacing" textLength="283.4658" x="129.58" y="1710.3576">dct:license : dct:LicenseDocument [0..1]</text><ellipse cx="120.58" cy="1723.3078" fill="#FFFFFF" fill-opacity="0.00000" rx="3" ry="3" style="stroke:#038048;stroke-width:1;"/><text fill="#000000" font-family="sans-serif" font-size="14" lengthAdjust="spacing" textLength="267.3057" x="129.58" y="1726.6545">dct:rights : dct:RightsStatement [0..1]</text><text fill="#000000" font-family="sans-serif" font-size="14" font-weight="bold" lengthAdjust="spacing" textLength="67.2451" x="129.58" y="1742.9514">Optional</text><ellipse cx="120.58" cy="1755.9016" fill="#FFFFFF" fill-opacity="0.00000" rx="3" ry="3" style="stroke:#038048;stroke-width:1;"/><text fill="#000000" font-family="sans-serif" font-size="14" lengthAdjust="spacing" textLength="318.4521" x="129.58" y="1759.2482">dct:accessRights : dct:RightsStatement [0..1]</text><ellipse cx="120.58" cy="1772.1984" fill="#FFFFFF" fill-opacity="0.00000" rx="3" ry="3" style="stroke:#038048;stroke-width:1;"/><text fill="#000000" font-family="sans-serif" font-size="14" lengthAdjust="spacing" textLength="255.623" x="129.58" y="1775.5451">dct:conformsTo : dct:Standard [0..n]</text><ellipse cx="120.58" cy="1788.4953" fill="#FFFFFF" fill-opacity="0.00000" rx="3" ry="3" style="stroke:#038048;stroke-width:1;"/><text fill="#000000" font-family="sans-serif" font-size="14" lengthAdjust="spacing" textLength="288.5791" x="129.58" y="1791.842">dct:isReferencedBy : rdfs:Resource [0..n]</text><ellipse cx="120.58" cy="1804.7922" fill="#FFFFFF" fill-opacity="0.00000" rx="3" ry="3" style="stroke:#038048;stroke-width:1;"/><text fill="#000000" font-family="sans-serif" font-size="14" lengthAdjust="spacing" textLength="293.2207" x="129.58" y="1808.1389">dct:language : dct:LinguisticSystem [0..n]</text><ellipse cx="120.58" cy="1821.0891" fill="#FFFFFF" fill-opacity="0.00000" rx="3" ry="3" style="stroke:#038048;stroke-width:1;"/><text fill="#000000" font-family="sans-serif" font-size="14" lengthAdjust="spacing" textLength="338.085" x="129.58" y="1824.4357">prov:qualifiedAttribution : prov:Attribution [0..n]</text><ellipse cx="120.58" cy="1837.3859" fill="#FFFFFF" fill-opacity="0.00000" rx="3" ry="3" style="stroke:#038048;stroke-width:1;"/><text fill="#000000" font-family="sans-serif" font-size="14" lengthAdjust="spacing" textLength="331.0439" x="129.58" y="1840.7326">dcat:qualifiedRelation : dcat:Relationship [0..n]</text><ellipse cx="120.58" cy="1853.6828" fill="#FFFFFF" fill-opacity="0.00000" rx="3" ry="3" style="stroke:#038048;stroke-width:1;"/><text fill="#000000" font-family="sans-serif" font-size="14" lengthAdjust="spacing" textLength="232.8389" x="129.58" y="1857.0295">dct:relation : rdfs:Resource [0..n]</text><ellipse cx="120.58" cy="1869.9797" fill="#FFFFFF" fill-opacity="0.00000" rx="3" ry="3" style="stroke:#038048;stroke-width:1;"/><text fill="#000000" font-family="sans-serif" font-size="14" lengthAdjust="spacing" textLength="206.0762" x="129.58" y="1873.3264">dct:creator : foaf:Agent [0..n]</text><ellipse cx="120.58" cy="1886.2766" fill="#FFFFFF" fill-opacity="0.00000" rx="3" ry="3" style="stroke:#038048;stroke-width:1;"/><text fill="#000000" font-family="sans-serif" font-size="14" lengthAdjust="spacing" textLength="225.6201" x="129.58" y="1889.6232">odrl:hasPolicy : odrl:Policy [0..1]</text><ellipse cx="120.58" cy="1902.5734" fill="#FFFFFF" fill-opacity="0.00000" rx="3" ry="3" style="stroke:#038048;stroke-width:1;"/><text fill="#000000" font-family="sans-serif" font-size="14" lengthAdjust="spacing" textLength="235.7168" x="129.58" y="1905.9201">adms:status : skos:Concept [0..1]</text><ellipse cx="120.58" cy="1918.8703" fill="#FFFFFF" fill-opacity="0.00000" rx="3" ry="3" style="stroke:#038048;stroke-width:1;"/><text fill="#000000" font-family="sans-serif" font-size="14" lengthAdjust="spacing" textLength="217.9502" x="129.58" y="1922.217">dcat:version : rdfs:Literal [0..1]</text><ellipse cx="120.58" cy="1935.1672" fill="#FFFFFF" fill-opacity="0.00000" rx="3" ry="3" style="stroke:#038048;stroke-width:1;"/><text fill="#000000" font-family="sans-serif" font-size="14" lengthAdjust="spacing" textLength="266.0957" x="129.58" y="1938.5139">adms:versionNotes : rdfs:Literal [0..n]</text><ellipse cx="120.58" cy="1951.4641" fill="#FFFFFF" fill-opacity="0.00000" rx="3" ry="3" style="stroke:#038048;stroke-width:1;"/><text fill="#000000" font-family="sans-serif" font-size="14" lengthAdjust="spacing" textLength="235.9834" x="129.58" y="1954.8107">dct:hasPart : dcat:Resource [0..n]</text><ellipse cx="120.58" cy="1967.7609" fill="#FFFFFF" fill-opacity="0.00000" rx="3" ry="3" style="stroke:#038048;stroke-width:1;"/><text fill="#000000" font-family="sans-serif" font-size="14" lengthAdjust="spacing" textLength="251.6787" x="129.58" y="1971.1076">dcat:first : dcat:DatasetSeries [0..1]</text><ellipse cx="120.58" cy="1984.0578" fill="#FFFFFF" fill-opacity="0.00000" rx="3" ry="3" style="stroke:#038048;stroke-width:1;"/><text fill="#000000" font-family="sans-serif" font-size="14" lengthAdjust="spacing" textLength="249.5732" x="129.58" y="1987.4045">dcat:last : dcat:DatasetSeries [0..1]</text><ellipse cx="120.58" cy="2000.3547" fill="#FFFFFF" fill-opacity="0.00000" rx="3" ry="3" style="stroke:#038048;stroke-width:1;"/><text fill="#000000" font-family="sans-serif" font-size="14" lengthAdjust="spacing" textLength="255.8623" x="129.58" y="2003.7014">dcat:prev : dcat:DatasetSeries [0..1]</text><line style="stroke:#181818;stroke-width:0.5;" x1="110.58" x2="724.3232" y1="2011.0031" y2="2011.0031"/></g><!--class CatalogRecord--><g id="elem_CatalogRecord"><rect codeLine="50" fill="#F1F1F1" height="227.2656" id="CatalogRecord" rx="2.5" ry="2.5" style="stroke:#181818;stroke-width:0.5;" width="306.3145" x="58.3" y="1178.53"/><ellipse cx="155.7019" cy="1194.53" fill="#ADD1B2" rx="11" ry="11" style="stroke:#181818;stroke-width:1;"/><path d="M158.6706,1200.1706 Q158.0925,1200.4675 157.4519,1200.6081 Q156.8112,1200.7644 156.1081,1200.7644 Q153.6081,1200.7644 152.28,1199.1238 Q150.9675,1197.4675 150.9675,1194.3425 Q150.9675,1191.2175 152.28,1189.5613 Q153.6081,1187.905 156.1081,1187.905 Q156.8112,1187.905 157.4519,1188.0613 Q158.1081,1188.2175 158.6706,1188.5144 L158.6706,1191.2331 Q158.0456,1190.655 157.4519,1190.3894 Q156.8581,1190.1081 156.2331,1190.1081 Q154.8894,1190.1081 154.2019,1191.1863 Q153.5144,1192.2488 153.5144,1194.3425 Q153.5144,1196.4363 154.2019,1197.5144 Q154.8894,1198.5769 156.2331,1198.5769 Q156.8581,1198.5769 157.4519,1198.3113 Q158.0456,1198.03 158.6706,1197.4519 L158.6706,1200.1706 Z " fill="#000000"/><text fill="#000000" font-family="sans-serif" font-size="14" lengthAdjust="spacing" textLength="103.0107" x="176.2019" y="1199.3767">CatalogRecord</text><line style="stroke:#181818;stroke-width:0.5;" x1="59.3" x2="363.6145" y1="1210.53" y2="1210.53"/><text fill="#000000" font-family="sans-serif" font-size="14" font-weight="bold" lengthAdjust="spacing" textLength="85.1553" x="78.3" y="1227.5251">Mandatory</text><ellipse cx="69.3" cy="1240.4753" fill="#FFFFFF" fill-opacity="0.00000" rx="3" ry="3" style="stroke:#038048;stroke-width:1;"/><text fill="#000000" font-family="sans-serif" font-size="14" lengthAdjust="spacing" textLength="280.3145" x="78.3" y="1243.822">foaf:primaryTopic : dcat:Resource [1..1]</text><ellipse cx="69.3" cy="1256.7722" fill="#FFFFFF" fill-opacity="0.00000" rx="3" ry="3" style="stroke:#038048;stroke-width:1;"/><text fill="#000000" font-family="sans-serif" font-size="14" lengthAdjust="spacing" textLength="219.3926" x="78.3" y="1260.1189">dct:modified : rdfs:Literal [1..1]</text><text fill="#000000" font-family="sans-serif" font-size="14" font-weight="bold" lengthAdjust="spacing" textLength="116.3682" x="78.3" y="1276.4157">Recommended</text><ellipse cx="69.3" cy="1289.3659" fill="#FFFFFF" fill-opacity="0.00000" rx="3" ry="3" style="stroke:#038048;stroke-width:1;"/><text fill="#000000" font-family="sans-serif" font-size="14" lengthAdjust="spacing" textLength="202.9453" x="78.3" y="1292.7126">dct:issued : rdfs:Literal [0..1]</text><ellipse cx="69.3" cy="1305.6628" fill="#FFFFFF" fill-opacity="0.00000" rx="3" ry="3" style="stroke:#038048;stroke-width:1;"/><text fill="#000000" font-family="sans-serif" font-size="14" lengthAdjust="spacing" textLength="235.7168" x="78.3" y="1309.0095">adms:status : skos:Concept [0..1]</text><ellipse cx="69.3" cy="1321.9597" fill="#FFFFFF" fill-opacity="0.00000" rx="3" ry="3" style="stroke:#038048;stroke-width:1;"/><text fill="#000000" font-family="sans-serif" font-size="14" lengthAdjust="spacing" textLength="255.623" x="78.3" y="1325.3064">dct:conformsTo : dct:Standard [0..n]</text><text fill="#000000" font-family="sans-serif" font-size="14" font-weight="bold" lengthAdjust="spacing" textLength="67.2451" x="78.3" y="1341.6032">Optional</text><ellipse cx="69.3" cy="1354.5534" fill="#FFFFFF" fill-opacity="0.00000" rx="3" ry="3" style="stroke:#038048;stroke-width:1;"/><text fill="#000000" font-family="sans-serif" font-size="14" lengthAdjust="spacing" textLength="235.9014" x="78.3" y="1357.9001">dct:description : rdfs:Literal [0..n]</text><ellipse cx="69.3" cy="1370.8503" fill="#FFFFFF" fill-opacity="0.00000" rx="3" ry="3" style="stroke:#038048;stroke-width:1;"/><text fill="#000000" font-family="sans-serif" font-size="14" lengthAdjust="spacing" textLength="185.4316" x="78.3" y="1374.197">dct:title : rdfs:Literal [0..n]</text><ellipse cx="69.3" cy="1387.1472" fill="#FFFFFF" fill-opacity="0.00000" rx="3" ry="3" style="stroke:#038048;stroke-width:1;"/><text fill="#000000" font-family="sans-serif" font-size="14" lengthAdjust="spacing" textLength="223.2412" x="78.3" y="1390.4939">dct:language : rdfs:Literal [0..n]</text><line style="stroke:#181818;stroke-width:0.5;" x1="59.3" x2="363.6145" y1="1397.7956" y2="1397.7956"/></g><!--class Dataset--><g id="elem_Dataset"><rect codeLine="63" fill="#F1F1F1" height="259.8594" id="Dataset" rx="2.5" ry="2.5" style="stroke:#181818;stroke-width:0.5;" width="420.4063" x="378.25" y="310.66"/><ellipse cx="556.791" cy="326.66" fill="#ADD1B2" rx="11" ry="11" style="stroke:#181818;stroke-width:1;"/><path d="M559.7598,332.3006 Q559.1816,332.5975 558.541,332.7381 Q557.9004,332.8944 557.1973,332.8944 Q554.6973,332.8944 553.3691,331.2538 Q552.0566,329.5975 552.0566,326.4725 Q552.0566,323.3475 553.3691,321.6913 Q554.6973,320.035 557.1973,320.035 Q557.9004,320.035 558.541,320.1913 Q559.1973,320.3475 559.7598,320.6444 L559.7598,323.3631 Q559.1348,322.785 558.541,322.5194 Q557.9473,322.2381 557.3223,322.2381 Q555.9785,322.2381 555.291,323.3163 Q554.6035,324.3788 554.6035,326.4725 Q554.6035,328.5663 555.291,329.6444 Q555.9785,330.7069 557.3223,330.7069 Q557.9473,330.7069 558.541,330.4413 Q559.1348,330.16 559.7598,329.5819 L559.7598,332.3006 Z " fill="#000000"/><text fill="#000000" font-family="sans-serif" font-size="14" lengthAdjust="spacing" textLength="54.8242" x="577.291" y="331.5067">Dataset</text><line style="stroke:#181818;stroke-width:0.5;" x1="379.25" x2="797.6563" y1="342.66" y2="342.66"/><text fill="#000000" font-family="sans-serif" font-size="14" font-weight="bold" lengthAdjust="spacing" textLength="116.3682" x="398.25" y="359.6551">Recommended</text><ellipse cx="389.25" cy="372.6053" fill="#FFFFFF" fill-opacity="0.00000" rx="3" ry="3" style="stroke:#038048;stroke-width:1;"/><text fill="#000000" font-family="sans-serif" font-size="14" lengthAdjust="spacing" textLength="287.8682" x="398.25" y="375.952">dcat:distribution : dcat:Distribution [0..n]</text><ellipse cx="389.25" cy="388.9022" fill="#FFFFFF" fill-opacity="0.00000" rx="3" ry="3" style="stroke:#038048;stroke-width:1;"/><text fill="#000000" font-family="sans-serif" font-size="14" lengthAdjust="spacing" textLength="215.3184" x="398.25" y="392.2489">dct:spatial : dct:Location [0..n]</text><ellipse cx="389.25" cy="405.1991" fill="#FFFFFF" fill-opacity="0.00000" rx="3" ry="3" style="stroke:#038048;stroke-width:1;"/><text fill="#000000" font-family="sans-serif" font-size="14" lengthAdjust="spacing" textLength="267.4629" x="398.25" y="408.5457">dct:temporal : dct:PeriodOfTime [0..n]</text><ellipse cx="389.25" cy="421.4959" fill="#FFFFFF" fill-opacity="0.00000" rx="3" ry="3" style="stroke:#038048;stroke-width:1;"/><text fill="#000000" font-family="sans-serif" font-size="14" lengthAdjust="spacing" textLength="278.5508" x="398.25" y="424.8426">dcatap:availability : skos:Concept [0..1]</text><text fill="#000000" font-family="sans-serif" font-size="14" font-weight="bold" lengthAdjust="spacing" textLength="67.2451" x="398.25" y="441.1395">Optional</text><ellipse cx="389.25" cy="454.0897" fill="#FFFFFF" fill-opacity="0.00000" rx="3" ry="3" style="stroke:#038048;stroke-width:1;"/><text fill="#000000" font-family="sans-serif" font-size="14" lengthAdjust="spacing" textLength="224.6836" x="398.25" y="457.4364">adms:identifier : Identifier [0..n]</text><ellipse cx="389.25" cy="470.3866" fill="#FFFFFF" fill-opacity="0.00000" rx="3" ry="3" style="stroke:#038048;stroke-width:1;"/><text fill="#000000" font-family="sans-serif" font-size="14" lengthAdjust="spacing" textLength="226.6045" x="398.25" y="473.7332">foaf:page : foaf:Document [0..n]</text><ellipse cx="389.25" cy="486.6834" fill="#FFFFFF" fill-opacity="0.00000" rx="3" ry="3" style="stroke:#038048;stroke-width:1;"/><text fill="#000000" font-family="sans-serif" font-size="14" lengthAdjust="spacing" textLength="307.4121" x="398.25" y="490.0301">dct:accrualPeriodicity : dct:Frequency [0..1]</text><ellipse cx="389.25" cy="502.9803" fill="#FFFFFF" fill-opacity="0.00000" rx="3" ry="3" style="stroke:#038048;stroke-width:1;"/><text fill="#000000" font-family="sans-serif" font-size="14" lengthAdjust="spacing" textLength="394.4063" x="398.25" y="506.327">schema:image : schema:url, schema:ImageObject [0..3]</text><ellipse cx="389.25" cy="519.2772" fill="#FFFFFF" fill-opacity="0.00000" rx="3" ry="3" style="stroke:#038048;stroke-width:1;"/><text fill="#000000" font-family="sans-serif" font-size="14" lengthAdjust="spacing" textLength="371.2188" x="398.25" y="522.6239">dcatap:applicableLegislation : eli:LegalResorce [0..n]</text><ellipse cx="389.25" cy="535.5741" fill="#FFFFFF" fill-opacity="0.00000" rx="3" ry="3" style="stroke:#038048;stroke-width:1;"/><text fill="#000000" font-family="sans-serif" font-size="14" lengthAdjust="spacing" textLength="280.1025" x="398.25" y="538.9207">dcat:inSeries : dcat:DatasetSeries [0..n]</text><ellipse cx="389.25" cy="551.8709" fill="#FFFFFF" fill-opacity="0.00000" rx="3" ry="3" style="stroke:#038048;stroke-width:1;"/><text fill="#000000" font-family="sans-serif" font-size="14" lengthAdjust="spacing" textLength="300.1797" x="398.25" y="555.2176">prov:wasGeneratedBy : prov:Activity [0..n]</text><line style="stroke:#181818;stroke-width:0.5;" x1="379.25" x2="797.6563" y1="562.5194" y2="562.5194"/></g><!--class Distribution--><g id="elem_Distribution"><rect codeLine="78" fill="#F1F1F1" height="488.0156" id="Distribution" rx="2.5" ry="2.5" style="stroke:#181818;stroke-width:0.5;" width="420.4063" x="641.25" y="630.52"/><ellipse cx="806.3652" cy="646.52" fill="#ADD1B2" rx="11" ry="11" style="stroke:#181818;stroke-width:1;"/><path d="M809.334,652.1606 Q808.7559,652.4575 808.1152,652.5981 Q807.4746,652.7544 806.7715,652.7544 Q804.2715,652.7544 802.9434,651.1138 Q801.6309,649.4575 801.6309,646.3325 Q801.6309,643.2075 802.9434,641.5513 Q804.2715,639.895 806.7715,639.895 Q807.4746,639.895 808.1152,640.0513 Q808.7715,640.2075 809.334,640.5044 L809.334,643.2231 Q808.709,642.645 808.1152,642.3794 Q807.5215,642.0981 806.8965,642.0981 Q805.5527,642.0981 804.8652,643.1763 Q804.1777,644.2388 804.1777,646.3325 Q804.1777,648.4263 804.8652,649.5044 Q805.5527,650.5669 806.8965,650.5669 Q807.5215,650.5669 808.1152,650.3013 Q808.709,650.02 809.334,649.4419 L809.334,652.1606 Z " fill="#000000"/><text fill="#000000" font-family="sans-serif" font-size="14" lengthAdjust="spacing" textLength="81.6758" x="826.8652" y="651.3667">Distribution</text><line style="stroke:#181818;stroke-width:0.5;" x1="642.25" x2="1060.6563" y1="662.52" y2="662.52"/><text fill="#000000" font-family="sans-serif" font-size="14" font-weight="bold" lengthAdjust="spacing" textLength="85.1553" x="661.25" y="679.5151">Mandatory</text><ellipse cx="652.25" cy="692.4653" fill="#FFFFFF" fill-opacity="0.00000" rx="3" ry="3" style="stroke:#038048;stroke-width:1;"/><text fill="#000000" font-family="sans-serif" font-size="14" lengthAdjust="spacing" textLength="262.7119" x="661.25" y="695.812">dcat:accessURL : rdfs:Resource [1..n]</text><text fill="#000000" font-family="sans-serif" font-size="14" font-weight="bold" lengthAdjust="spacing" textLength="116.3682" x="661.25" y="712.1089">Recommended</text><ellipse cx="652.25" cy="725.0591" fill="#FFFFFF" fill-opacity="0.00000" rx="3" ry="3" style="stroke:#038048;stroke-width:1;"/><text fill="#000000" font-family="sans-serif" font-size="14" lengthAdjust="spacing" textLength="283.4658" x="661.25" y="728.4057">dct:license : dct:LicenseDocument [0..1]</text><ellipse cx="652.25" cy="741.3559" fill="#FFFFFF" fill-opacity="0.00000" rx="3" ry="3" style="stroke:#038048;stroke-width:1;"/><text fill="#000000" font-family="sans-serif" font-size="14" lengthAdjust="spacing" textLength="278.5508" x="661.25" y="744.7026">dcatap:availability : skos:Concept [0..1]</text><ellipse cx="652.25" cy="757.6528" fill="#FFFFFF" fill-opacity="0.00000" rx="3" ry="3" style="stroke:#038048;stroke-width:1;"/><text fill="#000000" font-family="sans-serif" font-size="14" lengthAdjust="spacing" textLength="235.9014" x="661.25" y="760.9995">dct:description : rdfs:Literal [0..n]</text><ellipse cx="652.25" cy="773.9497" fill="#FFFFFF" fill-opacity="0.00000" rx="3" ry="3" style="stroke:#038048;stroke-width:1;"/><text fill="#000000" font-family="sans-serif" font-size="14" lengthAdjust="spacing" textLength="294.998" x="661.25" y="777.2964">dct:format : dct:MediaTypeOrExtent [0..1]</text><ellipse cx="652.25" cy="790.2466" fill="#FFFFFF" fill-opacity="0.00000" rx="3" ry="3" style="stroke:#038048;stroke-width:1;"/><text fill="#000000" font-family="sans-serif" font-size="14" lengthAdjust="spacing" textLength="267.3057" x="661.25" y="793.5932">dct:rights : dct:RightsStatement [0..1]</text><ellipse cx="652.25" cy="806.5434" fill="#FFFFFF" fill-opacity="0.00000" rx="3" ry="3" style="stroke:#038048;stroke-width:1;"/><text fill="#000000" font-family="sans-serif" font-size="14" lengthAdjust="spacing" textLength="185.4316" x="661.25" y="809.8901">dct:title : rdfs:Literal [0..n]</text><ellipse cx="652.25" cy="822.8403" fill="#FFFFFF" fill-opacity="0.00000" rx="3" ry="3" style="stroke:#038048;stroke-width:1;"/><text fill="#000000" font-family="sans-serif" font-size="14" lengthAdjust="spacing" textLength="219.3926" x="661.25" y="826.187">dct:modified : rdfs:Literal [0..1]</text><text fill="#000000" font-family="sans-serif" font-size="14" font-weight="bold" lengthAdjust="spacing" textLength="67.2451" x="661.25" y="842.4839">Optional</text><ellipse cx="652.25" cy="855.4341" fill="#FFFFFF" fill-opacity="0.00000" rx="3" ry="3" style="stroke:#038048;stroke-width:1;"/><text fill="#000000" font-family="sans-serif" font-size="14" lengthAdjust="spacing" textLength="310.4951" x="661.25" y="858.7807">dcat:accessService : dcat:DataService [0..n]</text><ellipse cx="652.25" cy="871.7309" fill="#FFFFFF" fill-opacity="0.00000" rx="3" ry="3" style="stroke:#038048;stroke-width:1;"/><text fill="#000000" font-family="sans-serif" font-size="14" lengthAdjust="spacing" textLength="226.6865" x="661.25" y="875.0776">dcat:byteSize : rdfs:Literal [0..1]</text><ellipse cx="652.25" cy="888.0278" fill="#FFFFFF" fill-opacity="0.00000" rx="3" ry="3" style="stroke:#038048;stroke-width:1;"/><text fill="#000000" font-family="sans-serif" font-size="14" lengthAdjust="spacing" textLength="275.5088" x="661.25" y="891.3745">spdx:checksum : spdx:Checksum [0..1]</text><ellipse cx="652.25" cy="904.3247" fill="#FFFFFF" fill-opacity="0.00000" rx="3" ry="3" style="stroke:#038048;stroke-width:1;"/><text fill="#000000" font-family="sans-serif" font-size="14" lengthAdjust="spacing" textLength="226.6045" x="661.25" y="907.6714">foaf:page : foaf:Document [0..n]</text><ellipse cx="652.25" cy="920.6216" fill="#FFFFFF" fill-opacity="0.00000" rx="3" ry="3" style="stroke:#038048;stroke-width:1;"/><text fill="#000000" font-family="sans-serif" font-size="14" lengthAdjust="spacing" textLength="283.2334" x="661.25" y="923.9682">dcat:downloadURL : rdfs:Resource [0..n]</text><ellipse cx="652.25" cy="936.9184" fill="#FFFFFF" fill-opacity="0.00000" rx="3" ry="3" style="stroke:#038048;stroke-width:1;"/><text fill="#000000" font-family="sans-serif" font-size="14" lengthAdjust="spacing" textLength="220.9238" x="661.25" y="940.2651">dct:identifier : rdfs:Literal [0..1]</text><ellipse cx="652.25" cy="953.2153" fill="#FFFFFF" fill-opacity="0.00000" rx="3" ry="3" style="stroke:#038048;stroke-width:1;"/><text fill="#000000" font-family="sans-serif" font-size="14" lengthAdjust="spacing" textLength="394.4063" x="661.25" y="956.562">schema:image : schema:url, schema:ImageObject [0..3]</text><ellipse cx="652.25" cy="969.5122" fill="#FFFFFF" fill-opacity="0.00000" rx="3" ry="3" style="stroke:#038048;stroke-width:1;"/><text fill="#000000" font-family="sans-serif" font-size="14" lengthAdjust="spacing" textLength="293.2207" x="661.25" y="972.8589">dct:language : dct:LinguisticSystem [0..n]</text><ellipse cx="652.25" cy="985.8091" fill="#FFFFFF" fill-opacity="0.00000" rx="3" ry="3" style="stroke:#038048;stroke-width:1;"/><text fill="#000000" font-family="sans-serif" font-size="14" lengthAdjust="spacing" textLength="255.623" x="661.25" y="989.1557">dct:conformsTo : dct:Standard [0..n]</text><ellipse cx="652.25" cy="1002.1059" fill="#FFFFFF" fill-opacity="0.00000" rx="3" ry="3" style="stroke:#038048;stroke-width:1;"/><text fill="#000000" font-family="sans-serif" font-size="14" lengthAdjust="spacing" textLength="272.1934" x="661.25" y="1005.4526">dcat:mediaType : dct:MediaType [0..1]</text><ellipse cx="652.25" cy="1018.4028" fill="#FFFFFF" fill-opacity="0.00000" rx="3" ry="3" style="stroke:#038048;stroke-width:1;"/><text fill="#000000" font-family="sans-serif" font-size="14" lengthAdjust="spacing" textLength="313.8174" x="661.25" y="1021.7495">dcat:packageFormat : dcat:mediaType [0..1]</text><ellipse cx="652.25" cy="1034.6997" fill="#FFFFFF" fill-opacity="0.00000" rx="3" ry="3" style="stroke:#038048;stroke-width:1;"/><text fill="#000000" font-family="sans-serif" font-size="14" lengthAdjust="spacing" textLength="202.9453" x="661.25" y="1038.0464">dct:issued : rdfs:Literal [0..1]</text><ellipse cx="652.25" cy="1050.9966" fill="#FFFFFF" fill-opacity="0.00000" rx="3" ry="3" style="stroke:#038048;stroke-width:1;"/><text fill="#000000" font-family="sans-serif" font-size="14" lengthAdjust="spacing" textLength="274.2783" x="661.25" y="1054.3432">dcat:temporalResolution : xsd:duration</text><ellipse cx="652.25" cy="1067.2934" fill="#FFFFFF" fill-opacity="0.00000" rx="3" ry="3" style="stroke:#038048;stroke-width:1;"/><text fill="#000000" font-family="sans-serif" font-size="14" lengthAdjust="spacing" textLength="380.0918" x="661.25" y="1070.6401">dcatap:applicableLegislation : eli:LegalResource [0..n]</text><ellipse cx="652.25" cy="1083.5903" fill="#FFFFFF" fill-opacity="0.00000" rx="3" ry="3" style="stroke:#038048;stroke-width:1;"/><text fill="#000000" font-family="sans-serif" font-size="14" lengthAdjust="spacing" textLength="225.6201" x="661.25" y="1086.937">odrl:hasPolicy : odrl:Policy [0..1]</text><ellipse cx="652.25" cy="1099.8872" fill="#FFFFFF" fill-opacity="0.00000" rx="3" ry="3" style="stroke:#038048;stroke-width:1;"/><text fill="#000000" font-family="sans-serif" font-size="14" lengthAdjust="spacing" textLength="235.7168" x="661.25" y="1103.2339">adms:status : skos:Concept [0..1]</text><line style="stroke:#181818;stroke-width:0.5;" x1="642.25" x2="1060.6563" y1="1110.5356" y2="1110.5356"/></g><!--class DataService--><g id="elem_DataService"><rect codeLine="107" fill="#F1F1F1" height="178.375" id="DataService" rx="2.5" ry="2.5" style="stroke:#181818;stroke-width:0.5;" width="406.0918" x="779.41" y="1202.98"/><ellipse cx="935.6214" cy="1218.98" fill="#ADD1B2" rx="11" ry="11" style="stroke:#181818;stroke-width:1;"/><path d="M938.5902,1224.6206 Q938.0121,1224.9175 937.3714,1225.0581 Q936.7308,1225.2144 936.0277,1225.2144 Q933.5277,1225.2144 932.1996,1223.5738 Q930.8871,1221.9175 930.8871,1218.7925 Q930.8871,1215.6675 932.1996,1214.0113 Q933.5277,1212.355 936.0277,1212.355 Q936.7308,1212.355 937.3714,1212.5113 Q938.0277,1212.6675 938.5902,1212.9644 L938.5902,1215.6831 Q937.9652,1215.105 937.3714,1214.8394 Q936.7777,1214.5581 936.1527,1214.5581 Q934.8089,1214.5581 934.1214,1215.6363 Q933.4339,1216.6988 933.4339,1218.7925 Q933.4339,1220.8863 934.1214,1221.9644 Q934.8089,1223.0269 936.1527,1223.0269 Q936.7777,1223.0269 937.3714,1222.7613 Q937.9652,1222.48 938.5902,1221.9019 L938.5902,1224.6206 Z " fill="#000000"/><text fill="#000000" font-family="sans-serif" font-size="14" lengthAdjust="spacing" textLength="85.1689" x="956.1214" y="1223.8267">DataService</text><line style="stroke:#181818;stroke-width:0.5;" x1="780.41" x2="1184.5018" y1="1234.98" y2="1234.98"/><text fill="#000000" font-family="sans-serif" font-size="14" font-weight="bold" lengthAdjust="spacing" textLength="85.1553" x="799.41" y="1251.9751">Mandatory</text><ellipse cx="790.41" cy="1264.9253" fill="#FFFFFF" fill-opacity="0.00000" rx="3" ry="3" style="stroke:#038048;stroke-width:1;"/><text fill="#000000" font-family="sans-serif" font-size="14" lengthAdjust="spacing" textLength="277.6143" x="799.41" y="1268.272">dcat:endpointURL : rdfs:Resource [1..n]</text><text fill="#000000" font-family="sans-serif" font-size="14" font-weight="bold" lengthAdjust="spacing" textLength="116.3682" x="799.41" y="1284.5689">Recommended</text><ellipse cx="790.41" cy="1297.5191" fill="#FFFFFF" fill-opacity="0.00000" rx="3" ry="3" style="stroke:#038048;stroke-width:1;"/><text fill="#000000" font-family="sans-serif" font-size="14" lengthAdjust="spacing" textLength="320.9951" x="799.41" y="1300.8657">dct:endpointDescription : rdfs:Resource [0..n]</text><ellipse cx="790.41" cy="1313.8159" fill="#FFFFFF" fill-opacity="0.00000" rx="3" ry="3" style="stroke:#038048;stroke-width:1;"/><text fill="#000000" font-family="sans-serif" font-size="14" lengthAdjust="spacing" textLength="281.9141" x="799.41" y="1317.1626">dcat:servesDataset : dcat:Dataset [0..n]</text><text fill="#000000" font-family="sans-serif" font-size="14" font-weight="bold" lengthAdjust="spacing" textLength="67.2451" x="799.41" y="1333.4595">Optional</text><ellipse cx="790.41" cy="1346.4097" fill="#FFFFFF" fill-opacity="0.00000" rx="3" ry="3" style="stroke:#038048;stroke-width:1;"/><text fill="#000000" font-family="sans-serif" font-size="14" lengthAdjust="spacing" textLength="226.6045" x="799.41" y="1349.7564">foaf:page : foaf:Document [0..n]</text><ellipse cx="790.41" cy="1362.7066" fill="#FFFFFF" fill-opacity="0.00000" rx="3" ry="3" style="stroke:#038048;stroke-width:1;"/><text fill="#000000" font-family="sans-serif" font-size="14" lengthAdjust="spacing" textLength="380.0918" x="799.41" y="1366.0532">dcatap:applicableLegislation : eli:LegalResource [0..n]</text><line style="stroke:#181818;stroke-width:0.5;" x1="780.41" x2="1184.5018" y1="1373.355" y2="1373.355"/></g><!--class DatasetSeries--><g id="elem_DatasetSeries"><rect codeLine="117" fill="#F1F1F1" height="113.1875" id="DatasetSeries" rx="2.5" ry="2.5" style="stroke:#181818;stroke-width:0.5;" width="406.0918" x="129.41" y="817.93"/><ellipse cx="279.2674" cy="833.93" fill="#ADD1B2" rx="11" ry="11" style="stroke:#181818;stroke-width:1;"/><path d="M282.2362,839.5706 Q281.658,839.8675 281.0174,840.0081 Q280.3768,840.1644 279.6737,840.1644 Q277.1737,840.1644 275.8455,838.5238 Q274.533,836.8675 274.533,833.7425 Q274.533,830.6175 275.8455,828.9613 Q277.1737,827.305 279.6737,827.305 Q280.3768,827.305 281.0174,827.4613 Q281.6737,827.6175 282.2362,827.9144 L282.2362,830.6331 Q281.6112,830.055 281.0174,829.7894 Q280.4237,829.5081 279.7987,829.5081 Q278.4549,829.5081 277.7674,830.5863 Q277.0799,831.6488 277.0799,833.7425 Q277.0799,835.8363 277.7674,836.9144 Q278.4549,837.9769 279.7987,837.9769 Q280.4237,837.9769 281.0174,837.7113 Q281.6112,837.43 282.2362,836.8519 L282.2362,839.5706 Z " fill="#000000"/><text fill="#000000" font-family="sans-serif" font-size="14" lengthAdjust="spacing" textLength="97.877" x="299.7674" y="838.7767">DatasetSeries</text><line style="stroke:#181818;stroke-width:0.5;" x1="130.41" x2="534.5018" y1="849.93" y2="849.93"/><text fill="#000000" font-family="sans-serif" font-size="14" font-weight="bold" lengthAdjust="spacing" textLength="67.2451" x="149.41" y="866.9251">Optional</text><ellipse cx="140.41" cy="879.8753" fill="#FFFFFF" fill-opacity="0.00000" rx="3" ry="3" style="stroke:#038048;stroke-width:1;"/><text fill="#000000" font-family="sans-serif" font-size="14" lengthAdjust="spacing" textLength="380.0918" x="149.41" y="883.222">dcatap:applicableLegislation : eli:LegalResource [0..n]</text><ellipse cx="140.41" cy="896.1722" fill="#FFFFFF" fill-opacity="0.00000" rx="3" ry="3" style="stroke:#038048;stroke-width:1;"/><text fill="#000000" font-family="sans-serif" font-size="14" lengthAdjust="spacing" textLength="307.4121" x="149.41" y="899.5189">dct:accrualPeriodicity : dct:Frequency [0..1]</text><ellipse cx="140.41" cy="912.4691" fill="#FFFFFF" fill-opacity="0.00000" rx="3" ry="3" style="stroke:#038048;stroke-width:1;"/><text fill="#000000" font-family="sans-serif" font-size="14" lengthAdjust="spacing" textLength="221.8193" x="149.41" y="915.8157">dct:spatial : rdfs:resource [0..n]</text><line style="stroke:#181818;stroke-width:0.5;" x1="130.41" x2="534.5018" y1="923.1175" y2="923.1175"/></g><!--link CatalogRecord to Resource--><g id="link_CatalogRecord_Resource"><path codeLine="124" d="M237.1,1406.07 C237.1,1424.83 237.1,1438.96 237.1,1459.71 " fill="#FFFFFF" fill-opacity="0.00000" id="CatalogRecord-to-Resource" style="stroke:#181818;stroke-width:1;"/><polygon fill="#181818" points="237.1,1465.71,241.1,1456.71,237.1,1460.71,233.1,1456.71,237.1,1465.71" style="stroke:#181818;stroke-width:1;"/><text fill="#000000" font-family="sans-serif" font-size="13" lengthAdjust="spacing" textLength="115.2354" x="121.1" y="1431.9569">foaf:primaryTopic</text></g><!--link Catalog to Resource--><g id="link_Catalog_Resource"><path codeLine="125" d="M212.36,251.12 C212.36,388.5 212.36,601 212.36,601 C212.36,601 561.94,601 561.94,601 C561.94,601 561.94,1121.54 561.94,1459.37 " fill="#FFFFFF" fill-opacity="0.00000" id="Catalog-to-Resource" style="stroke:#181818;stroke-width:1;"/><polygon fill="#181818" points="561.94,1465.37,565.94,1456.37,561.94,1460.37,557.94,1456.37,561.94,1465.37" style="stroke:#181818;stroke-width:1;"/><text fill="#000000" font-family="sans-serif" font-size="13" lengthAdjust="spacing" textLength="89.6416" x="471.94" y="679.5169">dcat:resource</text></g><!--link Resource to Resource--><g id="link_Resource_Resource"><path codeLine="126" d="M704.31,1465.45 C704.31,1453.24 704.31,1446 704.31,1446 C704.31,1446 743.35,1446 743.35,1446 C743.35,1446 743.35,2030 743.35,2030 C743.35,2030 520.08,2030 520.08,2030 C520.08,2030 520.08,2032.18 520.08,2025.42 " fill="#FFFFFF" fill-opacity="0.00000" id="Resource-to-Resource" style="stroke:#181818;stroke-width:1;"/><polygon fill="#181818" points="520.08,2019.42,516.08,2028.42,520.08,2024.42,524.08,2028.42,520.08,2019.42" style="stroke:#181818;stroke-width:1;"/><text fill="#000000" font-family="sans-serif" font-size="13" lengthAdjust="spacing" textLength="74.1025" x="749.35" y="1816.7469">dct:hasPart</text></g><!--link Resource to Resource--><g id="link_Resource_Resource"><path codeLine="127" d="M683.29,1465.43 C683.29,1441.41 683.29,1426 683.29,1426 C683.29,1426 761.38,1426 761.38,1426 C761.38,1426 761.38,2043 761.38,2043 C761.38,2043 314.83,2043 314.83,2043 C314.83,2043 314.83,2040.12 314.83,2025.41 " fill="#FFFFFF" fill-opacity="0.00000" id="Resource-to-Resource-1" style="stroke:#181818;stroke-width:1;"/><polygon fill="#181818" points="314.83,2019.41,310.83,2028.41,314.83,2024.41,318.83,2028.41,314.83,2019.41" style="stroke:#181818;stroke-width:1;"/><text fill="#000000" font-family="sans-serif" font-size="13" lengthAdjust="spacing" textLength="76.3179" x="767.38" y="1901.8769">dct:isPartOf</text></g><!--link Catalog to Catalog--><g id="link_Catalog_Catalog"><path codeLine="128" d="M332.45,23.13 C332.45,12.73 332.45,6 332.45,6 C332.45,6 105.7,6 105.7,6 C105.7,6 105.7,281 105.7,281 C105.7,281 295.3,281 295.3,281 C295.3,281 295.3,274.48 295.3,256.82 " fill="#FFFFFF" fill-opacity="0.00000" id="Catalog-to-Catalog" style="stroke:#181818;stroke-width:1;"/><polygon fill="#181818" points="295.3,250.82,291.3,259.82,295.3,255.82,299.3,259.82,295.3,250.82" style="stroke:#181818;stroke-width:1;"/><text fill="#000000" font-family="sans-serif" font-size="13" lengthAdjust="spacing" textLength="80.8374" x="19.7" y="122.5169">dcat:catalog</text></g><!--link Dataset to DatasetSeries--><g id="link_Dataset_DatasetSeries"><path codeLine="129" d="M456.87,570.78 C456.87,653.04 456.87,749.22 456.87,811.61 " fill="#FFFFFF" fill-opacity="0.00000" id="Dataset-to-DatasetSeries" style="stroke:#181818;stroke-width:1;"/><polygon fill="#181818" points="456.87,817.61,460.87,808.61,456.87,812.61,452.87,808.61,456.87,817.61" style="stroke:#181818;stroke-width:1;"/><text fill="#000000" font-family="sans-serif" font-size="13" lengthAdjust="spacing" textLength="84.6714" x="371.87" y="690.2669">dcat:inSeries</text></g><!--link Catalog to Dataset--><g id="link_Catalog_Dataset"><path codeLine="130" d="M456.87,250.92 C456.87,270.27 456.87,272.49 456.87,292.23 " fill="#FFFFFF" fill-opacity="0.00000" id="Catalog-to-Dataset" style="stroke:#181818;stroke-width:1;"/><polygon fill="#FFFFFF" fill-opacity="0.00000" points="456.87,310.23,462.87,292.23,450.87,292.23,456.87,310.23" style="stroke:#181818;stroke-width:1;"/></g><!--link Dataset to Distribution--><g id="link_Dataset_Distribution"><path codeLine="131" d="M719.95,570.78 C719.95,589.75 719.95,603.79 719.95,624.15 " fill="#FFFFFF" fill-opacity="0.00000" id="Dataset-to-Distribution" style="stroke:#181818;stroke-width:1;"/><polygon fill="#181818" points="719.95,630.15,723.95,621.15,719.95,625.15,715.95,621.15,719.95,630.15" style="stroke:#181818;stroke-width:1;"/></g><!--link Distribution to DataService--><g id="link_Distribution_DataService"><path codeLine="132" d="M920.53,1118.98 C920.53,1148.75 920.53,1171.52 920.53,1196.78 " fill="#FFFFFF" fill-opacity="0.00000" id="Distribution-to-DataService" style="stroke:#181818;stroke-width:1;"/><polygon fill="#181818" points="920.53,1202.78,924.53,1193.78,920.53,1197.78,916.53,1193.78,920.53,1202.78" style="stroke:#181818;stroke-width:1;"/></g><!--link DataService to Dataset--><g id="link_DataService_Dataset"><path codeLine="133" d="M779.01,1263 C694.09,1263 614.81,1263 614.81,1263 C614.81,1263 614.81,808.8 614.81,576.9 " fill="#FFFFFF" fill-opacity="0.00000" id="DataService-to-Dataset" style="stroke:#181818;stroke-width:1;"/><polygon fill="#181818" points="614.81,570.9,610.81,579.9,614.81,575.9,618.81,579.9,614.81,570.9" style="stroke:#181818;stroke-width:1;"/></g><!--link Catalog to DataService--><g id="link_Catalog_DataService"><path codeLine="134" d="M535.93,138 C770.33,138 1123.58,138 1123.58,138 C1123.58,138 1123.58,925.38 1123.58,1196.56 " fill="#FFFFFF" fill-opacity="0.00000" id="Catalog-to-DataService" style="stroke:#181818;stroke-width:1;"/><polygon fill="#181818" points="1123.58,1202.56,1127.58,1193.56,1123.58,1197.56,1119.58,1193.56,1123.58,1202.56" style="stroke:#181818;stroke-width:1;"/><text fill="#000000" font-family="sans-serif" font-size="13" lengthAdjust="spacing" textLength="79.4092" x="1043.58" y="372.5269">dcat:service</text></g><!--link Catalog to CatalogRecord--><g id="link_Catalog_CatalogRecord"><path codeLine="135" d="M129.11,138 C101.26,138 82,138 82,138 C82,138 82,880.71 82,1172.07 " fill="#FFFFFF" fill-opacity="0.00000" id="Catalog-to-CatalogRecord" style="stroke:#181818;stroke-width:1;"/><polygon fill="#181818" points="82,1178.07,86,1169.07,82,1173.07,78,1169.07,82,1178.07" style="stroke:#181818;stroke-width:1;"/><text fill="#000000" font-family="sans-serif" font-size="13" lengthAdjust="spacing" textLength="74.8833" x="7" y="630.5469">dcat:record</text></g><!--link DatasetSeries to Resource--><g id="link_DatasetSeries_Resource"><path codeLine="136" d="M450.06,931.47 C450.06,1038.28 450.06,1257.1 450.06,1447.39 " fill="#FFFFFF" fill-opacity="0.00000" id="DatasetSeries-to-Resource" style="stroke:#181818;stroke-width:1;"/><polygon fill="#FFFFFF" fill-opacity="0.00000" points="450.06,1465.39,456.06,1447.39,444.06,1447.39,450.06,1465.39" style="stroke:#181818;stroke-width:1;"/></g><!--link DataService to Resource--><g id="link_DataService_Resource"><path codeLine="137" d="M779.22,1322 C715.88,1322 662.27,1322 662.27,1322 C662.27,1322 662.27,1368.79 662.27,1447.5 " fill="#FFFFFF" fill-opacity="0.00000" id="DataService-to-Resource" style="stroke:#181818;stroke-width:1;"/><polygon fill="#FFFFFF" fill-opacity="0.00000" points="662.27,1465.5,668.27,1447.5,656.27,1447.5,662.27,1465.5" style="stroke:#181818;stroke-width:1;"/></g><!--link Dataset to Resource--><g id="link_Dataset_Resource"><path codeLine="138" d="M588.37,570.77 C588.37,778.52 588.37,1171.66 588.37,1447.38 " fill="#FFFFFF" fill-opacity="0.00000" id="Dataset-to-Resource" style="stroke:#181818;stroke-width:1;"/><polygon fill="#FFFFFF" fill-opacity="0.00000" points="588.37,1465.38,594.37,1447.38,582.37,1447.38,588.37,1465.38" style="stroke:#181818;stroke-width:1;"/></g><!--SRC=[hLXDSzis4BtpL_2i9fbuUiEXCwdLT39rAe-adZe-GC1IGaKI203ALjFyzov0K0A_P4fZdmpWOG7ildsxbDcBKb5DYpGN9TYZWbHgkvD9ah2S6fFUKqjpkKs_9xFP4fWi2YWvyDaiIV7l9ywe9Hmn1cnAKZ-SX-7V7pzyA9zgN2PfHdQo04MtW40_dajMeRaQUVSKMJIW3u91R74LfcAhd25KKIjexg6MF4Z42rbsO6Z3xg20DNsHfIoEY3PxQSYzB1aeks9kiTapcosKiq7p-9LK4QfKBXZTvF00Ms7o-YIIGYu8pj1y2KPMkdT9F5qtA-55uqWM71w0ZVy7B3AfUGUsh2S3-4T2DyPgocnQ1_DqgelcLrfYuAG-jcB9P6bnmwCKfGleWL7DoH-YHADtRSTpC4mB5NoWUMR8Wx2WCHPTgE0OPP49qAyXLRN9XTbveEV8fwqdo5rC40oci3cCs1hdwHwEpxNFNF13xD-bnaMVaZbac09y3RfubpwBlTWWYmdQnc5p3lNdT4EHeoT5kNqSetRB5SPKm7jNxoQ0Psk7fJrRXUJEgQzOm_jXtfG6cXIfHoF9XyGIsvqr0RpqWvMbw8O8F9GYbb36m9ZbXFsdBKYtJEh2h6NOW52avPd3aUEMa846T0N_zTWyUIIFV4osLHsG-j4u5COAjZeQl4iBhxGya6yLpRqtFrchnQOAlFPhyLGl-gUDIpWfGiZnUcnsGlNkfy_WomzX6boMTl8X0ackSxAZvb5Yd9rZ_4GOnVwcl334O2WgCyIi5lyEeCrGOdVD1ToVqe8P0iSlSNUashukWPdGfbjDKFu57j6xAEhQLAZISBW8_T6kUK5C1xNInq9fKL1zN4ibMFzL7SaQJTQxa563gZL5C2R7TKAw3IVs9Qdl17bOcSUJSmZNnA5f92xs7fZKKRhMmOtdRkeNy1rGAAbFk4SaYkIBR2sAFc5TQt2W8gSRaGjx70b2txK-SAtQ-EKyw7LFQafvGGdMg4VrTGMhR-CMFcluLg5ujYKXb3waiRSTXfNEJrNnYrjQRFu1LX_syzFrBT5Waeio9DzeHhRa-PcQtw54bjWW_xKmCoiExf5TviGC66zsweBrr_AXhy8NUudhIkfKWjoIRYwRgGtN-0fSq3Nsy0lzsukzjRPVbyglz233lNHm_6fgbu-BcwE5bVWNBWcXKVo586tPtbI5Sx8RtpVZ63arePp0oESobvGFikJZv3xtZPBkkiRccWuBdreq_EdoQQ2MKhR7Itm-qw-rlqkbgLrl45tduBoHz1V32Q-qLvOt-1nxmtOfhbCDSSV51ZL4kQ-gM-IcsJllAyDu6-K-ei7CBtwSz_DpUchS4e9EQGzg__tjlxclBeNjti2xLlSkdxHQm_VlVpcTJdeTOODjeLe_1YJDV0ToQfN70SAlBxBeaEQN0XB_Z904H-Dws-MaLOJFPlvhS6cyDIgdIJm8PWFva-Z_yu7H5UD48V4FFVrdXEQRHBzr9AqNkAisFcaVt9dtJpZF_Gy0]--></g></svg>