<svg xmlns="http://www.w3.org/2000/svg" xmlns:xlink="http://www.w3.org/1999/xlink" contentStyleType="text/css" data-diagram-type="CLASS" height="2035px" preserveAspectRatio="none" style="width:1203px;height:2035px;background:#FFFFFF;" version="1.1" viewBox="0 0 1203 2035" width="1203px" zoomAndPan="magnify"><defs/><g><!--class Catalog--><g id="elem_Catalog"><rect codeLine="4" fill="#F1F1F1" height="227.2656" id="Catalog" rx="2.5" ry="2.5" style="stroke:#181818;stroke-width:0.5;" width="406.0918" x="140.67" y="32.39"/><ellipse cx="312.5836" cy="48.39" fill="#ADD1B2" rx="11" ry="11" style="stroke:#181818;stroke-width:1;"/><path d="M315.5523,54.0306 Q314.9742,54.3275 314.3336,54.4681 Q313.6929,54.6244 312.9898,54.6244 Q310.4898,54.6244 309.1617,52.9838 Q307.8492,51.3275 307.8492,48.2025 Q307.8492,45.0775 309.1617,43.4213 Q310.4898,41.765 312.9898,41.765 Q313.6929,41.765 314.3336,41.9213 Q314.9898,42.0775 315.5523,42.3744 L315.5523,45.0931 Q314.9273,44.515 314.3336,44.2494 Q313.7398,43.9681 313.1148,43.9681 Q311.7711,43.9681 311.0836,45.0463 Q310.3961,46.1088 310.3961,48.2025 Q310.3961,50.2963 311.0836,51.3744 Q311.7711,52.4369 313.1148,52.4369 Q313.7398,52.4369 314.3336,52.1713 Q314.9273,51.89 315.5523,51.3119 L315.5523,54.0306 Z " fill="#000000"/><text fill="#000000" font-family="sans-serif" font-size="14" lengthAdjust="spacing" textLength="53.7646" x="333.0836" y="53.2367">Catalog</text><line style="stroke:#181818;stroke-width:0.5;" x1="141.67" x2="545.7618" y1="64.39" y2="64.39"/><text fill="#000000" font-family="sans-serif" font-size="14" font-weight="bold" lengthAdjust="spacing" textLength="116.3682" x="160.67" y="81.3851">Recommended</text><ellipse cx="151.67" cy="94.3353" fill="#FFFFFF" fill-opacity="0.00000" rx="3" ry="3" style="stroke:#038048;stroke-width:1;"/><text fill="#000000" font-family="sans-serif" font-size="14" lengthAdjust="spacing" textLength="234.165" x="160.67" y="97.682">dcat:dataset : dcat:Dataset [0..n]</text><ellipse cx="151.67" cy="110.6322" fill="#FFFFFF" fill-opacity="0.00000" rx="3" ry="3" style="stroke:#038048;stroke-width:1;"/><text fill="#000000" font-family="sans-serif" font-size="14" lengthAdjust="spacing" textLength="266.3281" x="160.67" y="113.9789">foaf:homepage : foaf:Document [0..1]</text><ellipse cx="151.67" cy="126.9291" fill="#FFFFFF" fill-opacity="0.00000" rx="3" ry="3" style="stroke:#038048;stroke-width:1;"/><text fill="#000000" font-family="sans-serif" font-size="14" lengthAdjust="spacing" textLength="261.7275" x="160.67" y="130.2757">dcat:service : dcat:DataService [0..n]</text><ellipse cx="151.67" cy="143.2259" fill="#FFFFFF" fill-opacity="0.00000" rx="3" ry="3" style="stroke:#038048;stroke-width:1;"/><text fill="#000000" font-family="sans-serif" font-size="14" lengthAdjust="spacing" textLength="215.3184" x="160.67" y="146.5726">dct:spatial : dct:Location [0..n]</text><ellipse cx="151.67" cy="159.5228" fill="#FFFFFF" fill-opacity="0.00000" rx="3" ry="3" style="stroke:#038048;stroke-width:1;"/><text fill="#000000" font-family="sans-serif" font-size="14" lengthAdjust="spacing" textLength="359.8096" x="160.67" y="162.8695">dcat:themeTaxonomy : skos:ConceptScheme [0..n]</text><text fill="#000000" font-family="sans-serif" font-size="14" font-weight="bold" lengthAdjust="spacing" textLength="67.2451" x="160.67" y="179.1664">Optional</text><ellipse cx="151.67" cy="192.1166" fill="#FFFFFF" fill-opacity="0.00000" rx="3" ry="3" style="stroke:#038048;stroke-width:1;"/><text fill="#000000" font-family="sans-serif" font-size="14" lengthAdjust="spacing" textLength="380.0918" x="160.67" y="195.4632">dcatap:applicableLegislation : eli:LegalResource [0..n]</text><ellipse cx="151.67" cy="208.4134" fill="#FFFFFF" fill-opacity="0.00000" rx="3" ry="3" style="stroke:#038048;stroke-width:1;"/><text fill="#000000" font-family="sans-serif" font-size="14" lengthAdjust="spacing" textLength="252.7178" x="160.67" y="211.7601">dcat:resource : dcat:Resource [0..n]</text><ellipse cx="151.67" cy="224.7103" fill="#FFFFFF" fill-opacity="0.00000" rx="3" ry="3" style="stroke:#038048;stroke-width:1;"/><text fill="#000000" font-family="sans-serif" font-size="14" lengthAdjust="spacing" textLength="231.8613" x="160.67" y="228.057">dcat:catalog : dcat:Catalog [0..n]</text><ellipse cx="151.67" cy="241.0072" fill="#FFFFFF" fill-opacity="0.00000" rx="3" ry="3" style="stroke:#038048;stroke-width:1;"/><text fill="#000000" font-family="sans-serif" font-size="14" lengthAdjust="spacing" textLength="274.6953" x="160.67" y="244.3539">dcat:record : dcat:CatalogRecord [0..n]</text><line style="stroke:#181818;stroke-width:0.5;" x1="141.67" x2="545.7618" y1="251.6556" y2="251.6556"/></g><!--class Resource--><g id="elem_Resource"><rect codeLine="17" fill="#F1F1F1" height="553.2031" id="Resource" rx="2.5" ry="2.5" style="stroke:#181818;stroke-width:0.5;" width="615.7432" x="120.84" y="1474.8"/><ellipse cx="391.8918" cy="1490.8" fill="#A9DCDF" rx="11" ry="11" style="stroke:#181818;stroke-width:1;"/><path d="M392.0011,1486.1438 L390.8449,1491.2219 L393.173,1491.2219 L392.0011,1486.1438 Z M390.5168,1483.9094 L393.5011,1483.9094 L396.8605,1496.3 L394.4074,1496.3 L393.6418,1493.2375 L390.3605,1493.2375 L389.6105,1496.3 L387.173,1496.3 L390.5168,1483.9094 Z " fill="#000000"/><text fill="#000000" font-family="sans-serif" font-size="14" font-style="italic" lengthAdjust="spacing" textLength="65.1396" x="412.3918" y="1495.6467">Resource</text><line style="stroke:#181818;stroke-width:0.5;" x1="121.84" x2="735.5832" y1="1506.8" y2="1506.8"/><text fill="#000000" font-family="sans-serif" font-size="14" font-weight="bold" lengthAdjust="spacing" textLength="85.1553" x="140.84" y="1523.7951">Mandatory</text><ellipse cx="131.84" cy="1536.7453" fill="#FFFFFF" fill-opacity="0.00000" rx="3" ry="3" style="stroke:#038048;stroke-width:1;"/><text fill="#000000" font-family="sans-serif" font-size="14" lengthAdjust="spacing" textLength="253.4424" x="140.84" y="1540.092">dcat:contactPoint : vcard:Kind [1..n]</text><ellipse cx="131.84" cy="1553.0422" fill="#FFFFFF" fill-opacity="0.00000" rx="3" ry="3" style="stroke:#038048;stroke-width:1;"/><text fill="#000000" font-family="sans-serif" font-size="14" lengthAdjust="spacing" textLength="235.9014" x="140.84" y="1556.3889">dct:description : rdfs:Literal [1..n]</text><ellipse cx="131.84" cy="1569.3391" fill="#FFFFFF" fill-opacity="0.00000" rx="3" ry="3" style="stroke:#038048;stroke-width:1;"/><text fill="#000000" font-family="sans-serif" font-size="14" lengthAdjust="spacing" textLength="220.8896" x="140.84" y="1572.6857">dct:identifier : rdfs:Literal [1..n]</text><ellipse cx="131.84" cy="1585.6359" fill="#FFFFFF" fill-opacity="0.00000" rx="3" ry="3" style="stroke:#038048;stroke-width:1;"/><text fill="#000000" font-family="sans-serif" font-size="14" lengthAdjust="spacing" textLength="220.6162" x="140.84" y="1588.9826">dct:publisher : foaf:Agent [1..1]</text><ellipse cx="131.84" cy="1601.9328" fill="#FFFFFF" fill-opacity="0.00000" rx="3" ry="3" style="stroke:#038048;stroke-width:1;"/><text fill="#000000" font-family="sans-serif" font-size="14" lengthAdjust="spacing" textLength="185.4316" x="140.84" y="1605.2795">dct:title : rdfs:Literal [1..n]</text><text fill="#000000" font-family="sans-serif" font-size="14" font-weight="bold" lengthAdjust="spacing" textLength="116.3682" x="140.84" y="1621.5764">Recommended</text><ellipse cx="131.84" cy="1634.5266" fill="#FFFFFF" fill-opacity="0.00000" rx="3" ry="3" style="stroke:#038048;stroke-width:1;"/><text fill="#000000" font-family="sans-serif" font-size="14" lengthAdjust="spacing" textLength="589.7432" x="140.84" y="1637.8732">dcat:keyword : skosConcept, schema:DefinedTerm, wikibase:item, rdfs:Litaral [0..n]</text><ellipse cx="131.84" cy="1650.8234" fill="#FFFFFF" fill-opacity="0.00000" rx="3" ry="3" style="stroke:#038048;stroke-width:1;"/><text fill="#000000" font-family="sans-serif" font-size="14" lengthAdjust="spacing" textLength="281.6885" x="140.84" y="1654.1701">dcat:landingPage : foaf:Document [0..n]</text><ellipse cx="131.84" cy="1667.1203" fill="#FFFFFF" fill-opacity="0.00000" rx="3" ry="3" style="stroke:#038048;stroke-width:1;"/><text fill="#000000" font-family="sans-serif" font-size="14" lengthAdjust="spacing" textLength="202.9453" x="140.84" y="1670.467">dct:issued : rdfs:Literal [0..1]</text><ellipse cx="131.84" cy="1683.4172" fill="#FFFFFF" fill-opacity="0.00000" rx="3" ry="3" style="stroke:#038048;stroke-width:1;"/><text fill="#000000" font-family="sans-serif" font-size="14" lengthAdjust="spacing" textLength="230.1455" x="140.84" y="1686.7639">dcat:theme : skos:Concept [0..n]</text><ellipse cx="131.84" cy="1699.7141" fill="#FFFFFF" fill-opacity="0.00000" rx="3" ry="3" style="stroke:#038048;stroke-width:1;"/><text fill="#000000" font-family="sans-serif" font-size="14" lengthAdjust="spacing" textLength="219.3926" x="140.84" y="1703.0607">dct:modified : rdfs:Literal [0..1]</text><ellipse cx="131.84" cy="1716.0109" fill="#FFFFFF" fill-opacity="0.00000" rx="3" ry="3" style="stroke:#038048;stroke-width:1;"/><text fill="#000000" font-family="sans-serif" font-size="14" lengthAdjust="spacing" textLength="283.4658" x="140.84" y="1719.3576">dct:license : dct:LicenseDocument [0..1]</text><ellipse cx="131.84" cy="1732.3078" fill="#FFFFFF" fill-opacity="0.00000" rx="3" ry="3" style="stroke:#038048;stroke-width:1;"/><text fill="#000000" font-family="sans-serif" font-size="14" lengthAdjust="spacing" textLength="267.3057" x="140.84" y="1735.6545">dct:rights : dct:RightsStatement [0..1]</text><text fill="#000000" font-family="sans-serif" font-size="14" font-weight="bold" lengthAdjust="spacing" textLength="67.2451" x="140.84" y="1751.9514">Optional</text><ellipse cx="131.84" cy="1764.9016" fill="#FFFFFF" fill-opacity="0.00000" rx="3" ry="3" style="stroke:#038048;stroke-width:1;"/><text fill="#000000" font-family="sans-serif" font-size="14" lengthAdjust="spacing" textLength="318.4521" x="140.84" y="1768.2482">dct:accessRights : dct:RightsStatement [0..1]</text><ellipse cx="131.84" cy="1781.1984" fill="#FFFFFF" fill-opacity="0.00000" rx="3" ry="3" style="stroke:#038048;stroke-width:1;"/><text fill="#000000" font-family="sans-serif" font-size="14" lengthAdjust="spacing" textLength="255.623" x="140.84" y="1784.5451">dct:conformsTo : dct:Standard [0..n]</text><ellipse cx="131.84" cy="1797.4953" fill="#FFFFFF" fill-opacity="0.00000" rx="3" ry="3" style="stroke:#038048;stroke-width:1;"/><text fill="#000000" font-family="sans-serif" font-size="14" lengthAdjust="spacing" textLength="288.5791" x="140.84" y="1800.842">dct:isReferencedBy : rdfs:Resource [0..n]</text><ellipse cx="131.84" cy="1813.7922" fill="#FFFFFF" fill-opacity="0.00000" rx="3" ry="3" style="stroke:#038048;stroke-width:1;"/><text fill="#000000" font-family="sans-serif" font-size="14" lengthAdjust="spacing" textLength="293.2207" x="140.84" y="1817.1389">dct:language : dct:LinguisticSystem [0..n]</text><ellipse cx="131.84" cy="1830.0891" fill="#FFFFFF" fill-opacity="0.00000" rx="3" ry="3" style="stroke:#038048;stroke-width:1;"/><text fill="#000000" font-family="sans-serif" font-size="14" lengthAdjust="spacing" textLength="338.085" x="140.84" y="1833.4357">prov:qualifiedAttribution : prov:Attribution [0..n]</text><ellipse cx="131.84" cy="1846.3859" fill="#FFFFFF" fill-opacity="0.00000" rx="3" ry="3" style="stroke:#038048;stroke-width:1;"/><text fill="#000000" font-family="sans-serif" font-size="14" lengthAdjust="spacing" textLength="331.0439" x="140.84" y="1849.7326">dcat:qualifiedRelation : dcat:Relationship [0..n]</text><ellipse cx="131.84" cy="1862.6828" fill="#FFFFFF" fill-opacity="0.00000" rx="3" ry="3" style="stroke:#038048;stroke-width:1;"/><text fill="#000000" font-family="sans-serif" font-size="14" lengthAdjust="spacing" textLength="232.8389" x="140.84" y="1866.0295">dct:relation : rdfs:Resource [0..n]</text><ellipse cx="131.84" cy="1878.9797" fill="#FFFFFF" fill-opacity="0.00000" rx="3" ry="3" style="stroke:#038048;stroke-width:1;"/><text fill="#000000" font-family="sans-serif" font-size="14" lengthAdjust="spacing" textLength="206.0762" x="140.84" y="1882.3264">dct:creator : foaf:Agent [0..n]</text><ellipse cx="131.84" cy="1895.2766" fill="#FFFFFF" fill-opacity="0.00000" rx="3" ry="3" style="stroke:#038048;stroke-width:1;"/><text fill="#000000" font-family="sans-serif" font-size="14" lengthAdjust="spacing" textLength="225.6201" x="140.84" y="1898.6232">odrl:hasPolicy : odrl:Policy [0..1]</text><ellipse cx="131.84" cy="1911.5734" fill="#FFFFFF" fill-opacity="0.00000" rx="3" ry="3" style="stroke:#038048;stroke-width:1;"/><text fill="#000000" font-family="sans-serif" font-size="14" lengthAdjust="spacing" textLength="235.7168" x="140.84" y="1914.9201">adms:status : skos:Concept [0..1]</text><ellipse cx="131.84" cy="1927.8703" fill="#FFFFFF" fill-opacity="0.00000" rx="3" ry="3" style="stroke:#038048;stroke-width:1;"/><text fill="#000000" font-family="sans-serif" font-size="14" lengthAdjust="spacing" textLength="217.9502" x="140.84" y="1931.217">dcat:version : rdfs:Literal [0..1]</text><ellipse cx="131.84" cy="1944.1672" fill="#FFFFFF" fill-opacity="0.00000" rx="3" ry="3" style="stroke:#038048;stroke-width:1;"/><text fill="#000000" font-family="sans-serif" font-size="14" lengthAdjust="spacing" textLength="266.0957" x="140.84" y="1947.5139">adms:versionNotes : rdfs:Literal [0..n]</text><ellipse cx="131.84" cy="1960.4641" fill="#FFFFFF" fill-opacity="0.00000" rx="3" ry="3" style="stroke:#038048;stroke-width:1;"/><text fill="#000000" font-family="sans-serif" font-size="14" lengthAdjust="spacing" textLength="235.9834" x="140.84" y="1963.8107">dct:hasPart : dcat:Resource [0..n]</text><ellipse cx="131.84" cy="1976.7609" fill="#FFFFFF" fill-opacity="0.00000" rx="3" ry="3" style="stroke:#038048;stroke-width:1;"/><text fill="#000000" font-family="sans-serif" font-size="14" lengthAdjust="spacing" textLength="251.6787" x="140.84" y="1980.1076">dcat:first : dcat:DatasetSeries [0..1]</text><ellipse cx="131.84" cy="1993.0578" fill="#FFFFFF" fill-opacity="0.00000" rx="3" ry="3" style="stroke:#038048;stroke-width:1;"/><text fill="#000000" font-family="sans-serif" font-size="14" lengthAdjust="spacing" textLength="249.5732" x="140.84" y="1996.4045">dcat:last : dcat:DatasetSeries [0..1]</text><ellipse cx="131.84" cy="2009.3547" fill="#FFFFFF" fill-opacity="0.00000" rx="3" ry="3" style="stroke:#038048;stroke-width:1;"/><text fill="#000000" font-family="sans-serif" font-size="14" lengthAdjust="spacing" textLength="255.8623" x="140.84" y="2012.7014">dcat:prev : dcat:DatasetSeries [0..1]</text><line style="stroke:#181818;stroke-width:0.5;" x1="121.84" x2="735.5832" y1="2020.0031" y2="2020.0031"/></g><!--class CatalogRecord--><g id="elem_CatalogRecord"><rect codeLine="50" fill="#F1F1F1" height="227.2656" id="CatalogRecord" rx="2.5" ry="2.5" style="stroke:#181818;stroke-width:0.5;" width="306.3145" x="69.56" y="1187.53"/><ellipse cx="166.9619" cy="1203.53" fill="#ADD1B2" rx="11" ry="11" style="stroke:#181818;stroke-width:1;"/><path d="M169.9306,1209.1706 Q169.3525,1209.4675 168.7119,1209.6081 Q168.0712,1209.7644 167.3681,1209.7644 Q164.8681,1209.7644 163.54,1208.1238 Q162.2275,1206.4675 162.2275,1203.3425 Q162.2275,1200.2175 163.54,1198.5613 Q164.8681,1196.905 167.3681,1196.905 Q168.0712,1196.905 168.7119,1197.0613 Q169.3681,1197.2175 169.9306,1197.5144 L169.9306,1200.2331 Q169.3056,1199.655 168.7119,1199.3894 Q168.1181,1199.1081 167.4931,1199.1081 Q166.1494,1199.1081 165.4619,1200.1863 Q164.7744,1201.2488 164.7744,1203.3425 Q164.7744,1205.4363 165.4619,1206.5144 Q166.1494,1207.5769 167.4931,1207.5769 Q168.1181,1207.5769 168.7119,1207.3113 Q169.3056,1207.03 169.9306,1206.4519 L169.9306,1209.1706 Z " fill="#000000"/><text fill="#000000" font-family="sans-serif" font-size="14" lengthAdjust="spacing" textLength="103.0107" x="187.4619" y="1208.3767">CatalogRecord</text><line style="stroke:#181818;stroke-width:0.5;" x1="70.56" x2="374.8745" y1="1219.53" y2="1219.53"/><text fill="#000000" font-family="sans-serif" font-size="14" font-weight="bold" lengthAdjust="spacing" textLength="85.1553" x="89.56" y="1236.5251">Mandatory</text><ellipse cx="80.56" cy="1249.4753" fill="#FFFFFF" fill-opacity="0.00000" rx="3" ry="3" style="stroke:#038048;stroke-width:1;"/><text fill="#000000" font-family="sans-serif" font-size="14" lengthAdjust="spacing" textLength="280.3145" x="89.56" y="1252.822">foaf:primaryTopic : dcat:Resource [1..1]</text><ellipse cx="80.56" cy="1265.7722" fill="#FFFFFF" fill-opacity="0.00000" rx="3" ry="3" style="stroke:#038048;stroke-width:1;"/><text fill="#000000" font-family="sans-serif" font-size="14" lengthAdjust="spacing" textLength="219.3926" x="89.56" y="1269.1189">dct:modified : rdfs:Literal [1..1]</text><text fill="#000000" font-family="sans-serif" font-size="14" font-weight="bold" lengthAdjust="spacing" textLength="116.3682" x="89.56" y="1285.4157">Recommended</text><ellipse cx="80.56" cy="1298.3659" fill="#FFFFFF" fill-opacity="0.00000" rx="3" ry="3" style="stroke:#038048;stroke-width:1;"/><text fill="#000000" font-family="sans-serif" font-size="14" lengthAdjust="spacing" textLength="202.9453" x="89.56" y="1301.7126">dct:issued : rdfs:Literal [0..1]</text><ellipse cx="80.56" cy="1314.6628" fill="#FFFFFF" fill-opacity="0.00000" rx="3" ry="3" style="stroke:#038048;stroke-width:1;"/><text fill="#000000" font-family="sans-serif" font-size="14" lengthAdjust="spacing" textLength="235.7168" x="89.56" y="1318.0095">adms:status : skos:Concept [0..1]</text><ellipse cx="80.56" cy="1330.9597" fill="#FFFFFF" fill-opacity="0.00000" rx="3" ry="3" style="stroke:#038048;stroke-width:1;"/><text fill="#000000" font-family="sans-serif" font-size="14" lengthAdjust="spacing" textLength="255.623" x="89.56" y="1334.3064">dct:conformsTo : dct:Standard [0..n]</text><text fill="#000000" font-family="sans-serif" font-size="14" font-weight="bold" lengthAdjust="spacing" textLength="67.2451" x="89.56" y="1350.6032">Optional</text><ellipse cx="80.56" cy="1363.5534" fill="#FFFFFF" fill-opacity="0.00000" rx="3" ry="3" style="stroke:#038048;stroke-width:1;"/><text fill="#000000" font-family="sans-serif" font-size="14" lengthAdjust="spacing" textLength="235.9014" x="89.56" y="1366.9001">dct:description : rdfs:Literal [0..n]</text><ellipse cx="80.56" cy="1379.8503" fill="#FFFFFF" fill-opacity="0.00000" rx="3" ry="3" style="stroke:#038048;stroke-width:1;"/><text fill="#000000" font-family="sans-serif" font-size="14" lengthAdjust="spacing" textLength="185.4316" x="89.56" y="1383.197">dct:title : rdfs:Literal [0..n]</text><ellipse cx="80.56" cy="1396.1472" fill="#FFFFFF" fill-opacity="0.00000" rx="3" ry="3" style="stroke:#038048;stroke-width:1;"/><text fill="#000000" font-family="sans-serif" font-size="14" lengthAdjust="spacing" textLength="223.2412" x="89.56" y="1399.4939">dct:language : rdfs:Literal [0..n]</text><line style="stroke:#181818;stroke-width:0.5;" x1="70.56" x2="374.8745" y1="1406.7956" y2="1406.7956"/></g><!--class Dataset--><g id="elem_Dataset"><rect codeLine="63" fill="#F1F1F1" height="259.8594" id="Dataset" rx="2.5" ry="2.5" style="stroke:#181818;stroke-width:0.5;" width="420.4063" x="389.51" y="319.66"/><ellipse cx="568.051" cy="335.66" fill="#ADD1B2" rx="11" ry="11" style="stroke:#181818;stroke-width:1;"/><path d="M571.0198,341.3006 Q570.4416,341.5975 569.801,341.7381 Q569.1604,341.8944 568.4573,341.8944 Q565.9573,341.8944 564.6291,340.2538 Q563.3166,338.5975 563.3166,335.4725 Q563.3166,332.3475 564.6291,330.6913 Q565.9573,329.035 568.4573,329.035 Q569.1604,329.035 569.801,329.1913 Q570.4573,329.3475 571.0198,329.6444 L571.0198,332.3631 Q570.3948,331.785 569.801,331.5194 Q569.2073,331.2381 568.5823,331.2381 Q567.2385,331.2381 566.551,332.3163 Q565.8635,333.3788 565.8635,335.4725 Q565.8635,337.5663 566.551,338.6444 Q567.2385,339.7069 568.5823,339.7069 Q569.2073,339.7069 569.801,339.4413 Q570.3948,339.16 571.0198,338.5819 L571.0198,341.3006 Z " fill="#000000"/><text fill="#000000" font-family="sans-serif" font-size="14" lengthAdjust="spacing" textLength="54.8242" x="588.551" y="340.5067">Dataset</text><line style="stroke:#181818;stroke-width:0.5;" x1="390.51" x2="808.9163" y1="351.66" y2="351.66"/><text fill="#000000" font-family="sans-serif" font-size="14" font-weight="bold" lengthAdjust="spacing" textLength="116.3682" x="409.51" y="368.6551">Recommended</text><ellipse cx="400.51" cy="381.6053" fill="#FFFFFF" fill-opacity="0.00000" rx="3" ry="3" style="stroke:#038048;stroke-width:1;"/><text fill="#000000" font-family="sans-serif" font-size="14" lengthAdjust="spacing" textLength="287.8682" x="409.51" y="384.952">dcat:distribution : dcat:Distribution [0..n]</text><ellipse cx="400.51" cy="397.9022" fill="#FFFFFF" fill-opacity="0.00000" rx="3" ry="3" style="stroke:#038048;stroke-width:1;"/><text fill="#000000" font-family="sans-serif" font-size="14" lengthAdjust="spacing" textLength="215.3184" x="409.51" y="401.2489">dct:spatial : dct:Location [0..n]</text><ellipse cx="400.51" cy="414.1991" fill="#FFFFFF" fill-opacity="0.00000" rx="3" ry="3" style="stroke:#038048;stroke-width:1;"/><text fill="#000000" font-family="sans-serif" font-size="14" lengthAdjust="spacing" textLength="267.4629" x="409.51" y="417.5457">dct:temporal : dct:PeriodOfTime [0..n]</text><ellipse cx="400.51" cy="430.4959" fill="#FFFFFF" fill-opacity="0.00000" rx="3" ry="3" style="stroke:#038048;stroke-width:1;"/><text fill="#000000" font-family="sans-serif" font-size="14" lengthAdjust="spacing" textLength="278.5508" x="409.51" y="433.8426">dcatap:availability : skos:Concept [0..1]</text><text fill="#000000" font-family="sans-serif" font-size="14" font-weight="bold" lengthAdjust="spacing" textLength="67.2451" x="409.51" y="450.1395">Optional</text><ellipse cx="400.51" cy="463.0897" fill="#FFFFFF" fill-opacity="0.00000" rx="3" ry="3" style="stroke:#038048;stroke-width:1;"/><text fill="#000000" font-family="sans-serif" font-size="14" lengthAdjust="spacing" textLength="224.6836" x="409.51" y="466.4364">adms:identifier : Identifier [0..n]</text><ellipse cx="400.51" cy="479.3866" fill="#FFFFFF" fill-opacity="0.00000" rx="3" ry="3" style="stroke:#038048;stroke-width:1;"/><text fill="#000000" font-family="sans-serif" font-size="14" lengthAdjust="spacing" textLength="226.6045" x="409.51" y="482.7332">foaf:page : foaf:Document [0..n]</text><ellipse cx="400.51" cy="495.6834" fill="#FFFFFF" fill-opacity="0.00000" rx="3" ry="3" style="stroke:#038048;stroke-width:1;"/><text fill="#000000" font-family="sans-serif" font-size="14" lengthAdjust="spacing" textLength="307.4121" x="409.51" y="499.0301">dct:accrualPeriodicity : dct:Frequency [0..1]</text><ellipse cx="400.51" cy="511.9803" fill="#FFFFFF" fill-opacity="0.00000" rx="3" ry="3" style="stroke:#038048;stroke-width:1;"/><text fill="#000000" font-family="sans-serif" font-size="14" lengthAdjust="spacing" textLength="394.4063" x="409.51" y="515.327">schema:image : schema:url, schema:ImageObject [0..3]</text><ellipse cx="400.51" cy="528.2772" fill="#FFFFFF" fill-opacity="0.00000" rx="3" ry="3" style="stroke:#038048;stroke-width:1;"/><text fill="#000000" font-family="sans-serif" font-size="14" lengthAdjust="spacing" textLength="371.2188" x="409.51" y="531.6239">dcatap:applicableLegislation : eli:LegalResorce [0..n]</text><ellipse cx="400.51" cy="544.5741" fill="#FFFFFF" fill-opacity="0.00000" rx="3" ry="3" style="stroke:#038048;stroke-width:1;"/><text fill="#000000" font-family="sans-serif" font-size="14" lengthAdjust="spacing" textLength="280.1025" x="409.51" y="547.9207">dcat:inSeries : dcat:DatasetSeries [0..n]</text><ellipse cx="400.51" cy="560.8709" fill="#FFFFFF" fill-opacity="0.00000" rx="3" ry="3" style="stroke:#038048;stroke-width:1;"/><text fill="#000000" font-family="sans-serif" font-size="14" lengthAdjust="spacing" textLength="300.1797" x="409.51" y="564.2176">prov:wasGeneratedBy : prov:Activity [0..n]</text><line style="stroke:#181818;stroke-width:0.5;" x1="390.51" x2="808.9163" y1="571.5194" y2="571.5194"/></g><!--class Distribution--><g id="elem_Distribution"><rect codeLine="78" fill="#F1F1F1" height="488.0156" id="Distribution" rx="2.5" ry="2.5" style="stroke:#181818;stroke-width:0.5;" width="420.4063" x="652.51" y="639.52"/><ellipse cx="817.6252" cy="655.52" fill="#ADD1B2" rx="11" ry="11" style="stroke:#181818;stroke-width:1;"/><path d="M820.594,661.1606 Q820.0159,661.4575 819.3752,661.5981 Q818.7346,661.7544 818.0315,661.7544 Q815.5315,661.7544 814.2034,660.1138 Q812.8909,658.4575 812.8909,655.3325 Q812.8909,652.2075 814.2034,650.5513 Q815.5315,648.895 818.0315,648.895 Q818.7346,648.895 819.3752,649.0513 Q820.0315,649.2075 820.594,649.5044 L820.594,652.2231 Q819.969,651.645 819.3752,651.3794 Q818.7815,651.0981 818.1565,651.0981 Q816.8127,651.0981 816.1252,652.1763 Q815.4377,653.2388 815.4377,655.3325 Q815.4377,657.4263 816.1252,658.5044 Q816.8127,659.5669 818.1565,659.5669 Q818.7815,659.5669 819.3752,659.3013 Q819.969,659.02 820.594,658.4419 L820.594,661.1606 Z " fill="#000000"/><text fill="#000000" font-family="sans-serif" font-size="14" lengthAdjust="spacing" textLength="81.6758" x="838.1252" y="660.3667">Distribution</text><line style="stroke:#181818;stroke-width:0.5;" x1="653.51" x2="1071.9163" y1="671.52" y2="671.52"/><text fill="#000000" font-family="sans-serif" font-size="14" font-weight="bold" lengthAdjust="spacing" textLength="85.1553" x="672.51" y="688.5151">Mandatory</text><ellipse cx="663.51" cy="701.4653" fill="#FFFFFF" fill-opacity="0.00000" rx="3" ry="3" style="stroke:#038048;stroke-width:1;"/><text fill="#000000" font-family="sans-serif" font-size="14" lengthAdjust="spacing" textLength="262.7119" x="672.51" y="704.812">dcat:accessURL : rdfs:Resource [1..n]</text><text fill="#000000" font-family="sans-serif" font-size="14" font-weight="bold" lengthAdjust="spacing" textLength="116.3682" x="672.51" y="721.1089">Recommended</text><ellipse cx="663.51" cy="734.0591" fill="#FFFFFF" fill-opacity="0.00000" rx="3" ry="3" style="stroke:#038048;stroke-width:1;"/><text fill="#000000" font-family="sans-serif" font-size="14" lengthAdjust="spacing" textLength="283.4658" x="672.51" y="737.4057">dct:license : dct:LicenseDocument [0..1]</text><ellipse cx="663.51" cy="750.3559" fill="#FFFFFF" fill-opacity="0.00000" rx="3" ry="3" style="stroke:#038048;stroke-width:1;"/><text fill="#000000" font-family="sans-serif" font-size="14" lengthAdjust="spacing" textLength="278.5508" x="672.51" y="753.7026">dcatap:availability : skos:Concept [0..1]</text><ellipse cx="663.51" cy="766.6528" fill="#FFFFFF" fill-opacity="0.00000" rx="3" ry="3" style="stroke:#038048;stroke-width:1;"/><text fill="#000000" font-family="sans-serif" font-size="14" lengthAdjust="spacing" textLength="235.9014" x="672.51" y="769.9995">dct:description : rdfs:Literal [0..n]</text><ellipse cx="663.51" cy="782.9497" fill="#FFFFFF" fill-opacity="0.00000" rx="3" ry="3" style="stroke:#038048;stroke-width:1;"/><text fill="#000000" font-family="sans-serif" font-size="14" lengthAdjust="spacing" textLength="294.998" x="672.51" y="786.2964">dct:format : dct:MediaTypeOrExtent [0..1]</text><ellipse cx="663.51" cy="799.2466" fill="#FFFFFF" fill-opacity="0.00000" rx="3" ry="3" style="stroke:#038048;stroke-width:1;"/><text fill="#000000" font-family="sans-serif" font-size="14" lengthAdjust="spacing" textLength="267.3057" x="672.51" y="802.5932">dct:rights : dct:RightsStatement [0..1]</text><ellipse cx="663.51" cy="815.5434" fill="#FFFFFF" fill-opacity="0.00000" rx="3" ry="3" style="stroke:#038048;stroke-width:1;"/><text fill="#000000" font-family="sans-serif" font-size="14" lengthAdjust="spacing" textLength="185.4316" x="672.51" y="818.8901">dct:title : rdfs:Literal [0..n]</text><ellipse cx="663.51" cy="831.8403" fill="#FFFFFF" fill-opacity="0.00000" rx="3" ry="3" style="stroke:#038048;stroke-width:1;"/><text fill="#000000" font-family="sans-serif" font-size="14" lengthAdjust="spacing" textLength="219.3926" x="672.51" y="835.187">dct:modified : rdfs:Literal [0..1]</text><text fill="#000000" font-family="sans-serif" font-size="14" font-weight="bold" lengthAdjust="spacing" textLength="67.2451" x="672.51" y="851.4839">Optional</text><ellipse cx="663.51" cy="864.4341" fill="#FFFFFF" fill-opacity="0.00000" rx="3" ry="3" style="stroke:#038048;stroke-width:1;"/><text fill="#000000" font-family="sans-serif" font-size="14" lengthAdjust="spacing" textLength="310.4951" x="672.51" y="867.7807">dcat:accessService : dcat:DataService [0..n]</text><ellipse cx="663.51" cy="880.7309" fill="#FFFFFF" fill-opacity="0.00000" rx="3" ry="3" style="stroke:#038048;stroke-width:1;"/><text fill="#000000" font-family="sans-serif" font-size="14" lengthAdjust="spacing" textLength="226.6865" x="672.51" y="884.0776">dcat:byteSize : rdfs:Literal [0..1]</text><ellipse cx="663.51" cy="897.0278" fill="#FFFFFF" fill-opacity="0.00000" rx="3" ry="3" style="stroke:#038048;stroke-width:1;"/><text fill="#000000" font-family="sans-serif" font-size="14" lengthAdjust="spacing" textLength="275.5088" x="672.51" y="900.3745">spdx:checksum : spdx:Checksum [0..1]</text><ellipse cx="663.51" cy="913.3247" fill="#FFFFFF" fill-opacity="0.00000" rx="3" ry="3" style="stroke:#038048;stroke-width:1;"/><text fill="#000000" font-family="sans-serif" font-size="14" lengthAdjust="spacing" textLength="226.6045" x="672.51" y="916.6714">foaf:page : foaf:Document [0..n]</text><ellipse cx="663.51" cy="929.6216" fill="#FFFFFF" fill-opacity="0.00000" rx="3" ry="3" style="stroke:#038048;stroke-width:1;"/><text fill="#000000" font-family="sans-serif" font-size="14" lengthAdjust="spacing" textLength="283.2334" x="672.51" y="932.9682">dcat:downloadURL : rdfs:Resource [0..n]</text><ellipse cx="663.51" cy="945.9184" fill="#FFFFFF" fill-opacity="0.00000" rx="3" ry="3" style="stroke:#038048;stroke-width:1;"/><text fill="#000000" font-family="sans-serif" font-size="14" lengthAdjust="spacing" textLength="220.9238" x="672.51" y="949.2651">dct:identifier : rdfs:Literal [0..1]</text><ellipse cx="663.51" cy="962.2153" fill="#FFFFFF" fill-opacity="0.00000" rx="3" ry="3" style="stroke:#038048;stroke-width:1;"/><text fill="#000000" font-family="sans-serif" font-size="14" lengthAdjust="spacing" textLength="394.4063" x="672.51" y="965.562">schema:image : schema:url, schema:ImageObject [0..3]</text><ellipse cx="663.51" cy="978.5122" fill="#FFFFFF" fill-opacity="0.00000" rx="3" ry="3" style="stroke:#038048;stroke-width:1;"/><text fill="#000000" font-family="sans-serif" font-size="14" lengthAdjust="spacing" textLength="293.2207" x="672.51" y="981.8589">dct:language : dct:LinguisticSystem [0..n]</text><ellipse cx="663.51" cy="994.8091" fill="#FFFFFF" fill-opacity="0.00000" rx="3" ry="3" style="stroke:#038048;stroke-width:1;"/><text fill="#000000" font-family="sans-serif" font-size="14" lengthAdjust="spacing" textLength="255.623" x="672.51" y="998.1557">dct:conformsTo : dct:Standard [0..n]</text><ellipse cx="663.51" cy="1011.1059" fill="#FFFFFF" fill-opacity="0.00000" rx="3" ry="3" style="stroke:#038048;stroke-width:1;"/><text fill="#000000" font-family="sans-serif" font-size="14" lengthAdjust="spacing" textLength="272.1934" x="672.51" y="1014.4526">dcat:mediaType : dct:MediaType [0..1]</text><ellipse cx="663.51" cy="1027.4028" fill="#FFFFFF" fill-opacity="0.00000" rx="3" ry="3" style="stroke:#038048;stroke-width:1;"/><text fill="#000000" font-family="sans-serif" font-size="14" lengthAdjust="spacing" textLength="313.8174" x="672.51" y="1030.7495">dcat:packageFormat : dcat:mediaType [0..1]</text><ellipse cx="663.51" cy="1043.6997" fill="#FFFFFF" fill-opacity="0.00000" rx="3" ry="3" style="stroke:#038048;stroke-width:1;"/><text fill="#000000" font-family="sans-serif" font-size="14" lengthAdjust="spacing" textLength="202.9453" x="672.51" y="1047.0464">dct:issued : rdfs:Literal [0..1]</text><ellipse cx="663.51" cy="1059.9966" fill="#FFFFFF" fill-opacity="0.00000" rx="3" ry="3" style="stroke:#038048;stroke-width:1;"/><text fill="#000000" font-family="sans-serif" font-size="14" lengthAdjust="spacing" textLength="274.2783" x="672.51" y="1063.3432">dcat:temporalResolution : xsd:duration</text><ellipse cx="663.51" cy="1076.2934" fill="#FFFFFF" fill-opacity="0.00000" rx="3" ry="3" style="stroke:#038048;stroke-width:1;"/><text fill="#000000" font-family="sans-serif" font-size="14" lengthAdjust="spacing" textLength="380.0918" x="672.51" y="1079.6401">dcatap:applicableLegislation : eli:LegalResource [0..n]</text><ellipse cx="663.51" cy="1092.5903" fill="#FFFFFF" fill-opacity="0.00000" rx="3" ry="3" style="stroke:#038048;stroke-width:1;"/><text fill="#000000" font-family="sans-serif" font-size="14" lengthAdjust="spacing" textLength="225.6201" x="672.51" y="1095.937">odrl:hasPolicy : odrl:Policy [0..1]</text><ellipse cx="663.51" cy="1108.8872" fill="#FFFFFF" fill-opacity="0.00000" rx="3" ry="3" style="stroke:#038048;stroke-width:1;"/><text fill="#000000" font-family="sans-serif" font-size="14" lengthAdjust="spacing" textLength="235.7168" x="672.51" y="1112.2339">adms:status : skos:Concept [0..1]</text><line style="stroke:#181818;stroke-width:0.5;" x1="653.51" x2="1071.9163" y1="1119.5356" y2="1119.5356"/></g><!--class DataService--><g id="elem_DataService"><rect codeLine="107" fill="#F1F1F1" height="178.375" id="DataService" rx="2.5" ry="2.5" style="stroke:#181818;stroke-width:0.5;" width="406.0918" x="790.67" y="1211.98"/><ellipse cx="946.8814" cy="1227.98" fill="#ADD1B2" rx="11" ry="11" style="stroke:#181818;stroke-width:1;"/><path d="M949.8502,1233.6206 Q949.2721,1233.9175 948.6314,1234.0581 Q947.9908,1234.2144 947.2877,1234.2144 Q944.7877,1234.2144 943.4596,1232.5738 Q942.1471,1230.9175 942.1471,1227.7925 Q942.1471,1224.6675 943.4596,1223.0113 Q944.7877,1221.355 947.2877,1221.355 Q947.9908,1221.355 948.6314,1221.5113 Q949.2877,1221.6675 949.8502,1221.9644 L949.8502,1224.6831 Q949.2252,1224.105 948.6314,1223.8394 Q948.0377,1223.5581 947.4127,1223.5581 Q946.0689,1223.5581 945.3814,1224.6363 Q944.6939,1225.6988 944.6939,1227.7925 Q944.6939,1229.8863 945.3814,1230.9644 Q946.0689,1232.0269 947.4127,1232.0269 Q948.0377,1232.0269 948.6314,1231.7613 Q949.2252,1231.48 949.8502,1230.9019 L949.8502,1233.6206 Z " fill="#000000"/><text fill="#000000" font-family="sans-serif" font-size="14" lengthAdjust="spacing" textLength="85.1689" x="967.3814" y="1232.8267">DataService</text><line style="stroke:#181818;stroke-width:0.5;" x1="791.67" x2="1195.7618" y1="1243.98" y2="1243.98"/><text fill="#000000" font-family="sans-serif" font-size="14" font-weight="bold" lengthAdjust="spacing" textLength="85.1553" x="810.67" y="1260.9751">Mandatory</text><ellipse cx="801.67" cy="1273.9253" fill="#FFFFFF" fill-opacity="0.00000" rx="3" ry="3" style="stroke:#038048;stroke-width:1;"/><text fill="#000000" font-family="sans-serif" font-size="14" lengthAdjust="spacing" textLength="277.6143" x="810.67" y="1277.272">dcat:endpointURL : rdfs:Resource [1..n]</text><text fill="#000000" font-family="sans-serif" font-size="14" font-weight="bold" lengthAdjust="spacing" textLength="116.3682" x="810.67" y="1293.5689">Recommended</text><ellipse cx="801.67" cy="1306.5191" fill="#FFFFFF" fill-opacity="0.00000" rx="3" ry="3" style="stroke:#038048;stroke-width:1;"/><text fill="#000000" font-family="sans-serif" font-size="14" lengthAdjust="spacing" textLength="320.9951" x="810.67" y="1309.8657">dct:endpointDescription : rdfs:Resource [0..n]</text><ellipse cx="801.67" cy="1322.8159" fill="#FFFFFF" fill-opacity="0.00000" rx="3" ry="3" style="stroke:#038048;stroke-width:1;"/><text fill="#000000" font-family="sans-serif" font-size="14" lengthAdjust="spacing" textLength="281.9141" x="810.67" y="1326.1626">dcat:servesDataset : dcat:Dataset [0..n]</text><text fill="#000000" font-family="sans-serif" font-size="14" font-weight="bold" lengthAdjust="spacing" textLength="67.2451" x="810.67" y="1342.4595">Optional</text><ellipse cx="801.67" cy="1355.4097" fill="#FFFFFF" fill-opacity="0.00000" rx="3" ry="3" style="stroke:#038048;stroke-width:1;"/><text fill="#000000" font-family="sans-serif" font-size="14" lengthAdjust="spacing" textLength="226.6045" x="810.67" y="1358.7564">foaf:page : foaf:Document [0..n]</text><ellipse cx="801.67" cy="1371.7066" fill="#FFFFFF" fill-opacity="0.00000" rx="3" ry="3" style="stroke:#038048;stroke-width:1;"/><text fill="#000000" font-family="sans-serif" font-size="14" lengthAdjust="spacing" textLength="380.0918" x="810.67" y="1375.0532">dcatap:applicableLegislation : eli:LegalResource [0..n]</text><line style="stroke:#181818;stroke-width:0.5;" x1="791.67" x2="1195.7618" y1="1382.355" y2="1382.355"/></g><!--class DatasetSeries--><g id="elem_DatasetSeries"><rect codeLine="117" fill="#F1F1F1" height="113.1875" id="DatasetSeries" rx="2.5" ry="2.5" style="stroke:#181818;stroke-width:0.5;" width="406.0918" x="140.67" y="826.93"/><ellipse cx="290.5274" cy="842.93" fill="#ADD1B2" rx="11" ry="11" style="stroke:#181818;stroke-width:1;"/><path d="M293.4962,848.5706 Q292.918,848.8675 292.2774,849.0081 Q291.6368,849.1644 290.9337,849.1644 Q288.4337,849.1644 287.1055,847.5238 Q285.793,845.8675 285.793,842.7425 Q285.793,839.6175 287.1055,837.9613 Q288.4337,836.305 290.9337,836.305 Q291.6368,836.305 292.2774,836.4613 Q292.9337,836.6175 293.4962,836.9144 L293.4962,839.6331 Q292.8712,839.055 292.2774,838.7894 Q291.6837,838.5081 291.0587,838.5081 Q289.7149,838.5081 289.0274,839.5863 Q288.3399,840.6488 288.3399,842.7425 Q288.3399,844.8363 289.0274,845.9144 Q289.7149,846.9769 291.0587,846.9769 Q291.6837,846.9769 292.2774,846.7113 Q292.8712,846.43 293.4962,845.8519 L293.4962,848.5706 Z " fill="#000000"/><text fill="#000000" font-family="sans-serif" font-size="14" lengthAdjust="spacing" textLength="97.877" x="311.0274" y="847.7767">DatasetSeries</text><line style="stroke:#181818;stroke-width:0.5;" x1="141.67" x2="545.7618" y1="858.93" y2="858.93"/><text fill="#000000" font-family="sans-serif" font-size="14" font-weight="bold" lengthAdjust="spacing" textLength="67.2451" x="160.67" y="875.9251">Optional</text><ellipse cx="151.67" cy="888.8753" fill="#FFFFFF" fill-opacity="0.00000" rx="3" ry="3" style="stroke:#038048;stroke-width:1;"/><text fill="#000000" font-family="sans-serif" font-size="14" lengthAdjust="spacing" textLength="380.0918" x="160.67" y="892.222">dcatap:applicableLegislation : eli:LegalResource [0..n]</text><ellipse cx="151.67" cy="905.1722" fill="#FFFFFF" fill-opacity="0.00000" rx="3" ry="3" style="stroke:#038048;stroke-width:1;"/><text fill="#000000" font-family="sans-serif" font-size="14" lengthAdjust="spacing" textLength="307.4121" x="160.67" y="908.5189">dct:accrualPeriodicity : dct:Frequency [0..1]</text><ellipse cx="151.67" cy="921.4691" fill="#FFFFFF" fill-opacity="0.00000" rx="3" ry="3" style="stroke:#038048;stroke-width:1;"/><text fill="#000000" font-family="sans-serif" font-size="14" lengthAdjust="spacing" textLength="221.8193" x="160.67" y="924.8157">dct:spatial : rdfs:resource [0..n]</text><line style="stroke:#181818;stroke-width:0.5;" x1="141.67" x2="545.7618" y1="932.1175" y2="932.1175"/></g><!--link CatalogRecord to Resource--><g id="link_CatalogRecord_Resource"><path codeLine="124" d="M248.36,1415.07 C248.36,1433.83 248.36,1447.96 248.36,1468.71 " fill="#FFFFFF" fill-opacity="0.00000" id="CatalogRecord-to-Resource" style="stroke:#181818;stroke-width:1;"/><polygon fill="#181818" points="248.36,1474.71,252.36,1465.71,248.36,1469.71,244.36,1465.71,248.36,1474.71" style="stroke:#181818;stroke-width:1;"/><text fill="#000000" font-family="sans-serif" font-size="13" lengthAdjust="spacing" textLength="115.2354" x="132.36" y="1440.9569">foaf:primaryTopic</text></g><!--link Catalog to Resource--><g id="link_Catalog_Resource"><path codeLine="125" d="M190.44,260.12 C190.44,397.5 190.44,610 190.44,610 C190.44,610 573.2,610 573.2,610 C573.2,610 573.2,1130.54 573.2,1468.37 " fill="#FFFFFF" fill-opacity="0.00000" id="Catalog-to-Resource" style="stroke:#181818;stroke-width:1;"/><polygon fill="#181818" points="573.2,1474.37,577.2,1465.37,573.2,1469.37,569.2,1465.37,573.2,1474.37" style="stroke:#181818;stroke-width:1;"/><text fill="#000000" font-family="sans-serif" font-size="13" lengthAdjust="spacing" textLength="89.6416" x="483.2" y="671.9269">dcat:resource</text></g><!--link Catalog to Catalog--><g id="link_Catalog_Catalog"><path codeLine="126" d="M242.19,32.01 C242.19,26.98 242.19,24 242.19,24 C242.19,24 126.44,24 126.44,24 C126.44,24 126.44,275 126.44,275 C126.44,275 240.2,275 240.2,275 C240.2,275 240.2,275.15 240.2,265.95 " fill="#FFFFFF" fill-opacity="0.00000" id="Catalog-to-Catalog" style="stroke:#181818;stroke-width:1;"/><polygon fill="#181818" points="240.2,259.95,236.2,268.95,240.2,264.95,244.2,268.95,240.2,259.95" style="stroke:#181818;stroke-width:1;"/><text fill="#000000" font-family="sans-serif" font-size="13" lengthAdjust="spacing" textLength="74.1025" x="46.44" y="170.0969">dct:hasPart</text></g><!--link Catalog to Catalog--><g id="link_Catalog_Catalog"><path codeLine="127" d="M343.71,32.13 C343.71,21.73 343.71,15 343.71,15 C343.71,15 112.22,15 112.22,15 C112.22,15 112.22,290 112.22,290 C112.22,290 289.97,290 289.97,290 C289.97,290 289.97,283.48 289.97,265.82 " fill="#FFFFFF" fill-opacity="0.00000" id="Catalog-to-Catalog-1" style="stroke:#181818;stroke-width:1;"/><polygon fill="#181818" points="289.97,259.82,285.97,268.82,289.97,264.82,293.97,268.82,289.97,259.82" style="stroke:#181818;stroke-width:1;"/><text fill="#000000" font-family="sans-serif" font-size="13" lengthAdjust="spacing" textLength="76.3179" x="30.22" y="123.2269">dct:isPartOf</text></g><!--link Catalog to Catalog--><g id="link_Catalog_Catalog"><path codeLine="128" d="M445.24,32.01 C445.24,16.62 445.24,6 445.24,6 C445.24,6 98,6 98,6 C98,6 98,305 98,305 C98,305 339.74,305 339.74,305 C339.74,305 339.74,291.35 339.74,265.87 " fill="#FFFFFF" fill-opacity="0.00000" id="Catalog-to-Catalog-2" style="stroke:#181818;stroke-width:1;"/><polygon fill="#181818" points="339.74,259.87,335.74,268.87,339.74,264.87,343.74,268.87,339.74,259.87" style="stroke:#181818;stroke-width:1;"/><text fill="#000000" font-family="sans-serif" font-size="13" lengthAdjust="spacing" textLength="80.8374" x="12" y="103.3769">dcat:catalog</text></g><!--link Dataset to DatasetSeries--><g id="link_Dataset_DatasetSeries"><path codeLine="129" d="M468.13,579.78 C468.13,662.04 468.13,758.22 468.13,820.61 " fill="#FFFFFF" fill-opacity="0.00000" id="Dataset-to-DatasetSeries" style="stroke:#181818;stroke-width:1;"/><polygon fill="#181818" points="468.13,826.61,472.13,817.61,468.13,821.61,464.13,817.61,468.13,826.61" style="stroke:#181818;stroke-width:1;"/><text fill="#000000" font-family="sans-serif" font-size="13" lengthAdjust="spacing" textLength="84.6714" x="383.13" y="699.2669">dcat:inSeries</text></g><!--link Catalog to Dataset--><g id="link_Catalog_Dataset"><path codeLine="130" d="M468.13,259.92 C468.13,279.27 468.13,293.49 468.13,313.23 " fill="#FFFFFF" fill-opacity="0.00000" id="Catalog-to-Dataset" style="stroke:#181818;stroke-width:1;"/><polygon fill="#181818" points="468.13,319.23,472.13,310.23,468.13,314.23,464.13,310.23,468.13,319.23" style="stroke:#181818;stroke-width:1;"/><text fill="#000000" font-family="sans-serif" font-size="13" lengthAdjust="spacing" textLength="81.9927" x="386.13" y="285.6369">dcat:dataset</text></g><!--link Dataset to Distribution--><g id="link_Dataset_Distribution"><path codeLine="131" d="M731.21,579.78 C731.21,598.75 731.21,612.79 731.21,633.15 " fill="#FFFFFF" fill-opacity="0.00000" id="Dataset-to-Distribution" style="stroke:#181818;stroke-width:1;"/><polygon fill="#181818" points="731.21,639.15,735.21,630.15,731.21,634.15,727.21,630.15,731.21,639.15" style="stroke:#181818;stroke-width:1;"/><text fill="#000000" font-family="sans-serif" font-size="13" lengthAdjust="spacing" textLength="106.9263" x="624.21" y="605.5269">dcat:distribution</text></g><!--link Distribution to DataService--><g id="link_Distribution_DataService"><path codeLine="132" d="M931.79,1127.98 C931.79,1157.75 931.79,1180.52 931.79,1205.78 " fill="#FFFFFF" fill-opacity="0.00000" id="Distribution-to-DataService" style="stroke:#181818;stroke-width:1;"/><polygon fill="#181818" points="931.79,1211.78,935.79,1202.78,931.79,1206.78,927.79,1202.78,931.79,1211.78" style="stroke:#181818;stroke-width:1;"/><text fill="#000000" font-family="sans-serif" font-size="13" lengthAdjust="spacing" textLength="124.6934" x="806.79" y="1165.9469">dcat:accessService</text></g><!--link DataService to Dataset--><g id="link_DataService_Dataset"><path codeLine="133" d="M790.27,1272 C705.34,1272 626.07,1272 626.07,1272 C626.07,1272 626.07,817.8 626.07,585.9 " fill="#FFFFFF" fill-opacity="0.00000" id="DataService-to-Dataset" style="stroke:#181818;stroke-width:1;"/><polygon fill="#181818" points="626.07,579.9,622.07,588.9,626.07,584.9,630.07,588.9,626.07,579.9" style="stroke:#181818;stroke-width:1;"/></g><!--link Catalog to DataService--><g id="link_Catalog_DataService"><path codeLine="134" d="M547.19,147 C781.59,147 1134.84,147 1134.84,147 C1134.84,147 1134.84,934.38 1134.84,1205.56 " fill="#FFFFFF" fill-opacity="0.00000" id="Catalog-to-DataService" style="stroke:#181818;stroke-width:1;"/><polygon fill="#181818" points="1134.84,1211.56,1138.84,1202.56,1134.84,1206.56,1130.84,1202.56,1134.84,1211.56" style="stroke:#181818;stroke-width:1;"/><text fill="#000000" font-family="sans-serif" font-size="13" lengthAdjust="spacing" textLength="79.4092" x="1054.84" y="381.5269">dcat:service</text></g><!--link Catalog to CatalogRecord--><g id="link_Catalog_CatalogRecord"><path codeLine="135" d="M140.18,147 C107.29,147 83.78,147 83.78,147 C83.78,147 83.78,889.71 83.78,1181.07 " fill="#FFFFFF" fill-opacity="0.00000" id="Catalog-to-CatalogRecord" style="stroke:#181818;stroke-width:1;"/><polygon fill="#181818" points="83.78,1187.07,87.78,1178.07,83.78,1182.07,79.78,1178.07,83.78,1187.07" style="stroke:#181818;stroke-width:1;"/><text fill="#000000" font-family="sans-serif" font-size="13" lengthAdjust="spacing" textLength="74.8833" x="8.78" y="634.9069">dcat:record</text></g><!--link DatasetSeries to Resource--><g id="link_DatasetSeries_Resource"><path codeLine="136" d="M461.31,940.47 C461.31,1047.28 461.31,1266.1 461.31,1456.39 " fill="#FFFFFF" fill-opacity="0.00000" id="DatasetSeries-to-Resource" style="stroke:#181818;stroke-width:1;"/><polygon fill="#FFFFFF" fill-opacity="0.00000" points="461.31,1474.39,467.31,1456.39,455.31,1456.39,461.31,1474.39" style="stroke:#181818;stroke-width:1;"/></g><!--link DataService to Resource--><g id="link_DataService_Resource"><path codeLine="137" d="M790.44,1331 C737.28,1331 694.55,1331 694.55,1331 C694.55,1331 694.55,1377.79 694.55,1456.5 " fill="#FFFFFF" fill-opacity="0.00000" id="DataService-to-Resource" style="stroke:#181818;stroke-width:1;"/><polygon fill="#FFFFFF" fill-opacity="0.00000" points="694.55,1474.5,700.55,1456.5,688.55,1456.5,694.55,1474.5" style="stroke:#181818;stroke-width:1;"/></g><!--link Dataset to Resource--><g id="link_Dataset_Resource"><path codeLine="138" d="M599.63,579.77 C599.63,787.52 599.63,1180.66 599.63,1456.38 " fill="#FFFFFF" fill-opacity="0.00000" id="Dataset-to-Resource" style="stroke:#181818;stroke-width:1;"/><polygon fill="#FFFFFF" fill-opacity="0.00000" points="599.63,1474.38,605.63,1456.38,593.63,1456.38,599.63,1474.38" style="stroke:#181818;stroke-width:1;"/></g><!--SRC=[hLXDSzis4BtpL_2infbuSiEXCwdLT39nQe-adZe-GC1IGaKI203ALjFyzov0K0A_P4fZtG0yB83Tjs-NCZjHAgffaUQY17jGa4fjjp994fPJOz8xQcakD-cFP3PR09D50IK7FfibAVv-uOnQmX5ZmAOazSDv6FxzuVtxygd6PP9cP2iBK7G32FJZkMGLcgkHjq-HHGDwBnZ45fTXAhRA6K8LjOBc7ch9lKIya6K7XZRi5WfOqHTPokA0QBEJXjp9ae6oI-OMcpspsODoDcWUlv8gGfNA1QFh7EvX8qnUdqHIo0N16PelmCXAzow9f-jc9Rne7Cc2mmEmyV-0HIOrxy0MzMG0_qpesbXDcKthO1vFTT7yHaiCdDI7LYoPB2rkU9IYT07TCwev-IfAD7hRTZm7mxHGmGUQPuRS2miQOz652evH5fa0_HfILUjScAq7UevysdY2tCO4mM0AcyE8hN6Uxk3mNFlC1J_4_brgNFGfcKE6AS1Ne8jtwRFOYJMocA1j73RdK7zEDnGvUbAKcySnQhTSOKm5l7VrRW9ujdPOshDLIEwS-eerl1_cJMcWIP5wD99yI2onsLeJm0i_M5gAReZ0GobY2MKCZ5bCs7_SWdJBf2xCIeOD24LQdZWSEMu16MX0L_3V3isJH_B8nsHJrG6f7ur3OQnWouF1kxJmIiiz-LxHt7lpaxLQhAl0QxyMJ_MYVzouWACYX1olnsOhLEz- -WG-_n2cmMLf9nyYaEGw9rjg7YN6sJd6JuHHx6_A2qCCXg8oGyngyMyFsWmbTjTSmFqfBPWXSFmITqUgxUiIc0bjkjK4vL_W4RsBegvDXIeD-xFGd-sQ5yHqK2jzB9GM1TM7bLI2zL_LaQpHPBqD6JMeMbC4Ot9S9wJRS6AVa_fEa8ULUJmvXt1D79f6ucplWKaTfMiTt7Zkgdu1tm65alg8UqIYIFwGhKJH9wnh3VPKv7GjSc4F8q7ekzO7hbKRlvm6lUv9JIalAC4QzQY-hc3rRTp2PmtVAnJFjYI4qeSqzhR3iDBviIf-SKiFwt-0rOTzVBgy9HfCSb66v1lDo9OyFrFp1vJ84XlalnPcPiNUFRBBd9W1uyrENR3-MjptLVXiBt5PIPrAa6lIpMKpjU4Qtu0Bki8U_a7__cAlhUsNfV8hFSXmBnqSlvpQvUFY-c1XAVw5Sq9e57yXI5ksCrNXdEp6TyquHavDA2SmyhdC9UM3BFamkSzzewIxhB6vfCF2fnODVxfy6gYbbEtm4fzFz6ljxr9fQjSRHDSvE6ya_SLmmYljbUKDFiVUi5sAwrH3t76nGGrHxglg6hbfzixxoZ3UHhcFQ33pin_d_VoSdXhNXA1JseFQ_tZxR-wBIs6xD_2krRtB9wtMyERcr-FffDSHDjWMglLdG8HeFlD9r2YFBGk_-f0Dhv_-GaY2at6zxMxIAi2HcIDNuhzrOZEjPglNVoNnUZ1trFY-xYVH-kdmpdNQ-yF_GlsNXrwTH7-D9Ar7tzpyTmn3- -3El7_fQUv_]--></g></svg>